<svg width="106" height="80" viewBox="0 0 106 80" fill="none" xmlns="http://www.w3.org/2000/svg">
<path d="M105.777 39.5042H34.2178V79.0085H105.777V39.5042Z" fill="url(#paint0_linear)"/>
<path d="M34.2178 39.5042L0 19.7521L34.2178 0L68.3875 19.7521L34.2178 39.5042Z" fill="#F4F4F8"/>
<path d="M34.2178 78.9604L0 59.2082V19.7521L34.2178 39.5042V78.9604Z" fill="#CCD1F6"/>
<path d="M34.2178 78.9604L68.3875 59.2082V19.7521L34.2178 39.5042V78.9604Z" fill="#B9BEE4"/>
<path d="M34.2179 6.58401L31.4785 5.04616L34.2179 3.46021L36.9092 5.04616L34.2179 6.58401Z" fill="#D8DEF3"/>
<path d="M40.5616 10.2845L37.8223 8.69861L40.5616 7.11267L43.3009 8.69861L40.5616 10.2845Z" fill="#D8DEF3"/>
<path d="M46.9532 13.9851L44.2139 12.3992L46.9532 10.8132L49.6926 12.3992L46.9532 13.9851Z" fill="#D8DEF3"/>
<path d="M53.297 17.6375L50.5576 16.0515L53.297 14.4656L56.0363 16.0515L53.297 17.6375Z" fill="#D8DEF3"/>
<path d="M59.6886 21.338L56.9492 19.7521L59.6886 18.1661L62.4279 19.7521L59.6886 21.338Z" fill="#D8DEF3"/>
<path d="M27.8263 10.2845L25.0869 8.69861L27.8263 7.11267L30.5656 8.69861L27.8263 10.2845Z" fill="#D8DEF3"/>
<path d="M34.2179 13.9851L31.4785 12.3992L34.2179 10.8132L36.9092 12.3992L34.2179 13.9851Z" fill="#D8DEF3"/>
<path d="M40.5616 17.6375L37.8223 16.0515L40.5616 14.4656L43.3009 16.0515L40.5616 17.6375Z" fill="#D8DEF3"/>
<path d="M46.9532 21.338L44.2139 19.7521L46.9532 18.1661L49.6926 19.7521L46.9532 21.338Z" fill="#D8DEF3"/>
<path d="M53.297 24.9905L50.5576 23.4045L53.297 21.8186L56.0363 23.4045L53.297 24.9905Z" fill="#D8DEF3"/>
<path d="M21.4825 13.9851L18.7432 12.3992L21.4825 10.8132L24.1738 12.3992L21.4825 13.9851Z" fill="#D8DEF3"/>
<path d="M27.8263 17.6375L25.0869 16.0515L27.8263 14.4656L30.5656 16.0515L27.8263 17.6375Z" fill="#D8DEF3"/>
<path d="M34.2179 21.338L31.4785 19.7521L34.2179 18.1661L36.9092 19.7521L34.2179 21.338Z" fill="#D8DEF3"/>
<path d="M40.5616 24.9905L37.8223 23.4045L40.5616 21.8186L43.3009 23.4045L40.5616 24.9905Z" fill="#D8DEF3"/>
<path d="M46.9532 28.691L44.2139 27.1051L46.9532 25.5192L49.6926 27.1051L46.9532 28.691Z" fill="#D8DEF3"/>
<path d="M15.0899 17.6375L12.3506 16.0515L15.0899 14.4656L17.8293 16.0515L15.0899 17.6375Z" fill="#D8DEF3"/>
<path d="M21.4825 21.338L18.7432 19.7521L21.4825 18.1661L24.1738 19.7521L21.4825 21.338Z" fill="#D8DEF3"/>
<path d="M27.8263 24.9905L25.0869 23.4045L27.8263 21.8186L30.5656 23.4045L27.8263 24.9905Z" fill="#D8DEF3"/>
<path d="M34.2179 28.691L31.4785 27.1051L34.2179 25.5192L36.9092 27.1051L34.2179 28.691Z" fill="#D8DEF3"/>
<path d="M40.5616 32.3436L37.8223 30.7576L40.5616 29.1716L43.3009 30.7576L40.5616 32.3436Z" fill="#D8DEF3"/>
<path d="M8.69812 21.338L6.00684 19.7521L8.69812 18.1661L11.4375 19.7521L8.69812 21.338Z" fill="#D8DEF3"/>
<path d="M15.0899 24.9905L12.3506 23.4045L15.0899 21.8186L17.8293 23.4045L15.0899 24.9905Z" fill="#D8DEF3"/>
<path d="M21.4825 28.691L18.7432 27.1051L21.4825 25.5192L24.1738 27.1051L21.4825 28.691Z" fill="#D8DEF3"/>
<path d="M27.8263 32.3436L25.0869 30.7576L27.8263 29.1716L30.5656 30.7576L27.8263 32.3436Z" fill="#D8DEF3"/>
<path d="M34.2179 36.044L31.4785 34.458L34.2179 32.8721L36.9092 34.458L34.2179 36.044Z" fill="#D8DEF3"/>
<path d="M5.71884 29.6521L2.97949 28.0662V24.9424L5.71884 26.4803V29.6521Z" fill="#D8DEF3"/>
<path d="M12.1104 33.3526L9.37109 31.7667V28.5948L12.1104 30.1808V33.3526Z" fill="#D8DEF3"/>
<path d="M18.4542 37.0051L15.7148 35.4192V32.2954L18.4542 33.8333V37.0051Z" fill="#D8DEF3"/>
<path d="M24.8458 40.7057L22.1064 39.1198V35.9479L24.8458 37.5338V40.7057Z" fill="#D8DEF3"/>
<path d="M31.1895 44.3582L28.4502 42.7723V39.6484L31.1895 41.2344V44.3582Z" fill="#D8DEF3"/>
<path d="M5.71884 37.0051L2.97949 35.4192V32.2954L5.71884 33.8333V37.0051Z" fill="#D8DEF3"/>
<path d="M12.1104 40.7057L9.37109 39.1198V35.9479L12.1104 37.5338V40.7057Z" fill="#D8DEF3"/>
<path d="M18.4542 44.3582L15.7148 42.7723V39.6484L18.4542 41.2344V44.3582Z" fill="#D8DEF3"/>
<path d="M24.8458 48.0586L22.1064 46.4726V43.3008L24.8458 44.8867V48.0586Z" fill="#D8DEF3"/>
<path d="M31.1895 51.7111L28.4502 50.1252V47.0013L31.1895 48.5873V51.7111Z" fill="#D8DEF3"/>
<path d="M5.71884 44.3582L2.97949 42.7723V39.6484L5.71884 41.2344V44.3582Z" fill="#D8DEF3"/>
<path d="M12.1104 48.0586L9.37109 46.4726V43.3008L12.1104 44.8867V48.0586Z" fill="#D8DEF3"/>
<path d="M18.4542 51.7111L15.7148 50.1252V47.0013L18.4542 48.5873V51.7111Z" fill="#D8DEF3"/>
<path d="M24.8458 55.4116L22.1064 53.8257V50.6538L24.8458 52.2397V55.4116Z" fill="#D8DEF3"/>
<path d="M31.1895 59.0641L28.4502 57.4782V54.3544L31.1895 55.9403V59.0641Z" fill="#D8DEF3"/>
<path d="M5.71884 51.7111L2.97949 50.1252V47.0013L5.71884 48.5873V51.7111Z" fill="#D8DEF3"/>
<path d="M12.1104 55.4116L9.37109 53.8257V50.6538L12.1104 52.2397V55.4116Z" fill="#D8DEF3"/>
<path d="M18.4542 59.0641L15.7148 57.4782V54.3544L18.4542 55.9403V59.0641Z" fill="#D8DEF3"/>
<path d="M24.8458 62.7646L22.1064 61.1787V58.0068L24.8458 59.5928V62.7646Z" fill="#D8DEF3"/>
<path d="M31.1895 66.417L28.4502 64.8311V61.7073L31.1895 63.2932V66.417Z" fill="#D8DEF3"/>
<path d="M5.71884 59.0641L2.97949 57.4782V54.3544L5.71884 55.9403V59.0641Z" fill="#D8DEF3"/>
<path d="M12.1104 62.7646L9.37109 61.1787V58.0068L12.1104 59.5928V62.7646Z" fill="#D8DEF3"/>
<path d="M18.4542 66.417L15.7148 64.8311V61.7073L18.4542 63.2932V66.417Z" fill="#D8DEF3"/>
<path d="M24.8458 70.1176L22.1064 68.5317V65.3599L24.8458 66.9458V70.1176Z" fill="#D8DEF3"/>
<path d="M31.1895 73.7701L28.4502 72.1841V69.0603L31.1895 70.6463V73.7701Z" fill="#D8DEF3"/>
<path d="M62.668 29.6521L65.4073 28.0662V24.9424L62.668 26.4803V29.6521Z" fill="#D8DEF3"/>
<path d="M56.2764 33.3526L59.0157 31.7667V28.5948L56.2764 30.1808V33.3526Z" fill="#D8DEF3"/>
<path d="M49.9326 37.0051L52.672 35.4192V32.2954L49.9326 33.8333V37.0051Z" fill="#D8DEF3"/>
<path d="M43.541 40.7057L46.2804 39.1198V35.9479L43.541 37.5338V40.7057Z" fill="#D8DEF3"/>
<path d="M37.1973 44.3582L39.9366 42.7723V39.6484L37.1973 41.2344V44.3582Z" fill="#D8DEF3"/>
<path d="M62.668 37.0051L65.4073 35.4192V32.2954L62.668 33.8333V37.0051Z" fill="#D8DEF3"/>
<path d="M56.2764 40.7057L59.0157 39.1198V35.9479L56.2764 37.5338V40.7057Z" fill="#D8DEF3"/>
<path d="M49.9326 44.3582L52.672 42.7723V39.6484L49.9326 41.2344V44.3582Z" fill="#D8DEF3"/>
<path d="M43.541 48.0586L46.2804 46.4726V43.3008L43.541 44.8867V48.0586Z" fill="#D8DEF3"/>
<path d="M37.1973 51.7111L39.9366 50.1252V47.0013L37.1973 48.5873V51.7111Z" fill="#D8DEF3"/>
<path d="M62.668 44.3582L65.4073 42.7723V39.6484L62.668 41.2344V44.3582Z" fill="#D8DEF3"/>
<path d="M56.2764 48.0586L59.0157 46.4726V43.3008L56.2764 44.8867V48.0586Z" fill="#D8DEF3"/>
<path d="M49.9326 51.7111L52.672 50.1252V47.0013L49.9326 48.5873V51.7111Z" fill="#D8DEF3"/>
<path d="M43.541 55.4116L46.2804 53.8257V50.6538L43.541 52.2397V55.4116Z" fill="#D8DEF3"/>
<path d="M37.1973 59.0641L39.9366 57.4782V54.3544L37.1973 55.9403V59.0641Z" fill="#D8DEF3"/>
<path d="M62.668 51.7111L65.4073 50.1252V47.0013L62.668 48.5873V51.7111Z" fill="#D8DEF3"/>
<path d="M56.2764 55.4116L59.0157 53.8257V50.6538L56.2764 52.2397V55.4116Z" fill="#D8DEF3"/>
<path d="M49.9326 59.0641L52.672 57.4782V54.3544L49.9326 55.9403V59.0641Z" fill="#D8DEF3"/>
<path d="M43.541 62.7646L46.2804 61.1787V58.0068L43.541 59.5928V62.7646Z" fill="#D8DEF3"/>
<path d="M37.1973 66.417L39.9366 64.8311V61.7073L37.1973 63.2932V66.417Z" fill="#D8DEF3"/>
<path d="M62.668 59.0641L65.4073 57.4782V54.3544L62.668 55.9403V59.0641Z" fill="#D8DEF3"/>
<path d="M56.2764 62.7646L59.0157 61.1787V58.0068L56.2764 59.5928V62.7646Z" fill="#D8DEF3"/>
<path d="M49.9326 66.417L52.672 64.8311V61.7073L49.9326 63.2932V66.417Z" fill="#D8DEF3"/>
<path d="M43.541 70.1176L46.2804 68.5317V65.3599L43.541 66.9458V70.1176Z" fill="#D8DEF3"/>
<path d="M37.1973 73.7701L39.9366 72.1841V69.0603L37.1973 70.6463V73.7701Z" fill="#D8DEF3"/>
<defs>
<linearGradient id="paint0_linear" x1="105.761" y1="59.2269" x2="34.1975" y2="59.2269" gradientUnits="userSpaceOnUse">
<stop stop-color="white" stop-opacity="0.22"/>
<stop offset="1" stop-color="#C2C8E7"/>
</linearGradient>
</defs>
</svg>
