<svg width="269" height="153" viewBox="0 0 269 153" fill="none" xmlns="http://www.w3.org/2000/svg">
<path d="M54.8584 139.858L56.6454 138.828L60.4659 141.026L58.6635 142.056L54.8584 139.858Z" fill="#BDC1E4"/>
<path d="M45.7227 145.115L47.5097 144.085L51.3302 146.283L49.5432 147.313L45.7227 145.115Z" fill="#BDC1E4"/>
<path d="M26.0195 153V129.913L51.1609 115.434C61.4362 109.516 67.4289 99.0337 73.2213 88.8891C79.2755 78.2833 85.0063 68.277 95.6513 62.1442C103.277 57.7482 108.992 58.5321 114.523 59.3006C119.591 59.9923 124.382 60.6532 130.19 57.3178L148.892 46.543V82.2182L26.0195 153Z" fill="#BDC1E4"/>
<path d="M130.205 55.0275C118.882 61.5447 110.903 51.0773 95.6667 59.8693C73.4215 72.673 70.6794 101.908 51.1609 113.144C41.8561 118.493 33.3524 123.411 26.0195 127.623V129.913L51.1609 115.434C61.4362 109.516 67.4289 99.0336 73.2213 88.889C79.2755 78.2833 85.0063 68.277 95.6513 62.1441C103.277 57.7481 108.992 58.532 114.523 59.3005C119.591 59.9922 124.382 60.6532 130.19 57.3177L148.892 46.5429V44.2527L130.205 55.0275Z" fill="#5555C6"/>
<path d="M0 114.927L26.0195 129.913V153L0 138.014V114.927Z" fill="#F6F6FB"/>
<path d="M0 112.637L26.0195 127.623V129.913L0 114.927V112.637Z" fill="#6A6AE2"/>
<path d="M51.1609 113.144C62.9305 106.365 68.5996 93.0391 76.1328 80.7119V80.6965C81.0779 72.5962 86.8395 64.9416 95.6513 59.8539C110.887 51.0773 118.882 61.5447 130.19 55.0122L148.892 44.2374L122.872 29.251L104.17 40.0258C92.8475 46.5429 84.8676 36.0755 69.6318 44.8675C47.3866 57.6867 44.6444 86.9063 25.1414 98.1576C15.852 103.507 7.3329 108.41 0 112.637L26.0195 127.623C33.3524 123.412 41.8715 118.508 51.1609 113.144Z" fill="url(#paint0_linear)"/>
<path d="M242.263 63.9116H180.673L206.692 78.898L83.8047 149.695H124.783C136.475 138.905 110.548 138.89 133.81 125.486C161.108 109.762 212.084 111.284 231.449 100.125L268.283 78.9134L242.263 63.9116Z" fill="url(#paint1_linear)"/>
<path d="M83.8047 149.695V130.774C91.2608 128.161 95.4665 129.237 99.9032 130.375C105.85 131.896 111.996 133.464 125.738 125.548C141.497 116.464 147.891 103.061 153.544 91.2408C157.981 81.9724 161.802 73.9643 169.643 69.4299L206.692 48.0955V78.8982L83.8047 149.695Z" fill="#BDC1E4"/>
<path d="M169.643 67.155C150.325 78.2833 152.959 107.58 125.722 123.258C102.507 136.63 102.476 121.721 83.8047 128.453V130.774C91.2608 128.161 95.4665 129.237 99.9032 130.374C105.85 131.896 111.996 133.464 125.738 125.548C141.497 116.464 147.891 103.061 153.544 91.2408C157.981 81.9723 161.802 73.9642 169.643 69.4299L206.692 48.0954V45.8052L169.643 67.155Z" fill="#DD3B10"/>
<path d="M57.7852 115.742L83.8046 130.728V149.695L57.7852 134.694V115.742Z" fill="#F6F6FB"/>
<path d="M57.7852 113.451L83.8046 128.438V130.728L57.7852 115.742V113.451Z" fill="#FC780B"/>
<path d="M125.738 123.258C152.959 107.58 150.325 78.2834 169.658 67.155L206.692 45.8052L180.673 30.8188L143.623 52.1533C124.305 63.2816 126.939 92.5781 99.7029 108.256C76.5025 121.629 76.4563 106.719 57.7852 113.451L83.8046 128.438C102.491 121.721 102.522 136.63 125.738 123.258Z" fill="url(#paint2_linear)"/>
<path d="M57.7852 134.694L26.0195 152.985H70.0478C73.098 151.232 76.3639 149.342 79.7993 147.374L57.7852 134.694Z" fill="#EAEEF9"/>
<path d="M79.7993 147.39L60.9124 115.25L57.7852 113.451V134.693L79.7993 147.39Z" fill="#EAEEF9"/>
<path d="M145.503 53.9208C148.722 52.061 151.387 50.5393 154.037 49.0022L151.557 47.5728L148.907 49.0944L143.623 52.1378C124.305 63.2662 126.939 92.5626 99.7029 108.241C76.5025 121.613 76.4563 106.704 57.7852 113.436L60.9124 115.234C60.9124 115.234 62.2527 114.742 63.747 114.281C68.5996 113.328 90.814 120.752 100.72 127.731C106.697 129.252 112.381 130.928 125.738 123.227C138.601 115.818 144.794 105.382 149.785 95.2525C147.089 87.9053 139.587 57.3331 145.503 53.9208Z" fill="#FE9007"/>
<path d="M33.906 116.987H26.0186L31.0253 119.861L26.0186 122.751H33.906L38.9128 119.861L33.906 116.987Z" fill="url(#paint3_linear)"/>
<path d="M26.0186 122.751L31.0253 119.861V114.005L26.0186 116.894V122.751Z" fill="#BBC0E6"/>
<path d="M26.0184 122.751L21.0117 119.861V114.005L26.0184 116.894V122.751Z" fill="#CED3F8"/>
<path d="M26.0184 116.894L21.0117 114.005L26.0184 111.13L31.0251 114.005L26.0184 116.894Z" fill="#F6F6FB"/>
<path d="M183.291 125.425H155.593L165.021 130.851L155.593 136.292H183.291L192.719 130.851L183.291 125.425Z" fill="url(#paint4_linear)"/>
<path d="M169.488 132.419H143.376L152.804 137.86L143.376 143.286H169.488L178.916 137.86L169.488 132.419Z" fill="url(#paint5_linear)"/>
<path d="M154.437 139.427H131.16L140.604 144.853L131.16 150.295H154.437L163.866 144.853L154.437 139.427Z" fill="url(#paint6_linear)"/>
<path d="M195.509 118.416H167.811L177.239 123.857L167.811 129.283H195.509L204.937 123.857L195.509 118.416Z" fill="url(#paint7_linear)"/>
<path d="M158.381 97.6963L167.809 103.122V129.283L158.381 123.857V97.6963Z" fill="#CED2F4"/>
<path d="M177.237 97.6963L167.809 103.122V129.283L177.237 123.857V97.6963Z" fill="#BBBFE2"/>
<path d="M167.809 92.2705L158.381 97.6963L167.809 103.122L177.237 97.6963L167.809 92.2705Z" fill="#F5F5FA"/>
<path d="M158.381 97.6963L167.809 103.122V113.697L158.381 108.271V97.6963Z" fill="#FFAD02"/>
<path d="M177.237 97.6963L167.809 103.122V113.697L177.237 108.271V97.6963Z" fill="#FC780B"/>
<path d="M167.809 92.2705L158.381 97.6963L167.809 103.122L177.237 97.6963L167.809 92.2705Z" fill="#FFD03E"/>
<path d="M146.165 109.455L155.593 114.896V136.292L146.165 130.851V109.455Z" fill="#CED2F4"/>
<path d="M165.021 109.455L155.593 114.896V136.292L165.021 130.851V109.455Z" fill="#BBBFE2"/>
<path d="M155.593 104.029L146.165 109.455L155.593 114.896L165.021 109.455L155.593 104.029Z" fill="#F5F5FA"/>
<path d="M146.165 109.455L155.593 114.896V120.768L146.165 115.342V109.455Z" fill="#FFAD02"/>
<path d="M165.021 109.455L155.593 114.896V120.768L165.021 115.342V109.455Z" fill="#FC780B"/>
<path d="M155.593 104.029L146.165 109.455L155.593 114.896L165.021 109.455L155.593 104.029Z" fill="#FFD03E"/>
<path d="M133.948 103.967L143.376 109.393V143.285L133.948 137.86V103.967Z" fill="#5652CA"/>
<path d="M152.804 104.013L143.376 109.455V143.285L152.804 137.86V104.013Z" fill="#423EAD"/>
<path d="M143.376 98.6338L133.948 104.075L143.376 109.501L152.804 104.075L143.376 98.6338Z" fill="#6B67E7"/>
<path d="M121.732 133.541L131.16 138.982V150.295L121.732 144.854V133.541Z" fill="#CED2F4"/>
<path d="M140.604 133.541L131.16 138.982V150.295L140.604 144.854V133.541Z" fill="#BBBFE2"/>
<path d="M131.16 128.115L121.732 133.541L131.16 138.982L140.604 133.541L131.16 128.115Z" fill="#F5F5FA"/>
<path d="M126.631 147.682L121.732 141.395V144.853L126.631 147.682Z" fill="#EAEEF9"/>
<path d="M189.978 71.1512C189.069 70.8438 188.114 72.0581 188.083 73.1187C188.191 73.5491 188.699 74.1639 188.699 74.1639C188.699 74.1639 190.764 76.6386 191.334 76.9921C191.904 77.361 193.336 77.8221 193.983 76.8691C194.214 76.1928 193.783 75.7471 193.336 75.04C192.766 74.1024 192.427 73.0111 191.934 72.3348C191.534 71.7814 189.978 71.1512 189.978 71.1512Z" fill="url(#paint8_linear)"/>
<path d="M191.457 76.7154C190.871 76.3465 188.745 73.8103 188.745 73.8103C188.745 73.8103 188.252 73.2109 188.129 72.7805C188.098 72.9035 188.083 73.0111 188.083 73.134C188.191 73.5644 188.699 74.1792 188.699 74.1792C188.699 74.1792 190.764 76.6539 191.334 77.0074C191.904 77.3763 193.336 77.8374 193.983 76.8845C193.983 76.8537 193.999 76.8384 193.999 76.8076C193.275 77.4993 191.996 77.0689 191.457 76.7154Z" fill="#131147"/>
<path d="M192.242 71.2127C191.795 71.059 190.116 70.936 190.116 70.936C190.116 70.936 190.039 71.1512 189.839 71.2896C189.824 71.3049 189.793 71.3203 189.777 71.3357C189.392 71.4433 188.915 71.7353 189.546 72.3809C190.779 73.6259 192.581 73.3031 192.165 72.6576C191.888 72.2272 192.134 71.5509 192.242 71.2127Z" fill="white"/>
<path d="M194.184 56.7029C194.199 56.3186 193.799 55.089 193.013 54.428C189.578 51.5076 181.32 48.3259 177.392 44.9905C176.283 45.6822 174.788 47.0194 173.679 47.7111C172.185 54.013 184.525 55.8268 189.501 57.9479C188.545 62.1902 189.239 67.7236 189.3 71.5663C189.639 72.4117 191.365 73.0265 192.304 72.2734C192.92 67.8466 193.906 61.7445 194.184 56.7029Z" fill="url(#paint9_linear)"/>
<path d="M185.295 74.671C184.386 74.3636 183.431 75.5779 183.4 76.6385C183.508 77.0688 184.017 77.6837 184.017 77.6837C184.017 77.6837 186.081 80.1583 186.651 80.5119C187.221 80.8807 188.654 81.3419 189.301 80.3889C189.532 79.7126 189.1 79.2668 188.654 78.5598C188.084 77.6222 187.745 76.5309 187.252 75.8546C186.851 75.3012 185.295 74.671 185.295 74.671Z" fill="url(#paint10_linear)"/>
<path d="M186.774 80.2352C186.189 79.8663 184.063 77.3301 184.063 77.3301C184.063 77.3301 183.57 76.7307 183.447 76.3003C183.416 76.4233 183.4 76.5309 183.4 76.6538C183.508 77.0842 184.017 77.699 184.017 77.699C184.017 77.699 186.081 80.1737 186.651 80.5272C187.221 80.8961 188.654 81.3572 189.301 80.4042C189.301 80.3735 189.316 80.3581 189.316 80.3274C188.592 81.019 187.298 80.5733 186.774 80.2352Z" fill="#131147"/>
<path d="M187.56 74.7327C187.114 74.579 185.419 74.4561 185.419 74.4561C185.419 74.4561 185.342 74.6712 185.142 74.8096C185.126 74.825 185.096 74.8403 185.08 74.8557C184.695 74.9633 184.217 75.2553 184.849 75.9009C186.081 77.1459 187.884 76.8231 187.468 76.1776C187.206 75.7318 187.437 75.0709 187.56 74.7327Z" fill="white"/>
<path d="M189.501 60.2074C189.517 59.8231 189.116 58.5935 188.33 57.9325C184.895 55.0121 177.5 50.1089 173.572 46.7734C172.463 47.4651 170.969 48.8024 169.844 49.494C168.35 55.796 179.827 58.8701 184.818 61.437C183.863 65.6793 184.556 71.2128 184.618 75.0554C184.957 75.9008 186.682 76.5156 187.622 75.7625C188.223 71.3511 189.224 65.2643 189.501 60.2074Z" fill="url(#paint11_linear)"/>
<path d="M187.808 47.5267C187.624 47.4191 187.331 47.4191 187.161 47.5267L176.224 53.8287C176.039 53.9363 176.039 54.1054 176.224 54.1976L183.68 58.486C183.865 58.5936 184.157 58.5936 184.327 58.486L195.265 52.184C195.449 52.0764 195.449 51.9074 195.265 51.8151L187.808 47.5267Z" fill="white"/>
<path d="M184.326 57.6101L183.802 57.9175L184.064 58.0712L184.603 57.7638L184.326 57.6101Z" fill="#E6EAF5"/>
<path d="M185.234 57.0874L184.695 57.3948L184.957 57.5485L185.496 57.2411L185.234 57.0874Z" fill="#E6EAF5"/>
<path d="M186.128 56.5649L185.604 56.8724L185.866 57.0261L186.406 56.7186L186.128 56.5649Z" fill="#E6EAF5"/>
<path d="M187.036 56.0576L186.497 56.365L186.759 56.5187L187.298 56.2113L187.036 56.0576Z" fill="#E6EAF5"/>
<path d="M187.931 55.5349L187.392 55.8423L187.669 55.996L188.208 55.6886L187.931 55.5349Z" fill="#E6EAF5"/>
<path d="M188.839 55.0125L188.3 55.3199L188.562 55.4736L189.101 55.1662L188.839 55.0125Z" fill="#E6EAF5"/>
<path d="M189.733 54.4897L189.193 54.7972L189.471 54.9509L190.01 54.6435L189.733 54.4897Z" fill="#E6EAF5"/>
<path d="M190.642 53.9673L190.103 54.2901L190.364 54.4438L190.904 54.1364L190.642 53.9673Z" fill="#E6EAF5"/>
<path d="M191.536 53.46L191.012 53.7674L191.274 53.9211L191.813 53.6137L191.536 53.46Z" fill="#E6EAF5"/>
<path d="M192.444 52.9373L191.905 53.2447L192.167 53.3984L192.706 53.091L192.444 52.9373Z" fill="#E6EAF5"/>
<path d="M193.338 52.4148L192.799 52.7222L193.076 52.8759L193.615 52.5685L193.338 52.4148Z" fill="#E6EAF5"/>
<path d="M194.246 51.8921L193.707 52.1995L193.969 52.3532L194.508 52.0458L194.246 51.8921Z" fill="#E6EAF5"/>
<path d="M183.863 56.8416L182.893 57.3949L183.432 57.7023L184.387 57.149L183.863 56.8416Z" fill="#E6EAF5"/>
<path d="M183.355 56.1343L182.03 56.9028L182.569 57.2102L183.894 56.4417L183.355 56.1343Z" fill="#E6EAF5"/>
<path d="M182.816 55.4121L181.121 56.3805L181.66 56.6879L183.355 55.7195L182.816 55.4121Z" fill="#E6EAF5"/>
<path d="M180.998 55.1968L180.043 55.7501L180.767 56.1651L181.722 55.6118L180.998 55.1968Z" fill="#E6EAF5"/>
<path d="M182.323 54.4282L181.368 54.9816L182.092 55.4119L183.047 54.8432L182.323 54.4282Z" fill="#E6EAF5"/>
<path d="M183.663 53.675L182.692 54.2284L183.416 54.6434L184.387 54.0901L183.663 53.675Z" fill="#E6EAF5"/>
<path d="M188.238 51.0315L187.268 51.5848L187.992 51.9998L188.962 51.4465L188.238 51.0315Z" fill="#E6EAF5"/>
<path d="M190.488 49.7402L188.593 50.8162L189.317 51.2312L191.212 50.1552L190.488 49.7402Z" fill="#E6EAF5"/>
<path d="M186.914 51.8L184.018 53.4601L184.742 53.8751L187.638 52.2151L186.914 51.8Z" fill="#E6EAF5"/>
<path d="M185.003 56.1807L184.218 56.6264L184.757 56.9338L185.543 56.4881L185.003 56.1807Z" fill="#E6EAF5"/>
<path d="M184.51 55.4734L183.725 55.9191L184.264 56.2265L185.049 55.7808L184.51 55.4734Z" fill="#E6EAF5"/>
<path d="M184.002 54.751L183.217 55.2121L183.756 55.5195L184.542 55.0584L184.002 54.751Z" fill="#E6EAF5"/>
<path d="M185.158 54.0901L184.372 54.5512L184.896 54.8586L185.697 54.3975L185.158 54.0901Z" fill="#E6EAF5"/>
<path d="M186.313 53.4292L185.527 53.8749L186.051 54.1824L186.837 53.7366L186.313 53.4292Z" fill="#E6EAF5"/>
<path d="M187.468 52.7683L186.667 53.2141L187.206 53.5215L187.992 53.0757L187.468 52.7683Z" fill="#E6EAF5"/>
<path d="M188.609 52.092L187.823 52.5532L188.362 52.8606L189.148 52.3995L188.609 52.092Z" fill="#E6EAF5"/>
<path d="M189.763 51.4312L188.978 51.8923L189.517 52.1997L190.302 51.7386L189.763 51.4312Z" fill="#E6EAF5"/>
<path d="M191.597 50.3704L190.134 51.2157L190.673 51.5232L192.136 50.6778L191.597 50.3704Z" fill="#E6EAF5"/>
<path d="M185.666 54.8125L184.88 55.2582L185.419 55.5657L186.205 55.1199L185.666 54.8125Z" fill="#E6EAF5"/>
<path d="M186.821 54.1362L186.035 54.5974L186.559 54.9048L187.345 54.4436L186.821 54.1362Z" fill="#E6EAF5"/>
<path d="M187.976 53.4753L187.19 53.9365L187.714 54.2439L188.5 53.7828L187.976 53.4753Z" fill="#E6EAF5"/>
<path d="M189.117 52.8142L188.331 53.26L188.87 53.5674L189.656 53.1216L189.117 52.8142Z" fill="#E6EAF5"/>
<path d="M190.272 52.1533L189.486 52.5991L190.026 52.9065L190.811 52.4607L190.272 52.1533Z" fill="#E6EAF5"/>
<path d="M192.475 50.8777L190.642 51.9383L191.181 52.2457L193.014 51.1851L192.475 50.8777Z" fill="#E6EAF5"/>
<path d="M186.159 55.5195L185.373 55.9653L185.912 56.2727L186.698 55.8269L186.159 55.5195Z" fill="#E6EAF5"/>
<path d="M187.315 54.8433L186.529 55.3044L187.068 55.6118L187.854 55.1507L187.315 54.8433Z" fill="#E6EAF5"/>
<path d="M188.47 54.1824L187.685 54.6435L188.224 54.9509L189.009 54.4898L188.47 54.1824Z" fill="#E6EAF5"/>
<path d="M189.626 53.5212L188.84 53.967L189.364 54.2898L190.149 53.8287L189.626 53.5212Z" fill="#E6EAF5"/>
<path d="M190.781 52.8604L189.995 53.3061L190.519 53.6135L191.305 53.1678L190.781 52.8604Z" fill="#E6EAF5"/>
<path d="M191.936 52.1995L191.135 52.6452L191.674 52.9526L192.46 52.5069L191.936 52.1995Z" fill="#E6EAF5"/>
<path d="M193.338 51.385L192.29 51.9845L192.829 52.2919L193.877 51.6924L193.338 51.385Z" fill="#E6EAF5"/>
<path d="M193.846 52.7068L185.203 57.6869L185.465 57.8406L194.107 52.8605L193.846 52.7068Z" fill="#423EAD"/>
<path d="M186.913 51.1542L182.492 53.6904L179.75 52.1072L184.171 49.571L186.913 51.1542Z" fill="#E6EAF5"/>
<path d="M176.207 54.2131L183.663 58.5015C183.802 58.5784 184.017 58.5938 184.187 58.5477C184.187 58.5477 184.295 58.5015 184.31 58.5015L195.248 52.1996C195.263 52.1996 195.279 52.1842 195.279 52.1842C195.279 52.1842 195.279 52.1842 195.294 52.1842L195.31 52.1689C195.31 52.1689 195.31 52.1689 195.325 52.1535L195.34 52.1381C195.34 52.1227 195.356 52.1227 195.356 52.1074C195.371 52.0766 195.371 52.0613 195.387 52.0305V52.1842C195.387 52.2457 195.34 52.3226 195.248 52.3687L184.31 58.6706C184.048 58.7936 183.679 58.7782 183.571 58.7475C183.463 58.7167 183.355 58.7014 183.247 58.6706L176.207 54.6128C176.115 54.5667 176.068 54.4898 176.068 54.4283V54.0287C176.084 54.0902 176.115 54.1517 176.207 54.2131Z" fill="url(#paint12_linear)"/>
<path d="M187.499 48.0029C188.331 48.4487 190.118 48.7253 190.642 49.1711C191.166 49.6322 191.274 50.9695 190.888 51.3998C190.503 51.8302 190.057 51.8148 190.272 51.3998C190.503 50.9848 190.442 50.1856 189.81 50.1087C188.608 49.9857 190.118 51.3076 189.564 51.323C189.04 51.3384 188.809 50.662 188.162 50.1702C187.515 49.6783 187.068 49.5246 186.467 49.002C185.943 48.5409 187.499 48.0029 187.499 48.0029Z" fill="#FACFA7"/>
<path d="M179.812 30.542C182.693 33.032 181.429 40.8711 181.737 41.3014C182.045 41.7164 185.697 45.4822 187.776 47.9569C187.638 48.4488 186.482 49.3864 186.482 49.3864C185.281 48.7408 180.413 45.513 179.488 43.853C178.549 42.1776 179.812 30.542 179.812 30.542Z" fill="#A7ADCE"/>
<path d="M169.736 31.5874C170.83 30.2194 173.511 28.3288 175.267 28.1904C178.255 27.9753 180.628 30.4346 181.229 32.4942C181.799 34.4309 181.121 45.0981 181.768 47.7419C181.444 49.1252 179.38 49.8784 178.409 50.0936C174.188 51.0158 170.291 51.9688 169.521 49.3865C168.165 44.8522 168.165 33.1705 169.736 31.5874Z" fill="url(#paint13_linear)"/>
<path d="M174.897 24.2399C174.789 23.2716 178.132 25.239 177.994 26.5148C177.886 27.56 177.578 28.4669 178.625 29.1124C178.995 29.4045 180.212 31.1414 178.317 31.4334C176.114 31.7716 173.942 29.9732 172.895 29.0356C174.081 28.39 175.252 27.3755 174.897 24.2399Z" fill="#FACFA7"/>
<path d="M174.112 23.6713L175.468 21.7654H181.384V24.7165C181.384 27.1758 180.059 28.8666 178.426 28.8666C176.839 28.8666 175.36 27.5601 175.283 25.6695L174.559 25.4236L174.112 23.6713Z" fill="#FACFA7"/>
<path d="M178.286 29.8195C176.869 29.8195 175.128 27.56 175.282 25.6848C175.359 27.4524 176.823 28.7282 178.301 28.8665C178.425 28.9741 178.502 29.0356 178.625 29.1125C178.656 29.1278 178.687 29.1739 178.717 29.2047C178.733 29.5121 178.548 29.8195 178.286 29.8195Z" fill="#F0C19B"/>
<path d="M182.4 51.3999C183.648 52.2607 183.987 51.7381 184.649 52.0301C185.312 52.3221 185.943 52.7833 186.174 52.9523C186.405 53.106 185.62 53.0753 185.296 52.9523C186.051 53.5825 186.113 54.4126 185.974 54.7814C185.82 55.2118 184.742 55.6115 184.495 55.3655C183.463 54.3664 183.648 53.9822 182.23 53.6133C181.722 53.4749 180.998 52.7372 180.998 52.7372L182.4 51.3999Z" fill="#FACFA7"/>
<path d="M171.739 31.5411C170.615 31.3412 169.644 31.8792 169.428 33.8005C169.089 36.9362 171.061 44.1604 172.109 45.8511C173.172 47.5419 180.289 52.3683 181.075 52.7218C181.383 52.2761 182.523 50.9081 182.584 50.8159C181.783 49.909 175.976 44.56 175.329 42.8692C174.42 40.3946 175.282 32.1559 171.739 31.5411Z" fill="url(#paint14_linear)"/>
<path d="M197.942 47.2508L187.389 53.3069C187.22 53.3991 187.081 53.5528 186.973 53.7219L184.247 58.3331C184.201 58.4253 184.293 58.5175 184.37 58.4714L195.385 52.1541C195.477 52.108 195.539 52.0311 195.6 51.9389L198.142 47.6351C198.343 47.2969 198.219 47.0971 197.942 47.2508Z" fill="#362E92"/>
<path d="M184.263 58.3166L186.99 53.7054C187.097 53.5364 187.236 53.398 187.405 53.2904L197.958 47.2344C198.081 47.1576 198.174 47.1729 198.22 47.219C198.22 47.219 198.143 47.1268 198.066 47.0653C198.02 47.0192 197.927 47.0192 197.804 47.0807L187.251 53.1367C187.082 53.229 186.943 53.3827 186.835 53.5517L184.109 58.1629C184.093 58.209 184.093 58.2398 184.124 58.2705C184.124 58.2705 184.124 58.2705 184.14 58.2859C184.186 58.3166 184.263 58.4089 184.278 58.4242C184.247 58.4089 184.232 58.3627 184.263 58.3166Z" fill="url(#paint15_linear)"/>
<path d="M180.196 23.2409C182.369 24.4245 185.634 22.8106 182.338 20.797C179.272 18.9218 176.884 18.4453 175.159 20.5357C172.555 23.6713 174.404 27.5908 174.604 27.3142C175.282 26.4073 174.62 25.0547 175.744 24.7626C175.667 24.1171 175.806 22.6415 176.314 23.7174C176.854 24.8395 177.239 23.3024 177.485 22.703C177.747 22.0881 178.486 22.3033 180.196 23.2409Z" fill="url(#paint16_linear)"/>
<path d="M120.238 71.4741L115.139 74.4098V72.4731L120.238 69.5374V71.4741Z" fill="#6A6AE2"/>
<path d="M119.098 75.2704L114.984 77.6375V76.0851L119.098 73.7026V75.2704Z" fill="#6A6AE2"/>
<path d="M186.312 0.261926L207.217 12.2971C208.264 12.8966 209.127 14.3875 209.127 15.6018V30.9264C209.127 32.1406 208.264 32.6325 207.217 32.033L190.933 22.6569L187.806 25.27V20.8586L186.312 19.9978C185.264 19.3984 184.401 17.9074 184.401 16.6931V1.36861C184.401 0.154331 185.264 -0.3529 186.312 0.261926Z" fill="url(#paint17_linear)"/>
<path d="M189.777 10.0838L187.174 8.59281V7.54761L189.777 9.05393V10.0838Z" fill="#FD9009"/>
<path d="M188.206 18.8759V9.19238L188.745 9.48443V19.1679L188.206 18.8759Z" fill="url(#paint18_linear)"/>
<path d="M192.381 12.1128L189.777 10.6065V9.57666L192.381 11.0676V12.1128Z" fill="#FFD03E"/>
<path d="M190.81 20.3667V11.2058L191.333 11.5132V20.6741L190.81 20.3667Z" fill="url(#paint19_linear)"/>
<path d="M194.984 14.1262L192.381 12.6199V11.5901L194.984 13.081V14.1262Z" fill="#FD9009"/>
<path d="M193.413 21.8732V13.2195L193.937 13.5269V22.1652L193.413 21.8732Z" fill="url(#paint20_linear)"/>
<path d="M197.588 15.1099L194.984 13.6036V12.5737L197.588 14.0647V15.1099Z" fill="#FFD03E"/>
<path d="M196.017 23.364V14.2031L196.54 14.5105V23.6714L196.017 23.364Z" fill="url(#paint21_linear)"/>
<path d="M200.177 17.6463L197.589 16.1399V15.1101L200.177 16.6011V17.6463Z" fill="#FFD03E"/>
<path d="M198.62 24.8703V16.7393L199.144 17.0467V25.1624L198.62 24.8703Z" fill="url(#paint22_linear)"/>
<path d="M202.811 20.1975L200.223 18.6912V17.6614L202.811 19.1523V20.1975Z" fill="#FD9009"/>
<path d="M201.254 26.392V19.2908L201.778 19.5982V26.6841L201.254 26.392Z" fill="url(#paint23_linear)"/>
<path d="M205.414 21.1814L202.811 19.6751V18.6453L205.414 20.1362V21.1814Z" fill="#FFD03E"/>
<path d="M203.858 27.8829V20.2744L204.382 20.5818V28.1903L203.858 27.8829Z" fill="url(#paint24_linear)"/>
<defs>
<linearGradient id="paint0_linear" x1="41.0013" y1="136.258" x2="107.683" y2="20.502" gradientUnits="userSpaceOnUse">
<stop offset="0.168" stop-color="#7F7FF4"/>
<stop offset="0.2546" stop-color="#6A6AE2"/>
<stop offset="0.4633" stop-color="#6A6AE2"/>
<stop offset="0.5815" stop-color="#7373EA"/>
<stop offset="0.6865" stop-color="#7F7FF4"/>
<stop offset="0.8249" stop-color="#6A6AE2"/>
<stop offset="0.8604" stop-color="#7F7FF4"/>
</linearGradient>
<linearGradient id="paint1_linear" x1="83.8099" y1="106.802" x2="268.285" y2="106.802" gradientUnits="userSpaceOnUse">
<stop stop-color="#DCE1F4"/>
<stop offset="0.3998" stop-color="#E7EAF7"/>
<stop offset="1" stop-color="white"/>
</linearGradient>
<linearGradient id="paint2_linear" x1="98.9496" y1="137.163" x2="165.308" y2="21.9677" gradientUnits="userSpaceOnUse">
<stop stop-color="#FFAD02"/>
<stop offset="0.0889101" stop-color="#FC780B"/>
<stop offset="0.1448" stop-color="#FD9107"/>
<stop offset="0.2043" stop-color="#FFA603"/>
<stop offset="0.2441" stop-color="#FFAD02"/>
<stop offset="0.2934" stop-color="#FFA603"/>
<stop offset="0.3639" stop-color="#FE9306"/>
<stop offset="0.4386" stop-color="#FC780B"/>
<stop offset="0.623" stop-color="#FC780B"/>
<stop offset="0.6401" stop-color="#FC8109"/>
<stop offset="0.6677" stop-color="#FE9905"/>
<stop offset="0.6865" stop-color="#FFAD02"/>
</linearGradient>
<linearGradient id="paint3_linear" x1="26.0225" y1="119.863" x2="38.9101" y2="119.863" gradientUnits="userSpaceOnUse">
<stop stop-color="#D1D7F3"/>
<stop offset="0.2605" stop-color="#E1E5F7"/>
<stop offset="0.7107" stop-color="#F7F8FD"/>
<stop offset="1" stop-color="white"/>
</linearGradient>
<linearGradient id="paint4_linear" x1="155.598" y1="130.856" x2="192.718" y2="130.856" gradientUnits="userSpaceOnUse">
<stop stop-color="#C2C7E3"/>
<stop offset="0.2529" stop-color="#DDE0EF"/>
<stop offset="0.543" stop-color="#F6F7FB"/>
<stop offset="0.7195" stop-color="white"/>
</linearGradient>
<linearGradient id="paint5_linear" x1="143.382" y1="137.858" x2="178.911" y2="137.858" gradientUnits="userSpaceOnUse">
<stop stop-color="#C2C7E3"/>
<stop offset="0.2529" stop-color="#DDE0EF"/>
<stop offset="0.543" stop-color="#F6F7FB"/>
<stop offset="0.7195" stop-color="white"/>
</linearGradient>
<linearGradient id="paint6_linear" x1="131.167" y1="144.86" x2="163.867" y2="144.86" gradientUnits="userSpaceOnUse">
<stop stop-color="#C2C7E3"/>
<stop offset="0.2529" stop-color="#DDE0EF"/>
<stop offset="0.543" stop-color="#F6F7FB"/>
<stop offset="0.7195" stop-color="white"/>
</linearGradient>
<linearGradient id="paint7_linear" x1="167.814" y1="123.852" x2="204.935" y2="123.852" gradientUnits="userSpaceOnUse">
<stop stop-color="#C2C7E3"/>
<stop offset="0.2529" stop-color="#DDE0EF"/>
<stop offset="0.543" stop-color="#F6F7FB"/>
<stop offset="0.7195" stop-color="white"/>
</linearGradient>
<linearGradient id="paint8_linear" x1="189.113" y1="75.1716" x2="192.77" y2="73.6868" gradientUnits="userSpaceOnUse">
<stop stop-color="#20196F"/>
<stop offset="0.5268" stop-color="#312B8E"/>
<stop offset="1" stop-color="#423EAD"/>
</linearGradient>
<linearGradient id="paint9_linear" x1="173.555" y1="58.7884" x2="194.192" y2="58.7884" gradientUnits="userSpaceOnUse">
<stop stop-color="#20196F"/>
<stop offset="0.2333" stop-color="#231C74"/>
<stop offset="0.5147" stop-color="#2B2583"/>
<stop offset="0.8196" stop-color="#38339B"/>
<stop offset="1" stop-color="#423EAD"/>
</linearGradient>
<linearGradient id="paint10_linear" x1="184.425" y1="78.6831" x2="188.083" y2="77.1984" gradientUnits="userSpaceOnUse">
<stop stop-color="#20196F"/>
<stop offset="0.5268" stop-color="#312B8E"/>
<stop offset="1" stop-color="#423EAD"/>
</linearGradient>
<linearGradient id="paint11_linear" x1="169.717" y1="61.4453" x2="189.505" y2="61.4453" gradientUnits="userSpaceOnUse">
<stop stop-color="#20196F"/>
<stop offset="0.5126" stop-color="#302B8D"/>
<stop offset="1" stop-color="#423EAD"/>
</linearGradient>
<linearGradient id="paint12_linear" x1="195.393" y1="55.3928" x2="176.076" y2="55.3928" gradientUnits="userSpaceOnUse">
<stop offset="0.5618" stop-color="#A3A9CA"/>
<stop offset="0.6124" stop-color="#CCD0F2"/>
</linearGradient>
<linearGradient id="paint13_linear" x1="168.25" y1="32.8096" x2="181.946" y2="48.0555" gradientUnits="userSpaceOnUse">
<stop stop-color="#F7F7FC"/>
<stop offset="0.1463" stop-color="#EDEDF8"/>
<stop offset="0.7006" stop-color="#CACDE9"/>
<stop offset="1" stop-color="#BDC1E4"/>
</linearGradient>
<linearGradient id="paint14_linear" x1="181.76" y1="48.3795" x2="167.403" y2="33.805" gradientUnits="userSpaceOnUse">
<stop stop-color="#D0D4F6"/>
<stop offset="0.6604" stop-color="#EEEFFC"/>
<stop offset="1" stop-color="white"/>
</linearGradient>
<linearGradient id="paint15_linear" x1="184.104" y1="52.7471" x2="198.209" y2="52.7471" gradientUnits="userSpaceOnUse">
<stop offset="0.1748" stop-color="#423EAD"/>
<stop offset="0.1984" stop-color="#5652C9"/>
<stop offset="0.2267" stop-color="#6B67E7"/>
</linearGradient>
<linearGradient id="paint16_linear" x1="173.77" y1="23.2433" x2="183.733" y2="23.2433" gradientUnits="userSpaceOnUse">
<stop stop-color="#5655C4"/>
<stop offset="0.4281" stop-color="#4645AB"/>
<stop offset="1" stop-color="#34318D"/>
</linearGradient>
<linearGradient id="paint17_linear" x1="211.937" y1="33.1126" x2="180.111" y2="1.21415" gradientUnits="userSpaceOnUse">
<stop stop-color="#4141AA"/>
<stop offset="0.3925" stop-color="#504EC0"/>
<stop offset="1" stop-color="#6B67E9"/>
</linearGradient>
<linearGradient id="paint18_linear" x1="188.475" y1="19.1753" x2="188.475" y2="9.18874" gradientUnits="userSpaceOnUse">
<stop offset="0.0324695"/>
<stop offset="0.2678" stop-color="#121132"/>
<stop offset="0.4917" stop-color="#211F5A"/>
<stop offset="0.6951" stop-color="#2B2977"/>
<stop offset="0.8712" stop-color="#322F89"/>
<stop offset="1" stop-color="#34318F"/>
</linearGradient>
<linearGradient id="paint19_linear" x1="191.077" y1="20.6738" x2="191.077" y2="11.206" gradientUnits="userSpaceOnUse">
<stop offset="0.0324695"/>
<stop offset="0.2678" stop-color="#121132"/>
<stop offset="0.4917" stop-color="#211F5A"/>
<stop offset="0.6951" stop-color="#2B2977"/>
<stop offset="0.8712" stop-color="#322F89"/>
<stop offset="1" stop-color="#34318F"/>
</linearGradient>
<linearGradient id="paint20_linear" x1="193.678" y1="22.1726" x2="193.678" y2="13.2235" gradientUnits="userSpaceOnUse">
<stop offset="0.0324695"/>
<stop offset="0.2678" stop-color="#121132"/>
<stop offset="0.4917" stop-color="#211F5A"/>
<stop offset="0.6951" stop-color="#2B2977"/>
<stop offset="0.8712" stop-color="#322F89"/>
<stop offset="1" stop-color="#34318F"/>
</linearGradient>
<linearGradient id="paint21_linear" x1="196.28" y1="23.6711" x2="196.28" y2="14.2033" gradientUnits="userSpaceOnUse">
<stop offset="0.0324695"/>
<stop offset="0.2678" stop-color="#121132"/>
<stop offset="0.4917" stop-color="#211F5A"/>
<stop offset="0.6951" stop-color="#2B2977"/>
<stop offset="0.8712" stop-color="#322F89"/>
<stop offset="1" stop-color="#34318F"/>
</linearGradient>
<linearGradient id="paint22_linear" x1="198.881" y1="25.1697" x2="198.881" y2="16.7395" gradientUnits="userSpaceOnUse">
<stop offset="0.0324695"/>
<stop offset="0.2678" stop-color="#121132"/>
<stop offset="0.4917" stop-color="#211F5A"/>
<stop offset="0.6951" stop-color="#2B2977"/>
<stop offset="0.8712" stop-color="#322F89"/>
<stop offset="1" stop-color="#34318F"/>
</linearGradient>
<linearGradient id="paint23_linear" x1="201.516" y1="26.6875" x2="201.516" y2="19.2947" gradientUnits="userSpaceOnUse">
<stop offset="0.0324695"/>
<stop offset="0.2678" stop-color="#121132"/>
<stop offset="0.4917" stop-color="#211F5A"/>
<stop offset="0.6951" stop-color="#2B2977"/>
<stop offset="0.8712" stop-color="#322F89"/>
<stop offset="1" stop-color="#34318F"/>
</linearGradient>
<linearGradient id="paint24_linear" x1="204.118" y1="28.186" x2="204.118" y2="20.2745" gradientUnits="userSpaceOnUse">
<stop offset="0.0324695"/>
<stop offset="0.2678" stop-color="#121132"/>
<stop offset="0.4917" stop-color="#211F5A"/>
<stop offset="0.6951" stop-color="#2B2977"/>
<stop offset="0.8712" stop-color="#322F89"/>
<stop offset="1" stop-color="#34318F"/>
</linearGradient>
</defs>
</svg>
