<svg width="350" height="174" viewBox="0 0 350 174" fill="none" xmlns="http://www.w3.org/2000/svg">
<path fill-rule="evenodd" clip-rule="evenodd" d="M47 107.383C81.7939 107.383 110 79.338 110 44.7429C110 36.0041 108.2 27.6834 104.949 20.127C101.403 11.8855 106.712 2.78705e-06 115.684 2.66981e-06L320 0C336.569 0 350 13.4315 350 30V144C350 160.569 336.569 174 320 174L30 174C13.4315 174 0 160.569 0 144L0 112.551C0 103.382 12.5479 97.9862 20.8995 101.771C28.8519 105.375 37.6901 107.383 47 107.383Z" fill="#FEE4D1"/>
<path fill-rule="evenodd" clip-rule="evenodd" d="M47 107.383C81.7939 107.383 110 79.338 110 44.7429C110 36.0041 108.2 27.6834 104.949 20.127C101.403 11.8855 106.712 2.78705e-06 115.684 2.66981e-06L320 0C336.569 0 350 13.4315 350 30V144C350 160.569 336.569 174 320 174L30 174C13.4315 174 0 160.569 0 144L0 112.551C0 103.382 12.5479 97.9862 20.8995 101.771C28.8519 105.375 37.6901 107.383 47 107.383Z" fill="url(#paint0_linear)" fill-opacity="0.3"/>
<defs>
<linearGradient id="paint0_linear" x1="2.45891" y1="108.773" x2="150.591" y2="239.83" gradientUnits="userSpaceOnUse">
<stop stop-color="white"/>
<stop offset="1" stop-color="white" stop-opacity="0"/>
</linearGradient>
</defs>
</svg>
