<svg width="400" height="439" viewBox="0 0 400 439" fill="none" xmlns="http://www.w3.org/2000/svg">
<g filter="url(#filter0_d)">
<mask id="path-1-inside-1" fill="white">
<path fill-rule="evenodd" clip-rule="evenodd" d="M70 28C53.4315 28 40 41.4315 40 58V357C40 373.569 53.4315 387 70 387H330C346.569 387 360 373.569 360 357V209.708C343.679 198.323 333 179.409 333 158C333 136.591 343.679 117.677 360 106.292V58C360 41.4315 346.569 28 330 28H70Z"/>
</mask>
<path fill-rule="evenodd" clip-rule="evenodd" d="M70 28C53.4315 28 40 41.4315 40 58V357C40 373.569 53.4315 387 70 387H330C346.569 387 360 373.569 360 357V209.708C343.679 198.323 333 179.409 333 158C333 136.591 343.679 117.677 360 106.292V58C360 41.4315 346.569 28 330 28H70Z" fill="white"/>
<path d="M360 209.708H361V209.186L360.572 208.888L360 209.708ZM360 106.292L360.572 107.112L361 106.814V106.292H360ZM41 58C41 41.9837 53.9837 29 70 29V27C52.8792 27 39 40.8792 39 58H41ZM41 357V58H39V357H41ZM70 386C53.9837 386 41 373.016 41 357H39C39 374.121 52.8792 388 70 388V386ZM330 386H70V388H330V386ZM359 357C359 373.016 346.016 386 330 386V388C347.121 388 361 374.121 361 357H359ZM359 209.708V357H361V209.708H359ZM360.572 208.888C344.507 197.682 334 179.068 334 158H332C332 179.749 342.85 198.964 359.428 210.528L360.572 208.888ZM334 158C334 136.932 344.507 118.318 360.572 107.112L359.428 105.472C342.85 117.036 332 136.251 332 158H334ZM359 58V106.292H361V58H359ZM330 29C346.016 29 359 41.9837 359 58H361C361 40.8792 347.121 27 330 27V29ZM70 29H330V27H70V29Z" fill="#5454D4" fill-opacity="0.1" mask="url(#path-1-inside-1)"/>
</g>
<defs>
<filter id="filter0_d" x="0" y="0" width="400" height="439" filterUnits="userSpaceOnUse" color-interpolation-filters="sRGB">
<feFlood flood-opacity="0" result="BackgroundImageFix"/>
<feColorMatrix in="SourceAlpha" type="matrix" values="0 0 0 0 0 0 0 0 0 0 0 0 0 0 0 0 0 0 127 0"/>
<feOffset dy="12"/>
<feGaussianBlur stdDeviation="20"/>
<feColorMatrix type="matrix" values="0 0 0 0 0.329412 0 0 0 0 0.329412 0 0 0 0 0.831373 0 0 0 0.1 0"/>
<feBlend mode="normal" in2="BackgroundImageFix" result="effect1_dropShadow"/>
<feBlend mode="normal" in="SourceGraphic" in2="effect1_dropShadow" result="shape"/>
</filter>
</defs>
</svg>
