<svg width="177" height="96" viewBox="0 0 177 96" fill="none" xmlns="http://www.w3.org/2000/svg">
<g clip-path="url(#clip0)">
<path d="M176.2 48.7H87.2002V95.4H176.2V48.7Z" fill="url(#paint0_linear)"/>
<path d="M47.4004 26V72.7C47.4004 73.8 48.1004 74.8 49.5004 75.6L81.6004 94.1C84.4004 95.7 88.9004 95.7 91.7004 94.1L123.8 75.6C125.2 74.8 125.9 73.7 125.9 72.7V26H47.4004Z" fill="url(#paint1_linear)"/>
<path d="M49.5004 28.8999C48.1004 28.0999 47.4004 26.9999 47.4004 25.9999C47.4004 24.8999 48.1004 23.8999 49.5004 23.0999L81.6004 4.5999C84.4004 2.9999 88.9004 2.9999 91.7004 4.5999L123.8 23.0999C125.2 23.8999 125.9 24.9999 125.9 25.9999C125.9 27.0999 125.2 28.0999 123.8 28.8999L91.7004 47.4999C88.9004 49.0999 84.4004 49.0999 81.6004 47.4999L49.5004 28.8999Z" fill="#F6F6FB"/>
<path d="M101.2 64.9C101.2 60.4 104.3 55 108.2 52.8C112.1 50.6 115.2 52.4 115.2 56.8C115.2 61.3 112.1 66.7 108.2 68.9C104.3 71.2 101.2 69.4 101.2 64.9Z" fill="#DAE0F5"/>
<path d="M108.1 45.2C100.6 49.5 94.5 60.1 94.5 68.7C94.5 77.4 100.6 80.9 108.1 76.5C115.6 72.2 121.7 61.6 121.7 53C121.7 44.4 115.7 40.9 108.1 45.2ZM108.1 73.4C102.1 76.8 97.3 74.1 97.3 67.2C97.3 60.3 102.1 51.9 108.1 48.5C114.1 45.1 118.9 47.8 118.9 54.7C119 61.6 114.1 69.9 108.1 73.4Z" fill="#DAE0F5"/>
<path d="M72.0996 64.8998C72.0996 60.3998 68.9996 54.9998 65.0996 52.7998C61.1996 50.5998 58.0996 52.3998 58.0996 56.7998C58.0996 61.2998 61.1996 66.6998 65.0996 68.8998C68.8996 71.1998 72.0996 69.3998 72.0996 64.8998Z" fill="#DAE0F5"/>
<path d="M51.5 53.0998C51.5 61.7998 57.6 72.2998 65.1 76.5998C72.6 80.8998 78.7 77.3998 78.7 68.7998C78.7 60.0998 72.6 49.5998 65.1 45.2998C57.6 40.8998 51.5 44.3998 51.5 53.0998ZM54.3 54.6998C54.3 47.7998 59.1 44.9998 65.1 48.4998C71.1 51.8998 75.9 60.2998 75.9 67.1998C75.9 74.0998 71.1 76.8998 65.1 73.3998C59.1 69.8998 54.3 61.5998 54.3 54.6998Z" fill="#DAE0F5"/>
</g>
<defs>
<linearGradient id="paint0_linear" x1="87.1924" y1="71.9855" x2="176.191" y2="71.9855" gradientUnits="userSpaceOnUse">
<stop stop-color="#CFD5F1"/>
<stop offset="1" stop-color="white"/>
</linearGradient>
<linearGradient id="paint1_linear" x1="47.4338" y1="60.6741" x2="125.802" y2="60.6741" gradientUnits="userSpaceOnUse">
<stop offset="0.4247" stop-color="#CED3F8"/>
<stop offset="0.529" stop-color="#B0B5D8"/>
<stop offset="0.5626" stop-color="#A5ABCC"/>
</linearGradient>
<clipPath id="clip0">
<rect width="176.2" height="95.3" fill="white"/>
</clipPath>
</defs>
</svg>
