<svg width="101" height="72" viewBox="0 0 101 72" fill="none" xmlns="http://www.w3.org/2000/svg">
<path d="M100.395 35.8518H30.7578V71.7516H100.395V35.8518Z" fill="url(#paint0_linear)"/>
<path d="M25.9517 34.3139L1.97039 20.473C0.672809 19.7041 0 18.6948 0 17.7337C0 16.7244 0.672809 15.7152 1.97039 14.9943L25.9517 1.15342C27.2492 0.384481 28.9793 0 30.7094 0C32.4395 0 34.1696 0.384481 35.4672 1.15342L59.4485 14.9943C60.7461 15.7632 61.4189 16.7725 61.4189 17.7337C61.4189 18.7429 60.7461 19.7521 59.4485 20.473L35.4672 34.3139C34.1696 35.0828 32.4395 35.4673 30.7094 35.4673C29.0274 35.4673 27.2973 35.0828 25.9517 34.3139Z" fill="white"/>
<path d="M59.4966 20.473L35.5152 34.3139C34.2176 35.0828 32.4875 35.4673 30.7574 35.4673C29.0273 35.4673 27.2972 35.0828 25.9996 34.3139L2.01825 20.473C0.720663 19.7041 0.0478516 18.6948 0.0478516 17.7336V54.018C0.0478516 55.0272 0.720663 56.0364 2.01825 56.7573L25.9996 70.5982C27.2972 71.3671 29.0273 71.7516 30.7574 71.7516C32.4875 71.7516 34.2176 71.3671 35.5152 70.5982L59.4966 56.7573C60.7941 55.9884 61.467 54.9791 61.467 54.018V17.7336C61.515 18.6948 60.8422 19.7041 59.4966 20.473Z" fill="url(#paint1_linear)"/>
<defs>
<linearGradient id="paint0_linear" x1="30.7393" y1="53.8044" x2="100.387" y2="53.8044" gradientUnits="userSpaceOnUse">
<stop stop-color="#A3A9D0"/>
<stop offset="1" stop-color="white" stop-opacity="0.22"/>
</linearGradient>
<linearGradient id="paint1_linear" x1="-0.0187579" y1="44.7282" x2="61.4973" y2="44.7282" gradientUnits="userSpaceOnUse">
<stop offset="0.396" stop-color="#CED3F8"/>
<stop offset="0.5516" stop-color="#BEC3E9"/>
<stop offset="0.5736" stop-color="#BBC0E6"/>
</linearGradient>
</defs>
</svg>
