<svg width="350" height="174" viewBox="0 0 350 174" fill="none" xmlns="http://www.w3.org/2000/svg">
<path fill-rule="evenodd" clip-rule="evenodd" d="M47.5 115.834C82.2939 115.834 110.5 87.7894 110.5 53.1943C110.5 43.3108 108.198 33.9619 104.098 25.6488C99.6448 16.621 105.83 3.01867e-06 115.896 2.87679e-06L320 0C336.569 0 350 13.4315 350 30V144C350 160.569 336.569 174 320 174L30 174C13.4315 174 0 160.569 0 144L0 120.912C0 111.684 12.7567 106.26 21.1448 110.106C29.163 113.783 38.0906 115.834 47.5 115.834Z" fill="#FFD5E8"/>
<path fill-rule="evenodd" clip-rule="evenodd" d="M47.5 115.834C82.2939 115.834 110.5 87.7894 110.5 53.1943C110.5 43.3108 108.198 33.9619 104.098 25.6488C99.6448 16.621 105.83 3.01867e-06 115.896 2.87679e-06L320 0C336.569 0 350 13.4315 350 30V144C350 160.569 336.569 174 320 174L30 174C13.4315 174 0 160.569 0 144L0 120.912C0 111.684 12.7567 106.26 21.1448 110.106C29.163 113.783 38.0906 115.834 47.5 115.834Z" fill="url(#paint0_linear)" fill-opacity="0.3"/>
<defs>
<linearGradient id="paint0_linear" x1="2.95891" y1="116.23" x2="151.091" y2="247.287" gradientUnits="userSpaceOnUse">
<stop stop-color="white"/>
<stop offset="1" stop-color="white" stop-opacity="0"/>
</linearGradient>
</defs>
</svg>
