<svg width="18" height="18" viewBox="0 0 18 18" fill="none" xmlns="http://www.w3.org/2000/svg">
<path d="M8.99961 0.950134C4.35861 0.950134 0.599609 4.64613 0.599609 9.20453C0.599609 12.8522 3.00621 15.9455 6.34311 17.0361C6.76311 17.1138 6.91711 16.8583 6.91711 16.6392C6.91711 16.4432 6.91011 15.9238 6.90661 15.2357C4.57001 15.7334 4.07721 14.1283 4.07721 14.1283C3.69501 13.1756 3.14271 12.9208 3.14271 12.9208C2.38181 12.4091 3.20151 12.4196 3.20151 12.4196C4.04501 12.477 4.48811 13.2701 4.48811 13.2701C5.23711 14.5322 6.45441 14.1675 6.93461 13.9568C7.01021 13.4227 7.22651 13.0594 7.46661 12.8529C5.60111 12.6464 3.64041 11.9366 3.64041 8.77403C3.64041 7.87313 3.96591 7.13673 4.50491 6.55923C4.41041 6.35063 4.12691 5.51133 4.57841 4.37453C4.57841 4.37453 5.28191 4.15333 6.88841 5.22083C7.56041 5.03743 8.27441 4.94643 8.98841 4.94223C9.70241 4.94643 10.4164 5.03743 11.0884 5.22083C12.6844 4.15333 13.3879 4.37453 13.3879 4.37453C13.8394 5.51133 13.5559 6.35063 13.4719 6.55923C14.0074 7.13673 14.3329 7.87313 14.3329 8.77403C14.3329 11.945 12.3694 12.6429 10.5004 12.8459C10.7944 13.0937 11.0674 13.5998 11.0674 14.3733C11.0674 15.4779 11.0569 16.3655 11.0569 16.6336C11.0569 16.8499 11.2039 17.1082 11.6344 17.0256C14.9951 15.942 17.3996 12.8466 17.3996 9.20453C17.3996 4.64613 13.6385 0.950134 8.99961 0.950134Z" fill="#6599C2"/>
</svg>
