<svg width="47" height="52" viewBox="0 0 47 52" fill="none" xmlns="http://www.w3.org/2000/svg">
<circle opacity="0.4" cx="21" cy="21" r="21" fill="#F7D881"/>
<g clip-path="url(#clip0)">
<path d="M29.5763 44.7774C31.0896 44.7774 32.3163 43.5507 32.3163 42.0374C32.3163 40.5241 31.0896 39.2974 29.5763 39.2974V44.7774Z" fill="#FF5D5D"/>
<path d="M15.9746 45.7459H11.4872C9.44051 45.7459 7.78137 44.0866 7.78137 42.04C7.78137 39.9934 9.44051 38.3342 11.4872 38.3342H15.9746V45.7459Z" fill="#FF5D5D"/>
<path d="M15.9742 45.7477V51.2187H12.7848V45.7459L15.9742 45.7477Z" fill="#6A80FF"/>
<path d="M15.974 45.7477L15.9744 38.3342L29.5766 32.856V51.2187L15.974 45.7477Z" fill="#ADE5FF"/>
<path d="M26.0863 49.8147L29.5771 51.2187V32.856L26.0863 34.2619V49.8147Z" fill="white"/>
<path d="M27.0001 16.2187H13.0939C12.4898 16.2187 12.0001 16.7084 12.0001 17.3125V29.6562C12.0001 30.2603 12.4898 30.75 13.0939 30.75H14.6824V33.9271L17.8595 30.75H33.7016C34.3057 30.75 34.7954 30.2603 34.7954 29.6562V26.7656" fill="#A0E557"/>
<path d="M43.8751 12.7812H29.3439C28.0494 12.7812 27.0001 13.8305 27.0001 15.125V24.1875C27.0001 25.4819 28.0494 26.5312 29.3439 26.5312H43.8751C45.1695 26.5312 46.2188 25.4819 46.2188 24.1875V15.125C46.2188 13.8305 45.1695 12.7812 43.8751 12.7812Z" fill="#ADE5FF"/>
<path d="M34.0104 16.5693L39.3572 19.6563L34.0104 22.7433V16.5693Z" fill="#FF5D5D"/>
<path d="M26.0863 45.5827C25.8808 45.5827 25.6793 45.6663 25.534 45.8117C25.3886 45.9569 25.3051 46.1585 25.3051 46.3639C25.3051 46.5703 25.3886 46.771 25.534 46.9163C25.6793 47.0624 25.8808 47.1452 26.0863 47.1452C26.2918 47.1452 26.4933 47.0624 26.6386 46.9163C26.784 46.771 26.8675 46.5695 26.8675 46.3639C26.8675 46.1585 26.784 45.9569 26.6386 45.8117C26.4933 45.6663 26.2918 45.5827 26.0863 45.5827Z" fill="black"/>
<path d="M30.358 38.6046V32.856C30.358 32.5965 30.2291 32.3538 30.0141 32.2086C29.799 32.0634 29.5258 32.0345 29.2849 32.1313L15.823 37.553H11.4871C9.01301 37.553 7.00012 39.5659 7.00012 42.0401C7.00012 44.5143 9.01301 46.5272 11.4872 46.5272H12.0035V51.2187C12.0035 51.6501 12.3533 52 12.7848 52H15.9742C16.4057 52 16.7554 51.6501 16.7554 51.2187V46.9041L29.2853 51.9436C29.3793 51.9814 29.4783 52.0001 29.5767 52.0001C29.7305 52.0001 29.8831 51.9547 30.0142 51.8662C30.2292 51.7209 30.358 51.4783 30.358 51.2188V45.4703C31.9248 45.1138 33.098 43.7105 33.098 42.0375C33.098 40.3645 31.9248 38.9611 30.358 38.6046ZM8.56262 42.0401C8.56262 40.4274 9.87457 39.1155 11.4872 39.1155H15.1933L15.193 44.9646H11.4872C9.87457 44.9646 8.56262 43.6527 8.56262 42.0401ZM13.566 50.4375V46.5271H15.1929V50.4375H13.566ZM28.7955 50.0624L16.7558 45.22V38.8617L25.3048 35.4188V43.1719C25.3048 43.6033 25.6545 43.9531 26.086 43.9531C26.5175 43.9531 26.8673 43.6033 26.8673 43.1719V34.7895L28.7956 34.0128V50.0624H28.7955ZM30.358 43.8331V40.2417C31.0503 40.5441 31.5355 41.235 31.5355 42.0374C31.5355 42.8398 31.0504 43.5308 30.358 43.8331Z" fill="black"/>
<path d="M40.5511 41.2792H36.1278C35.6963 41.2792 35.3466 41.6291 35.3466 42.0605C35.3466 42.4919 35.6963 42.8417 36.1278 42.8417H40.5511C40.9826 42.8417 41.3323 42.4919 41.3323 42.0605C41.3323 41.6291 40.9826 41.2792 40.5511 41.2792Z" fill="black"/>
<path d="M34.8455 38.414C35.0454 38.414 35.2454 38.3377 35.3979 38.1852L36.9237 36.6594C37.2288 36.3544 37.2288 35.8597 36.9237 35.5545C36.6186 35.2495 36.124 35.2495 35.8188 35.5545L34.293 37.0803C33.9879 37.3854 33.9879 37.8801 34.293 38.1852C34.4457 38.3377 34.6456 38.414 34.8455 38.414Z" fill="black"/>
<path d="M35.4042 45.8118C35.0991 45.5068 34.6044 45.5068 34.2992 45.8118C33.9942 46.1169 33.9942 46.6115 34.2992 46.9167L35.8761 48.4936C36.0287 48.6461 36.2286 48.7224 36.4285 48.7224C36.6285 48.7224 36.8285 48.6461 36.981 48.4936C37.286 48.1885 37.286 47.6938 36.981 47.3887L35.4042 45.8118Z" fill="black"/>
<path d="M43.8751 12H29.3438C27.6207 12 26.2189 13.4019 26.2189 15.125V15.4375H13.0939C12.06 15.4375 11.2189 16.2787 11.2189 17.3125V29.6562C11.2189 30.69 12.06 31.5312 13.0939 31.5312H13.9011V33.9271C13.9011 34.2431 14.0915 34.5279 14.3834 34.6489C14.48 34.6889 14.5815 34.7083 14.6822 34.7083C14.8855 34.7083 15.0854 34.6289 15.2348 34.4795L18.1831 31.5312H33.7017C34.7356 31.5312 35.5767 30.69 35.5767 29.6562V27.3125H43.8751C45.5982 27.3125 47.0001 25.9106 47.0001 24.1875V15.125C47 13.4019 45.5982 12 43.8751 12ZM34.0142 29.6562C34.0142 29.8286 33.874 29.9687 33.7017 29.9687H17.8595C17.6523 29.9687 17.4536 30.0511 17.3071 30.1975L15.4637 32.041V30.75C15.4637 30.3186 15.1139 29.9687 14.6825 29.9687H13.0939C12.9215 29.9687 12.7814 29.8286 12.7814 29.6562V17.3125C12.7814 17.1401 12.9215 17 13.0939 17H26.2189V24.1875C26.2189 25.9106 27.6207 27.3125 29.3438 27.3125H34.0142V29.6562V29.6562ZM45.4376 24.1875C45.4376 25.049 44.7366 25.75 43.8751 25.75H29.3438C28.4823 25.75 27.7814 25.049 27.7814 24.1875V15.125C27.7814 14.2634 28.4823 13.5625 29.3438 13.5625H43.8751C44.7366 13.5625 45.4376 14.2634 45.4376 15.125V24.1875Z" fill="black"/>
<path d="M39.7479 18.9797L34.401 15.8927C34.1593 15.7531 33.8615 15.7531 33.6198 15.8927C33.378 16.0322 33.2291 16.2902 33.2291 16.5692V22.7432C33.2291 23.0223 33.378 23.2802 33.6198 23.4198C33.7406 23.4896 33.8755 23.5244 34.0104 23.5244C34.1453 23.5244 34.2801 23.4896 34.401 23.4198L39.7479 20.3327C39.9896 20.1932 40.1385 19.9352 40.1385 19.6562C40.1385 19.3771 39.9897 19.1192 39.7479 18.9797ZM34.7916 21.3901V17.9224L37.7947 19.6563L34.7916 21.3901Z" fill="black"/>
<path d="M23.759 20.2031H15.9465C15.515 20.2031 15.1653 20.553 15.1653 20.9844C15.1653 21.4158 15.515 21.7656 15.9465 21.7656H23.759C24.1905 21.7656 24.5403 21.4158 24.5403 20.9844C24.5403 20.553 24.1905 20.2031 23.759 20.2031Z" fill="black"/>
<path d="M23.7589 24.5781C23.5534 24.5781 23.3519 24.6616 23.2066 24.807C23.0613 24.9523 22.9777 25.1539 22.9777 25.3593C22.9777 25.5648 23.0613 25.7664 23.2066 25.9116C23.3519 26.0569 23.5534 26.1406 23.7589 26.1406C23.9652 26.1406 24.1659 26.057 24.3113 25.9116C24.4566 25.7664 24.5402 25.5648 24.5402 25.3593C24.5402 25.1539 24.4566 24.9523 24.3113 24.807C24.1659 24.6616 23.9644 24.5781 23.7589 24.5781Z" fill="black"/>
<path d="M20.8285 24.5781H15.9465C15.515 24.5781 15.1653 24.9279 15.1653 25.3593C15.1653 25.7908 15.515 26.1406 15.9465 26.1406H20.8285C21.26 26.1406 21.6097 25.7908 21.6097 25.3593C21.6097 24.9279 21.26 24.5781 20.8285 24.5781Z" fill="black"/>
</g>
<defs>
<clipPath id="clip0">
<rect width="40" height="40" fill="white" transform="translate(7 12)"/>
</clipPath>
</defs>
</svg>
