<svg width="64" height="64" viewBox="0 0 64 64" fill="none" xmlns="http://www.w3.org/2000/svg">
<g clip-path="url(#clip0)">
<path d="M10.8857 11.8311H29.9837V16.0224H10.8857V11.8311Z" fill="#E49542"/>
<path d="M10.8857 26.7085H29.9837V30.8999H10.8857V26.7085Z" fill="#E49542"/>
<path d="M25.172 11.8311V12.2143C25.172 13.3533 24.2487 14.2766 23.1097 14.2766H10.8857V16.0224H29.9837V11.8311H25.172Z" fill="#DF751C"/>
<path d="M25.172 26.7085V27.0917C25.172 28.2307 24.2487 29.154 23.1097 29.154H10.8857V30.8999H29.9837V26.7085H25.172Z" fill="#DF751C"/>
<path d="M14.0267 53.6966H9.89453C9.34228 53.6966 8.89453 53.2489 8.89453 52.6966V7.93738C8.89453 7.38513 9.34228 6.93738 9.89453 6.93738H14.0265C14.5788 6.93738 15.0265 7.38513 15.0265 7.93738V52.6968C15.0267 53.249 14.5789 53.6966 14.0267 53.6966Z" fill="#E49542"/>
<path d="M14.033 6.93738H12.8547V50.5312C12.8547 51.08 12.4099 51.5247 11.8612 51.5247H8.89453V52.7031C8.89453 53.2519 9.33928 53.6966 9.88803 53.6966H14.033C14.5818 53.6966 15.0265 53.2519 15.0265 52.7031V7.93088C15.0267 7.38213 14.5818 6.93738 14.033 6.93738Z" fill="#DF751C"/>
<path d="M62.0689 42.9833H1.93164C1.37939 42.9833 0.931641 42.5355 0.931641 41.9833V38.6393C0.931641 38.087 1.37939 37.6393 1.93164 37.6393H62.0688C62.621 37.6393 63.0688 38.087 63.0688 38.6393V41.9833C63.0689 42.5355 62.6211 42.9833 62.0689 42.9833Z" fill="#E49542"/>
<path d="M62.0754 37.6393H60.7581V39.679C60.7581 40.2278 60.3134 40.6725 59.7646 40.6725H0.931641V41.9898C0.931641 42.5385 1.37639 42.9833 1.92514 42.9833H62.0753C62.624 42.9833 63.0688 42.5384 63.0688 41.9898V38.6328C63.0689 38.084 62.624 37.6393 62.0754 37.6393Z" fill="#DF751C"/>
<path d="M2.17352 57.0627H61.8269C62.5128 57.0627 63.0688 56.5067 63.0688 55.8208V48.8952C63.0688 48.3509 62.7135 47.8724 62.1941 47.7098C61.3644 47.45 60.5931 47.0583 59.905 46.5586C59.4593 46.2348 58.8629 46.2352 58.4171 46.5589C57.1058 47.5113 55.493 48.0735 53.7483 48.0735C52.0035 48.0735 50.3908 47.5113 49.0794 46.5589C48.6335 46.235 48.037 46.235 47.5911 46.5589C46.2798 47.5113 44.667 48.0735 42.9223 48.0735C41.1775 48.0735 39.5648 47.5113 38.2534 46.5589C37.8075 46.235 37.211 46.235 36.7651 46.5589C35.4538 47.5113 33.841 48.0735 32.0963 48.0735C30.3515 48.0735 28.7388 47.5113 27.4274 46.5589C26.9815 46.235 26.385 46.235 25.9391 46.5589C24.6278 47.5113 23.015 48.0735 21.2703 48.0735C19.5255 48.0735 17.9128 47.5113 16.6014 46.5589C16.1555 46.235 15.559 46.235 15.1131 46.5589C13.8018 47.5113 12.189 48.0735 10.4443 48.0735C8.69951 48.0735 7.08677 47.5113 5.77539 46.5589C5.33114 46.2363 4.73564 46.2327 4.29164 46.5557C3.55602 47.0907 2.72527 47.5026 1.82952 47.7614C1.29802 47.9149 0.931641 48.4004 0.931641 48.9535V55.8209C0.931641 56.5065 1.48764 57.0627 2.17352 57.0627Z" fill="#90D8F9"/>
<path d="M62.1941 47.7098C61.6438 47.5375 61.1199 47.306 60.6283 47.0247V53.3803C60.6283 54.0662 60.0723 54.6222 59.3864 54.6222H0.931641V55.8208C0.931641 56.5067 1.48764 57.0627 2.17352 57.0627H61.8269C62.5128 57.0627 63.0688 56.5067 63.0688 55.8208V48.8952C63.0689 48.3508 62.7136 47.8724 62.1941 47.7098Z" fill="#75CEF9"/>
<path d="M29.9771 50.8213C30.9775 50.8213 31.9343 50.6364 32.816 50.2991C32.9582 50.2448 33.05 50.1055 33.05 49.9533V7.93088C33.05 7.38213 32.6052 6.93738 32.0565 6.93738H27.9115C27.3627 6.93738 26.918 7.38213 26.918 7.93088V49.9583C26.918 50.1108 27.0101 50.2501 27.1526 50.3044C28.0302 50.6381 28.9821 50.8213 29.9771 50.8213Z" fill="#E49542"/>
<path d="M30.9426 7.93088V50.7631C31.5912 50.6846 32.2157 50.528 32.8066 50.3029C32.9526 50.2473 33.0507 50.1091 33.0507 49.9529V7.93088C33.0507 7.38213 32.606 6.93738 32.0572 6.93738H29.9492C30.4977 6.93738 30.9426 7.38213 30.9426 7.93088Z" fill="#DF751C"/>
<path d="M62.0751 43.9145C63.1365 43.9145 64 43.051 64 41.9896V38.6326C64 37.5712 63.1365 36.7077 62.0751 36.7077H60.2279V24.1516C60.2279 23.6371 59.8109 23.2202 59.2965 23.2202C58.7821 23.2202 58.3651 23.6372 58.3651 24.1516V25.2545L58.1655 25.5035H53.7313V24.1516C53.7313 23.6371 53.3142 23.2202 52.7999 23.2202C52.2855 23.2202 51.8685 23.6372 51.8685 24.1516V26.2669L49.0764 28.5424C47.3406 29.9569 45.3775 31.0524 43.2884 31.793C40.528 30.6642 38.2874 28.4081 37.2381 25.4959L33.9815 16.4554V7.93073C33.9815 6.86936 33.118 6.00586 32.0566 6.00586H27.9116C26.8503 6.00586 25.9867 6.86936 25.9867 7.93073V10.8996H15.9587V7.93073C15.9587 6.86936 15.0953 6.00586 14.0339 6.00586H9.88888C8.8275 6.00586 7.964 6.86936 7.964 7.93073V19.0714C6.22413 20.8531 4.17088 22.2287 1.8595 23.1591C1.25338 23.3071 0.743125 23.8611 1.01075 24.5045C1.15688 24.8679 1.50613 25.0886 1.87513 25.0886C2.08288 25.1015 2.36225 24.9617 2.55487 24.8874C4.54012 24.0882 6.35225 22.9911 7.964 21.6179V36.7077H1.92525C0.8635 36.7077 0 37.5712 0 38.6326V41.9896C0 43.051 0.8635 43.9145 1.92488 43.9145H7.96362V46.6912C7.38475 46.4724 6.8335 46.1764 6.32237 45.8052C5.54937 45.2437 4.513 45.2427 3.74362 45.8024C3.08275 46.2829 2.35175 46.6409 1.57062 46.8665C0.645875 47.1336 0 47.9919 0 48.9534V55.8207C0 57.0191 0.975 57.994 2.17325 57.994H6.06575C6.58012 57.994 6.99713 57.577 6.99713 57.0626C6.99713 56.5481 6.58012 56.1312 6.06575 56.1312H2.17325C2.00213 56.1312 1.86275 55.992 1.86275 55.8207V48.9534C1.86275 48.8166 1.95525 48.6944 2.08763 48.656C3.077 48.3702 4.00275 47.917 4.83925 47.3089C4.95563 47.2242 5.10813 47.2257 5.22788 47.3125C6.7525 48.4197 8.55625 49.005 10.444 49.005C12.3317 49.005 14.1355 48.4199 15.6602 47.3125C15.7799 47.2256 15.9344 47.2256 16.0539 47.3125C17.5785 48.4197 19.3822 49.005 21.27 49.005C22.9556 49.005 24.5736 48.5371 25.9865 47.649V49.9582C25.9865 50.4961 26.3221 50.9851 26.8215 51.1749C27.8296 51.5582 28.8912 51.7526 29.977 51.7526C31.0689 51.7526 32.136 51.5562 33.149 51.1689C33.6469 50.9782 33.9814 50.4896 33.9814 49.953V48.8025C35.1775 48.5425 36.3179 48.0344 37.3121 47.3124C37.4318 47.2255 37.5863 47.2255 37.7057 47.3124C39.2304 48.4196 41.0341 49.0049 42.9219 49.0049C44.8096 49.0049 46.6134 48.4197 48.138 47.3124C48.2576 47.2255 48.4121 47.2255 48.5316 47.3124C50.0562 48.4196 51.86 49.0049 53.7477 49.0049C55.3937 49.0049 56.9756 48.5597 58.3646 47.7117V49.27C58.3646 49.7845 58.7816 50.2014 59.296 50.2014C59.8104 50.2014 60.2274 49.7844 60.2274 49.27V47.869C60.7625 48.1696 61.327 48.4142 61.9152 48.5985C62.0477 48.64 62.1369 48.7592 62.1369 48.895V55.8206C62.1369 55.9919 61.9976 56.1311 61.8264 56.1311H10.6686C10.1543 56.1311 9.73725 56.5481 9.73725 57.0625C9.73725 57.577 10.1543 57.9939 10.6686 57.9939H61.8268C63.0251 57.9939 64 57.0189 64 55.8206V48.895C64 47.9404 63.386 47.1069 62.4723 46.8207C61.7478 46.5939 61.0681 46.2521 60.4521 45.8046C60.3797 45.752 60.3044 45.7061 60.2279 45.6634V43.9142H62.0751V43.9145ZM62.0751 38.5705C62.1094 38.5705 62.1372 38.5984 62.1372 38.6326V41.9896C62.1372 42.0239 62.1094 42.0517 62.0751 42.0517H60.2279V38.5706H62.0751V38.5705ZM33.9815 42.0517V38.5706H58.365V42.0517H33.9815ZM58.3649 28.2325V32.4446H54.1634C55.2849 31.7192 56.2979 30.8104 57.159 29.7365L58.3649 28.2325ZM51.8683 36.7077H33.9815V34.5911C34.9114 34.7144 35.8528 34.7775 36.7901 34.7775C38.9948 34.7775 41.1769 34.4306 43.2564 33.7677C44.547 34.2119 45.921 34.4524 47.3338 34.4524C48.9104 34.4524 50.4429 34.1622 51.8684 33.6136V36.7077H51.8683ZM53.7311 36.7077V34.3075H58.3649V36.7077H53.7311ZM55.7056 28.5712C55.1229 29.2981 54.4585 29.9364 53.7311 30.4781V27.3664H56.6717L55.7056 28.5712ZM50.253 29.9864L51.8683 28.67V31.5894C50.4694 32.2411 48.928 32.5895 47.3335 32.5895C46.9836 32.5895 46.637 32.5704 46.2936 32.5367C47.697 31.8385 49.027 30.9855 50.253 29.9864ZM35.4855 26.1274C36.461 28.8349 38.3149 31.0575 40.6534 32.5236C39.3874 32.7812 38.093 32.9145 36.79 32.9145C35.8519 32.9145 34.9095 32.8455 33.9814 32.7104V21.9529L35.4855 26.1274ZM25.9865 12.7625V15.091H15.9585V12.7625H25.9865ZM15.9585 36.7077V31.8312H25.9865V36.7077H15.9585ZM25.9865 29.9684H15.9585V27.6399H25.9865V29.9684ZM15.9585 25.777V19.8224L18.1278 23.7565C18.5116 24.4527 18.9366 25.1275 19.3961 25.777H15.9585ZM9.8265 7.93073C9.8265 7.89648 9.85437 7.86861 9.88863 7.86861H14.0336C14.0679 7.86861 14.0957 7.89648 14.0957 7.93073V36.7076H9.8265V7.93073ZM9.8265 47.1145V43.9145H14.0957V46.1186C12.9976 46.7897 11.7463 47.1421 10.444 47.1421C10.2366 47.1421 10.0308 47.1322 9.8265 47.1145ZM25.3916 45.8052C24.1873 46.6797 22.762 47.1421 21.27 47.1421C19.7781 47.1421 18.3529 46.6799 17.1485 45.8052C16.7911 45.5457 16.377 45.4079 15.9585 45.3884V43.9145H25.9865V45.4984C25.776 45.5691 25.5758 45.6716 25.3916 45.8052ZM32.1186 49.5571C31.4291 49.7781 30.7105 49.8897 29.9771 49.8897C29.2489 49.8897 28.535 49.7794 27.8494 49.5614V42.3182C27.8494 41.8037 27.4324 41.3869 26.918 41.3869C26.4963 41.3869 26.1405 41.6672 26.0257 42.0517H1.92488C1.89062 42.0517 1.86275 42.0239 1.86275 41.9896V38.6326C1.86275 38.5984 1.89062 38.5705 1.92488 38.5705H26.205C26.3759 38.7736 26.6316 38.903 26.9179 38.903C27.4323 38.903 27.8493 38.486 27.8493 37.9716V22.5217C27.8493 22.0072 27.4323 21.5904 26.9179 21.5904C26.4035 21.5904 25.9865 22.0074 25.9865 22.5217V25.777H21.7348C20.9914 24.8675 20.3271 23.8872 19.759 22.8571L16.504 16.9539H25.9865V17.8996C25.9865 18.4141 26.4035 18.831 26.9179 18.831C27.4323 18.831 27.8493 18.414 27.8493 17.8996V7.93073C27.8493 7.89648 27.8771 7.86861 27.9114 7.86861H32.0564C32.0906 7.86861 32.1185 7.89648 32.1185 7.93073V49.5571H32.1186ZM47.0436 45.8052C45.8392 46.6797 44.414 47.1421 42.922 47.1421C41.43 47.1421 40.0048 46.6799 38.8004 45.8052C38.028 45.2444 36.99 45.2441 36.2175 45.8052C35.5422 46.2956 34.7814 46.6597 33.9814 46.8832V43.9145H51.8683V46.8879C51.0685 46.6664 50.3116 46.3027 49.6265 45.8052C48.8541 45.2444 47.8161 45.2441 47.0436 45.8052ZM58.3649 45.5356C58.192 45.6031 58.0252 45.6922 57.8696 45.8054C56.6652 46.6799 55.24 47.1422 53.748 47.1422C53.7424 47.1422 53.7368 47.142 53.7311 47.1419V43.9146H58.3649V45.5356Z" fill="black"/>
</g>
<defs>
<clipPath id="clip0">
<rect width="64" height="64" fill="white"/>
</clipPath>
</defs>
</svg>
