<svg width="54" height="55" viewBox="0 0 54 55" fill="none" xmlns="http://www.w3.org/2000/svg">
<circle opacity="0.4" cx="21" cy="21" r="21" fill="#5454D4"/>
<g clip-path="url(#clip0)">
<path d="M33.2952 30.5346C38.8689 30.5346 43.3873 26.0162 43.3873 20.4425C43.3873 14.8688 38.8689 10.3504 33.2952 10.3504C27.7215 10.3504 23.2031 14.8688 23.2031 20.4425C23.2031 26.0162 27.7215 30.5346 33.2952 30.5346Z" fill="#F6E266"/>
<path d="M33.2953 27.2572C37.0589 27.2572 40.11 24.2062 40.11 20.4425C40.11 16.6789 37.0589 13.6278 33.2953 13.6278C29.5316 13.6278 26.4806 16.6789 26.4806 20.4425C26.4806 24.2062 29.5316 27.2572 33.2953 27.2572Z" fill="#EAB14D"/>
<path d="M28.5269 38.3499L39.9026 31.7519C41.2343 30.9443 42.9594 31.258 43.9216 32.4826C44.8481 33.6618 44.7907 35.3368 43.7858 36.4498L31.1433 41.8764L28.5269 38.3499Z" fill="#EAAC9D"/>
<path d="M33.2394 38.6291L44.6151 32.0312C45.9469 31.2236 47.6719 31.5373 48.6341 32.7619C49.5606 33.941 49.5032 35.6161 48.4983 36.729L35.8558 42.1555L33.2394 38.6291Z" fill="#FFCBBE"/>
<path d="M52.6696 35.8644C52.6696 36.6051 52.4036 37.3439 51.876 37.928L49.7731 40.2568L45.4576 45.0365C44.7393 45.8319 43.7609 46.3433 42.6987 46.4784L23.2136 48.9603L18.2354 40.3055C18.1978 40.2431 18.1618 40.1797 18.126 40.1156C18.12 40.1054 18.1148 40.0951 18.1089 40.0857L17.8592 39.6504C17.855 39.6436 17.8506 39.6367 17.8473 39.6308L14.9575 34.6064L19.5397 31.0872C21.6761 29.4469 24.0843 28.2094 26.6465 27.4278C26.7552 27.3944 26.8637 27.3619 26.9724 27.3312C27.7498 27.1071 28.5417 26.9241 29.343 26.7847L30.1366 26.6461C31.7769 26.3614 33.347 27.432 33.6797 29.063C33.7216 29.2682 33.7422 29.4743 33.7422 29.6787C33.7422 30.6588 33.2726 31.5952 32.4568 32.1802L27.3998 35.8029L40.9558 37.497L47.9925 33.2304C49.3241 32.423 51.049 32.7369 52.0111 33.9616C52.4515 34.5218 52.6696 35.194 52.6696 35.8644Z" fill="#FFDDCE"/>
<path d="M49.7729 40.2567L45.4574 45.0365C44.7391 45.8318 43.7607 46.3433 42.6985 46.4784L23.2134 48.9602L18.2352 40.3054C24.1242 50.2679 47.4134 42.8703 49.7729 40.2567V40.2567Z" fill="#FFCBBE"/>
<path d="M17.8591 39.6505C17.943 39.7924 18.0259 39.937 18.1088 40.0857L17.8591 39.6505Z" fill="#FFCBBE"/>
<path d="M23.2134 48.9601L16.9207 52.9825L12.9939 46.1569L8.66418 38.629L14.9568 34.6066L19.6841 42.8241L23.2134 48.9601Z" fill="#90D8F9"/>
<path d="M23.214 48.96L16.9213 52.9825L12.9945 46.1568C17.4986 46.5101 19.6847 42.8241 19.6847 42.8241L23.214 48.96Z" fill="#6BBEF6"/>
<path d="M18.3021 49.4495C19.0501 49.4495 19.6565 48.8431 19.6565 48.0951C19.6565 47.3471 19.0501 46.7407 18.3021 46.7407C17.554 46.7407 16.9476 47.3471 16.9476 48.0951C16.9476 48.8431 17.554 49.4495 18.3021 49.4495Z" fill="white"/>
<path d="M19.8922 20.3596V20.5253C19.8922 21.1096 19.4397 21.5942 18.8567 21.6343L17.0633 21.7572C16.421 21.8013 15.8757 21.2921 15.8757 20.6483V20.2365C15.8757 19.5927 16.4211 19.0835 17.0633 19.1275L18.8567 19.2505C19.4397 19.2906 19.8922 19.7752 19.8922 20.3596Z" fill="#F6E781"/>
<path d="M21.2763 25.6899L21.3591 25.8335C21.6513 26.3396 21.5018 26.9855 21.0168 27.3116L19.5253 28.3148C18.991 28.6741 18.2642 28.5057 17.9422 27.9482L17.7364 27.5916C17.4144 27.0341 17.6321 26.3205 18.2104 26.0375L19.825 25.2473C20.3498 24.9905 20.9841 25.1838 21.2763 25.6899V25.6899Z" fill="#F6E781"/>
<path d="M21.3589 15.0516L21.276 15.1951C20.9838 15.7012 20.3497 15.8946 19.8247 15.6377L18.2102 14.8476C17.6318 14.5646 17.4142 13.8509 17.7361 13.2934L17.942 12.9368C18.2639 12.3793 18.9908 12.211 19.525 12.5703L21.0166 13.5734C21.5015 13.8995 21.6511 14.5455 21.3589 15.0516V15.0516Z" fill="#F6E781"/>
<path d="M46.6991 20.3596V20.5253C46.6991 21.1096 47.1516 21.5942 47.7346 21.6343L49.5279 21.7572C50.1703 21.8013 50.7155 21.2921 50.7155 20.6483V20.2365C50.7155 19.5927 50.1702 19.0835 49.5279 19.1275L47.7346 19.2505C47.1516 19.2906 46.6991 19.7752 46.6991 20.3596Z" fill="#F6E781"/>
<path d="M45.3152 25.6899L45.2323 25.8335C44.9401 26.3396 45.0897 26.9855 45.5746 27.3116L47.0662 28.3148C47.6004 28.6741 48.3273 28.5057 48.6492 27.9482L48.8551 27.5916C49.177 27.0341 48.9594 26.3205 48.381 26.0375L46.7665 25.2473C46.2415 24.9905 45.6074 25.1838 45.3152 25.6899V25.6899Z" fill="#F6E781"/>
<path d="M45.2325 15.0516L45.3154 15.1951C45.6076 15.7012 46.2417 15.8946 46.7667 15.6377L48.3812 14.8476C48.9596 14.5646 49.1772 13.8509 48.8553 13.2934L48.6494 12.9368C48.3275 12.3793 47.6007 12.211 47.0664 12.5703L45.5748 13.5734C45.09 13.8995 44.9403 14.5455 45.2325 15.0516V15.0516Z" fill="#F6E781"/>
<path d="M30.5936 24.1185C31.3682 24.5359 31.9019 24.6666 32.5756 24.7026V25.1123C32.5756 25.479 32.8729 25.7763 33.2397 25.7763C33.6064 25.7763 33.9037 25.479 33.9037 25.1123V24.6551C35.3201 24.4006 36.1827 23.3695 36.3248 22.3529C36.4903 21.1693 35.7323 20.1528 34.3936 19.7631C33.5479 19.5169 32.6102 19.218 32.0686 18.8681C31.8163 18.7051 31.8182 18.4435 31.8418 18.3019C31.8913 18.0048 32.1354 17.6397 32.6721 17.5065C33.8516 17.2138 34.6113 17.7411 34.6538 17.7714C34.9456 17.9886 35.3585 17.9306 35.5789 17.6403C35.8008 17.3483 35.7439 16.9317 35.4518 16.7098C35.4171 16.6834 34.8417 16.2569 33.9036 16.1278V15.7728C33.9036 15.4061 33.6063 15.1087 33.2396 15.1087C32.8728 15.1087 32.5755 15.4061 32.5755 15.7728V16.1688C32.502 16.183 32.4278 16.1986 32.3522 16.2174C31.3956 16.4547 30.6811 17.1872 30.5317 18.0834C30.4043 18.8479 30.717 19.576 31.348 19.9836C31.9004 20.3404 32.6752 20.6459 34.0225 21.0381C34.7218 21.2417 35.0815 21.6538 35.0095 22.1688C34.8997 22.954 34.0139 23.3822 33.236 23.3864C32.3381 23.3913 31.9835 23.3585 31.2236 22.9491C30.9008 22.7751 30.498 22.8959 30.324 23.2187C30.15 23.5418 30.2708 23.9446 30.5936 24.1185V24.1185Z" fill="black"/>
<path d="M52.5335 33.5511C51.6727 32.4558 50.3065 31.9609 49.0002 32.1675C47.8094 30.8364 45.8229 30.5252 44.2762 31.4601L44.013 31.6127C42.8086 30.5223 40.9914 30.3191 39.5643 31.1803L31.8003 35.6831L29.1659 35.3538L32.8427 32.72C33.3993 32.3214 33.8278 31.7813 34.0942 31.1681C36.7227 30.9758 39.1654 29.8378 41.0141 27.9336C42.9728 25.9159 44.0515 23.2556 44.0515 20.4429C44.0515 14.5121 39.2264 9.6869 33.2955 9.6869C31.131 9.6869 29.0437 10.3276 27.2592 11.5397C26.9559 11.7458 26.877 12.1588 27.0831 12.4622C27.2893 12.7656 27.702 12.8444 28.0055 12.6384C29.5689 11.5764 31.3981 11.015 33.2954 11.015C38.4939 11.015 42.7233 15.2444 42.7233 20.4429C42.7233 22.9083 41.7779 25.24 40.061 27.0085C38.536 28.5795 36.5498 29.5552 34.401 29.8052C34.4024 29.763 34.4048 29.721 34.4048 29.6786C34.4048 29.429 34.3795 29.1777 34.3294 28.9305C34.2532 28.557 34.1249 28.2081 33.9538 27.8901C37.7704 27.5554 40.7744 24.344 40.7744 20.4425C40.7744 16.3185 37.4193 12.9634 33.2953 12.9634C29.1718 12.9634 25.8171 16.3185 25.8171 20.4425C25.8171 22.717 26.866 24.8488 28.5891 26.2509C27.8352 26.4045 27.0896 26.5962 26.3553 26.8243C24.7482 25.0796 23.8674 22.8291 23.8674 20.4429C23.8674 18.1729 24.6854 15.9797 26.1709 14.2675C26.4112 13.9905 26.3814 13.571 26.1044 13.3307C25.8275 13.0904 25.408 13.1202 25.1676 13.3972C23.4728 15.351 22.5393 17.8532 22.5393 20.4429C22.5393 22.9724 23.4067 25.3683 25.0003 27.2917C22.9006 28.0894 20.9171 29.1909 19.134 30.5607L14.5763 34.0615L8.30646 38.0696C8.00763 38.2605 7.91166 38.6528 8.08856 38.9602L16.3451 53.3135C16.4356 53.4708 16.5865 53.5843 16.7628 53.6274C16.8149 53.6401 16.8679 53.6464 16.9207 53.6464C17.0463 53.6464 17.1706 53.6107 17.2784 53.5419L23.4463 49.5993L42.7827 47.1373C44.0014 46.9819 45.1262 46.3941 45.9497 45.4821L52.368 38.3732C52.9906 37.6838 53.3334 36.7924 53.3334 35.8633C53.3334 35.0281 53.0493 34.2069 52.5335 33.5511V33.5511ZM40.2358 32.3262C40.2395 32.3241 40.2432 32.3219 40.2468 32.3197C41.0385 31.8399 42.0174 31.8688 42.7709 32.3334L36.0741 36.2175L33.9781 35.9555L40.2358 32.3262ZM27.1454 20.4426C27.1454 17.0509 29.9043 14.2916 33.2955 14.2916C36.6872 14.2916 39.4465 17.0509 39.4465 20.4426C39.4465 23.8337 36.6872 26.5927 33.2955 26.5927C33.1175 26.5927 32.9371 26.5848 32.7571 26.5691C32.1189 26.1394 31.3471 25.9081 30.5359 25.9386C28.4711 24.9005 27.1454 22.7616 27.1454 20.4426V20.4426ZM17.1493 52.0481L9.55579 38.8472L14.7281 35.5411L22.3219 48.7417L17.1493 52.0481ZM51.3822 37.4831L44.9639 44.5921C44.353 45.2685 43.5187 45.7046 42.6148 45.8199L23.5683 48.2449L15.8225 34.7793L19.9434 31.614C22.7183 29.4823 26.0078 28.0385 29.456 27.4385L30.2501 27.3004C31.5452 27.0752 32.7655 27.908 33.0281 29.1953C33.0605 29.3549 33.0769 29.5176 33.0769 29.6787C33.0769 30.4553 32.7004 31.1885 32.0694 31.6402L27.0128 35.2624C26.7906 35.4216 26.6886 35.7007 26.7559 35.9657C26.8232 36.2307 27.046 36.4274 27.3172 36.4613L40.8738 38.156C41.0223 38.1744 41.1726 38.1423 41.3005 38.0649L43.9753 36.4428C44.2889 36.2526 44.3889 35.8442 44.1988 35.5306C44.0086 35.2171 43.6003 35.117 43.2866 35.3071L40.8093 36.8094L38.2519 36.4897L44.948 32.6058C44.9518 32.6036 44.9556 32.6013 44.9593 32.5991C45.7962 32.0912 46.8339 32.1498 47.6021 32.6902L45.5558 33.9311C45.2421 34.1213 45.1421 34.5297 45.3323 34.8433C45.5225 35.1569 45.9309 35.257 46.2444 35.0667L48.3367 33.7979C49.3796 33.1655 50.7349 33.4122 51.4892 34.372C51.8266 34.801 52.005 35.3168 52.005 35.8634C52.0052 36.463 51.784 37.0382 51.3822 37.4831V37.4831Z" fill="black"/>
<path d="M18.3021 46.0766C17.1891 46.0766 16.2836 46.9822 16.2836 48.0951C16.2836 49.2081 17.1891 50.1136 18.3021 50.1136C19.415 50.1136 20.3205 49.2081 20.3205 48.0951C20.3205 46.9822 19.415 46.0766 18.3021 46.0766V46.0766ZM18.3021 48.7855C17.9214 48.7855 17.6117 48.4758 17.6117 48.0951C17.6117 47.7145 17.9214 47.4048 18.3021 47.4048C18.6827 47.4048 18.9924 47.7145 18.9924 48.0951C18.9924 48.4758 18.6827 48.7855 18.3021 48.7855Z" fill="black"/>
<path d="M16.9884 22.424C17.0284 22.424 17.0685 22.4226 17.1087 22.4198L18.902 22.2968C19.8296 22.2332 20.5562 21.4551 20.5562 20.5254V20.3597C20.5562 19.43 19.8296 18.6518 18.902 18.5883L17.1087 18.4653C16.6191 18.4318 16.1337 18.6044 15.7754 18.939C15.4171 19.2736 15.2115 19.7466 15.2115 20.2368V20.6485C15.2115 21.1388 15.4171 21.6118 15.7754 21.9464C16.1043 22.2533 16.5408 22.424 16.9884 22.424V22.424ZM16.5398 20.2366C16.5398 20.1113 16.5902 19.9951 16.6819 19.9096C16.7657 19.8312 16.8728 19.7892 16.9862 19.7892C16.9967 19.7892 17.0073 19.7895 17.0178 19.7902L18.8111 19.9132C19.0449 19.9292 19.228 20.1254 19.228 20.3596V20.5253C19.228 20.7596 19.0449 20.9557 18.8111 20.9717L17.0178 21.0947C16.8929 21.1035 16.7734 21.0609 16.6819 20.9754C16.5902 20.8898 16.5398 20.7737 16.5398 20.6483V20.2366Z" fill="black"/>
<path d="M21.8511 25.358C21.3864 24.5528 20.3679 24.2423 19.5328 24.6509L17.9183 25.441C17.478 25.6565 17.1434 26.049 17.0004 26.5179C16.8574 26.9868 16.9159 27.4992 17.161 27.9237L17.3668 28.2802C17.6119 28.7048 18.0264 29.0116 18.504 29.1222C18.6356 29.1527 18.7693 29.1677 18.9026 29.1677C19.2533 29.1677 19.6008 29.064 19.8955 28.8657L21.387 27.8626C22.1584 27.3437 22.3987 26.3065 21.9337 25.5012L21.8511 25.358ZM20.646 26.7606L19.1545 27.7637C19.0505 27.8338 18.926 27.8567 18.8038 27.8284C18.6817 27.8 18.5799 27.7247 18.5172 27.6161L18.3113 27.2597C18.2486 27.1511 18.2343 27.0253 18.2708 26.9053C18.3074 26.7854 18.3896 26.689 18.5022 26.6339L20.1167 25.8438C20.1794 25.8131 20.2462 25.7985 20.3122 25.7985C20.4677 25.7985 20.6187 25.8795 20.701 26.0219V26.022L20.7838 26.1654C20.901 26.3684 20.8404 26.6298 20.646 26.7606V26.7606Z" fill="black"/>
<path d="M17.9182 15.4441L19.5328 16.2342C19.7816 16.356 20.0466 16.4139 20.3086 16.4139C20.9255 16.4139 21.5247 16.0924 21.8509 15.5272L21.9338 15.3837V15.3836C22.3987 14.5785 22.1585 13.5413 21.3871 13.0225L19.8955 12.0192C19.4887 11.7456 18.9815 11.6521 18.5039 11.7628C18.0263 11.8734 17.6118 12.1802 17.3668 12.6048L17.1609 12.9614C16.9158 13.3859 16.8572 13.8983 17.0003 14.3671C17.1433 14.8361 17.4779 15.2286 17.9182 15.4441V15.4441ZM18.3111 13.6254L18.517 13.2689C18.5797 13.1603 18.6814 13.085 18.8036 13.0566C18.8377 13.0488 18.872 13.0449 18.906 13.0449C18.9937 13.0449 19.0793 13.0709 19.1543 13.1213L20.6459 14.1245C20.8403 14.2553 20.9008 14.5167 20.7838 14.7196L20.7009 14.8631C20.5838 15.0661 20.3271 15.1444 20.1166 15.0413L18.502 14.2511C18.3894 14.1961 18.3072 14.0997 18.2707 13.9797C18.2341 13.8598 18.2485 13.734 18.3111 13.6254V13.6254Z" fill="black"/>
<path d="M49.4822 18.4652L47.6889 18.5882C46.7614 18.6517 46.0348 19.4299 46.0348 20.3596V20.5253C46.0348 21.455 46.7614 22.2332 47.6889 22.2967L49.4822 22.4197C49.5224 22.4225 49.5624 22.4239 49.6025 22.4239C50.0502 22.4239 50.4867 22.2532 50.8155 21.9461C51.1738 21.6115 51.3793 21.1385 51.3793 20.6483V20.2366C51.3793 19.7463 51.1738 19.2733 50.8155 18.9387C50.4572 18.6043 49.9707 18.4317 49.4822 18.4652V18.4652ZM50.0512 20.2366V20.6484C50.0512 20.7737 50.0007 20.8899 49.9091 20.9754C49.8176 21.061 49.6978 21.1035 49.5731 21.0948L47.7799 20.9718C47.5461 20.9558 47.363 20.7597 47.363 20.5254V20.3597C47.363 20.1254 47.5461 19.9293 47.7799 19.9133L49.5731 19.7903C49.5837 19.7896 49.5943 19.7892 49.6047 19.7892C49.7181 19.7892 49.8253 19.8314 49.9091 19.9097C50.0007 19.9951 50.0512 20.1113 50.0512 20.2366V20.2366Z" fill="black"/>
<path d="M45.2041 27.8627L46.6956 28.8659C46.9904 29.0641 47.3378 29.1678 47.6885 29.1678C47.8218 29.1678 47.9557 29.1528 48.0872 29.1224C48.5648 29.0118 48.9792 28.7048 49.2243 28.2803L49.4302 27.9238C49.6753 27.4992 49.7339 26.9868 49.5908 26.5179C49.4478 26.049 49.1132 25.6565 48.6729 25.4411L47.0583 24.6509C46.2233 24.2422 45.2049 24.5528 44.74 25.358L44.6572 25.5015C44.1925 26.3067 44.4326 27.3437 45.2041 27.8627V27.8627ZM45.8076 26.1655L45.8904 26.022C46.0076 25.8191 46.2643 25.7408 46.4747 25.8438L48.0893 26.634C48.2018 26.6891 48.284 26.7855 48.3206 26.9054C48.3571 27.0253 48.3428 27.1512 48.2801 27.2597L48.0742 27.6163C48.0115 27.7248 47.9098 27.8002 47.7876 27.8285C47.6656 27.8567 47.541 27.8338 47.4369 27.7639L45.9453 26.7607C45.7509 26.6298 45.6903 26.3685 45.8076 26.1655V26.1655Z" fill="black"/>
<path d="M44.7402 15.5271C45.0666 16.0925 45.6657 16.414 46.2826 16.4139C46.5444 16.4139 46.8096 16.356 47.0584 16.2342L48.673 15.4441C49.1133 15.2286 49.4478 14.8361 49.5909 14.3672C49.734 13.8984 49.6754 13.3859 49.4303 12.9614L49.2244 12.6048C48.9793 12.1803 48.5649 11.8734 48.0873 11.7628C47.6099 11.6522 47.1025 11.7456 46.6958 12.0192L45.2042 13.0224C44.4327 13.5412 44.1926 14.5783 44.6574 15.3835L44.7402 15.5271ZM45.9454 14.1245L47.4369 13.1213C47.5119 13.0708 47.5976 13.0449 47.6853 13.0449C47.7193 13.0449 47.7536 13.0488 47.7877 13.0567C47.9098 13.0849 48.0116 13.1603 48.0743 13.2689L48.2801 13.6254C48.3428 13.734 48.3572 13.8598 48.3206 13.9797C48.284 14.0996 48.2018 14.196 48.0892 14.2511L46.4747 15.0412C46.2641 15.1442 46.0076 15.0659 45.8905 14.8631L45.8076 14.7196V14.7195C45.6904 14.5166 45.7509 14.2552 45.9454 14.1245Z" fill="black"/>
</g>
<defs>
<clipPath id="clip0">
<rect width="45.3333" height="45.3333" fill="white" transform="translate(8 9)"/>
</clipPath>
</defs>
</svg>
