<svg width="53" height="52" viewBox="0 0 53 52" fill="none" xmlns="http://www.w3.org/2000/svg">
<circle opacity="0.4" cx="21" cy="21" r="21" fill="#B0B0FF"/>
<g clip-path="url(#clip0)">
<path d="M25.3252 51.0592H39.5333V49.4629C39.5333 48.5815 38.8188 47.8669 37.9374 47.8669H26.9212C26.0397 47.8669 25.3252 48.5815 25.3252 49.4629V51.0592Z" fill="#D3D7DF"/>
<path d="M29.2363 44.3558H35.6203V47.8668H29.2363V44.3558Z" fill="#B5BCC9"/>
<path d="M36.1977 18.1819H50.463C51.3445 18.1819 52.059 18.8964 52.059 19.7779V42.7598C52.059 43.6413 51.3445 44.3558 50.463 44.3558H14.3938C13.5124 44.3558 12.7979 43.6413 12.7979 42.7598V19.7779C12.7979 18.8964 13.5124 18.1819 14.3938 18.1819H24.3622" fill="#DFF6FC"/>
<path d="M50.463 44.3559H14.3938C13.5124 44.3559 12.7979 43.6414 12.7979 42.7599V38.9296H52.059V42.7599C52.059 43.6414 51.3445 44.3559 50.463 44.3559Z" fill="#D3D7DF"/>
<path d="M47.7503 38.9297H17.1074V13.394C17.1074 12.5125 17.8219 11.798 18.7034 11.798H46.1543C47.0358 11.798 47.7503 12.5125 47.7503 13.394V38.9297Z" fill="#F9F9F9"/>
<path d="M40.4239 38.9297H42.0838V35.5019H40.4239C40.2134 34.5145 39.8248 33.593 39.2929 32.7729L40.4671 31.5988L38.0444 29.1761L36.8702 30.3502C36.0501 29.8184 35.1287 29.4298 34.1413 29.2192V27.5593H30.7151V29.2192C29.7277 29.4297 28.8062 29.8184 27.9861 30.3502L26.812 29.1761L24.3893 31.5988L25.5634 32.7729C25.0317 33.5931 24.643 34.5145 24.4324 35.5019H22.7725V38.9297H24.4324H40.4239Z" fill="#79B2FF"/>
<path d="M35.1221 38.9282C35.4377 38.4331 35.6212 37.8457 35.6212 37.215C35.6212 35.4519 34.1919 34.0226 32.4288 34.0226C30.6656 34.0226 29.2363 35.4519 29.2363 37.215C29.2363 37.8457 29.4199 38.4331 29.7355 38.9282H35.1221Z" fill="white"/>
<path d="M46.1543 11.798H18.7034C17.8219 11.798 17.1074 12.5125 17.1074 13.394V18.1819H47.7503V13.394C47.7503 12.5125 47.0358 11.798 46.1543 11.798Z" fill="white"/>
<path d="M47.7503 18.1819H17.1074V13.394C17.1074 12.5125 17.8219 11.798 18.7034 11.798H46.1543C47.0358 11.798 47.7503 12.5125 47.7503 13.394V18.1819Z" fill="#91DEF5"/>
<path d="M50.4632 17.3839H48.548V13.394C48.548 12.0739 47.4741 11 46.154 11H18.7031C17.3831 11 16.3092 12.0739 16.3092 13.394V17.3839H14.394C13.0739 17.3839 12 18.4579 12 19.7779V42.7599C12 44.0799 13.0739 45.1539 14.394 45.1539H28.4386V47.0689H26.9205C25.6005 47.0689 24.5265 48.1428 24.5265 49.4629V51.0592C24.5265 51.4999 24.8838 51.8571 25.3245 51.8571H39.5327C39.9734 51.8571 40.3307 51.4999 40.3307 51.0592V49.4629C40.3307 48.1428 39.2567 47.0689 37.9367 47.0689H36.4185V45.1539H50.4632C51.7832 45.1539 52.8571 44.0799 52.8571 42.7599V19.7779C52.8571 18.4579 51.7832 17.3839 50.4632 17.3839ZM50.4632 18.9799C50.9032 18.9799 51.2612 19.3379 51.2612 19.7779V38.1315H48.548V18.9799H50.4632ZM18.7031 12.596H46.154C46.594 12.596 46.952 12.954 46.952 13.394V17.3839H17.9051V13.394C17.9051 12.954 18.2631 12.596 18.7031 12.596ZM14.394 18.9799H16.3092V24.964C16.3092 25.4048 16.6664 25.762 17.1071 25.762C17.5479 25.762 17.9051 25.4048 17.9051 24.964V18.9799H46.952V38.1315H42.8823V35.5018C42.8823 35.0611 42.525 34.7038 42.0843 34.7038H41.046C40.8635 34.0755 40.6131 33.4714 40.2972 32.8974L41.0318 32.163C41.3434 31.8513 41.3434 31.3461 41.0318 31.0344L38.6091 28.6117C38.2975 28.3001 37.7922 28.3001 37.4805 28.6117L36.746 29.3462C36.1721 29.0304 35.5679 28.78 34.9396 28.5975V27.5593C34.9396 27.1185 34.5823 26.7613 34.1416 26.7613H30.7154C30.2746 26.7613 29.9174 27.1185 29.9174 27.5593V28.5975C29.289 28.78 28.685 29.0304 28.111 29.3462L27.3765 28.6117C27.0649 28.3001 26.5596 28.3001 26.2479 28.6117L23.8252 31.0344C23.5136 31.346 23.5136 31.8513 23.8252 32.163L24.5597 32.8974C24.2439 33.4713 23.9935 34.0755 23.811 34.7038H22.7729C22.3321 34.7038 21.9749 35.0611 21.9749 35.5018V38.1315H17.9051V32.146C17.9051 31.7052 17.5479 31.348 17.1071 31.348C16.6664 31.348 16.3092 31.7052 16.3092 32.146V38.1315H13.596V19.7779C13.596 19.3379 13.954 18.9799 14.394 18.9799ZM26.128 32.2085L25.5181 31.5986L26.8123 30.3044L27.4222 30.9143C27.6885 31.1805 28.1047 31.2244 28.4207 31.0196C29.1758 30.53 30.0039 30.1867 30.8819 29.9995C31.2503 29.921 31.5135 29.5957 31.5135 29.2191V28.3571H33.3438V29.2191C33.3438 29.5957 33.607 29.921 33.9754 29.9995C34.8533 30.1867 35.6814 30.5299 36.4366 31.0196C36.7526 31.2244 37.1688 31.1806 37.4351 30.9143L38.045 30.3044L39.3392 31.5986L38.7293 32.2085C38.4631 32.4748 38.4191 32.891 38.624 33.207C39.1137 33.9622 39.4569 34.7903 39.6441 35.6682C39.7226 36.0365 40.0479 36.2998 40.4245 36.2998H41.2863V38.1315H36.3114C36.3824 37.8323 36.419 37.5247 36.419 37.215C36.419 35.0146 34.6289 33.2245 32.4286 33.2245C30.2283 33.2245 28.4381 35.0147 28.4381 37.215C28.4381 37.5247 28.4748 37.8323 28.5458 38.1315H23.5709V36.2998H24.4328C24.8094 36.2998 25.1347 36.0366 25.2132 35.6682C25.4004 34.7902 25.7436 33.9621 26.2333 33.207C26.4382 32.8911 26.3943 32.4748 26.128 32.2085ZM30.0341 37.215C30.0341 35.8947 31.1082 34.8205 32.4286 34.8205C33.7489 34.8205 34.823 35.8947 34.823 37.215C34.823 37.5301 34.7593 37.8414 34.6382 38.1315H30.2189C30.0979 37.8414 30.0341 37.5301 30.0341 37.215ZM38.7346 49.4629V50.2612H26.1225V49.4629C26.1225 49.0228 26.4805 48.6649 26.9205 48.6649H37.9367C38.3767 48.6649 38.7346 49.0228 38.7346 49.4629ZM34.8225 47.0689H30.0346V45.1539H34.8225V47.0689ZM50.4632 43.5579H14.394C13.954 43.5579 13.596 43.1999 13.596 42.7599V39.7275H51.2612V42.7599C51.2612 43.1999 50.9032 43.5579 50.4632 43.5579Z" fill="black"/>
<path d="M34.8224 15.788H43.4407C43.8814 15.788 44.2387 15.4307 44.2387 14.99C44.2387 14.5493 43.8814 14.192 43.4407 14.192H34.8224C34.3817 14.192 34.0244 14.5493 34.0244 14.99C34.0244 15.4307 34.3817 15.788 34.8224 15.788Z" fill="black"/>
<path d="M24.9279 15.788C25.1377 15.788 25.3436 15.7026 25.4921 15.5542C25.6405 15.4058 25.7259 15.1999 25.7259 14.99C25.7259 14.7801 25.6405 14.5743 25.4921 14.4258C25.3436 14.2774 25.1377 14.192 24.9279 14.192C24.718 14.192 24.5121 14.2774 24.3637 14.4258C24.2153 14.5743 24.1299 14.7801 24.1299 14.99C24.1299 15.1999 24.2153 15.4058 24.3637 15.5542C24.5121 15.7026 24.718 15.788 24.9279 15.788Z" fill="black"/>
<path d="M21.4162 15.788C21.626 15.788 21.8319 15.7026 21.9803 15.5542C22.1288 15.4058 22.2141 15.1999 22.2141 14.99C22.2141 14.7801 22.1288 14.5743 21.9803 14.4258C21.8319 14.2774 21.626 14.192 21.4162 14.192C21.2063 14.192 21.0004 14.2774 20.852 14.4258C20.7035 14.5743 20.6182 14.7801 20.6182 14.99C20.6182 15.1999 20.7035 15.4058 20.852 15.5542C21.0004 15.7026 21.2063 15.788 21.4162 15.788Z" fill="black"/>
<path d="M28.4386 15.788C28.6485 15.788 28.8544 15.7026 29.0028 15.5542C29.1512 15.4058 29.2366 15.1999 29.2366 14.99C29.2366 14.7801 29.1512 14.5743 29.0028 14.4258C28.8544 14.2774 28.6485 14.192 28.4386 14.192C28.2287 14.192 28.0229 14.2774 27.8744 14.4258C27.726 14.5743 27.6406 14.7801 27.6406 14.99C27.6406 15.1999 27.726 15.4058 27.8744 15.5542C28.0229 15.7026 28.2287 15.788 28.4386 15.788Z" fill="black"/>
<path d="M20.9376 22.8101H22.8367C23.2774 22.8101 23.6347 22.4528 23.6347 22.0121C23.6347 21.5714 23.2774 21.2141 22.8367 21.2141H20.9376C20.4969 21.2141 20.1396 21.5714 20.1396 22.0121C20.1396 22.4528 20.4969 22.8101 20.9376 22.8101Z" fill="black"/>
<path d="M26.3478 22.8101H33.6684C34.1091 22.8101 34.4664 22.4528 34.4664 22.0121C34.4664 21.5714 34.1091 21.2141 33.6684 21.2141H26.3478C25.9071 21.2141 25.5498 21.5714 25.5498 22.0121C25.5498 22.4528 25.9071 22.8101 26.3478 22.8101Z" fill="black"/>
<path d="M20.9376 26.6403H25.566C26.0067 26.6403 26.364 26.283 26.364 25.8423C26.364 25.4016 26.0067 25.0443 25.566 25.0443H20.9376C20.4969 25.0443 20.1396 25.4016 20.1396 25.8423C20.1396 26.283 20.4969 26.6403 20.9376 26.6403Z" fill="black"/>
<path d="M37.1798 22.8101H43.92C44.3607 22.8101 44.718 22.4528 44.718 22.0121C44.718 21.5714 44.3607 21.2141 43.92 21.2141H37.1798C36.7391 21.2141 36.3818 21.5714 36.3818 22.0121C36.3818 22.4528 36.7391 22.8101 37.1798 22.8101Z" fill="black"/>
<path d="M43.9205 25.0443H38.4591C38.0184 25.0443 37.6611 25.4016 37.6611 25.8423C37.6611 26.283 38.0184 26.6403 38.4591 26.6403H43.9205C44.3612 26.6403 44.7185 26.283 44.7185 25.8423C44.7185 25.4016 44.3612 25.0443 43.9205 25.0443Z" fill="black"/>
<path d="M17.1076 29.3531C17.3174 29.3531 17.5233 29.2677 17.6717 29.1192C17.8202 28.9708 17.9056 28.7649 17.9056 28.5551C17.9056 28.3452 17.8202 28.1393 17.6717 27.9909C17.5233 27.8425 17.3174 27.7571 17.1076 27.7571C16.8977 27.7571 16.6918 27.8425 16.5434 27.9909C16.395 28.1393 16.3096 28.3452 16.3096 28.5551C16.3096 28.7649 16.395 28.9708 16.5434 29.1192C16.6918 29.2677 16.8977 29.3531 17.1076 29.3531Z" fill="black"/>
</g>
<defs>
<clipPath id="clip0">
<rect width="40.8571" height="40.8571" fill="white" transform="translate(12 11)"/>
</clipPath>
</defs>
</svg>
