<svg width="77" height="47" viewBox="0 0 77 47" fill="none" xmlns="http://www.w3.org/2000/svg">
<path d="M24 23.0001C24 34.598 33.402 44.0001 45 44.0001V2.00006C33.402 2.00006 24 11.4021 24 23.0001Z" fill="#DCC2AD"/>
<path d="M66 23.0001C66 11.4021 56.598 2.00006 45 2.00006L45 44.0001C56.598 44.0001 66 34.598 66 23.0001Z" fill="#FFDFF3"/>
<path d="M62.922 20.9582C63.2586 17.3454 60.6027 14.1438 56.99 13.8072C53.3771 13.4706 50.1755 16.1265 49.8389 19.7392C49.7616 20.5693 49.8439 21.3769 50.0578 22.1338C47.4751 22.8224 45.4708 25.0572 45.2084 27.874C45.0837 29.2121 45.3703 30.4933 45.9633 31.594C44.18 32.2889 42.8456 33.9409 42.656 35.9763C42.3884 38.8478 44.4993 41.3924 47.3708 41.66C50.2423 41.9275 52.7869 39.8167 53.0545 36.9452C53.1188 36.2554 53.0445 35.5849 52.8567 34.9599C55.7169 34.4729 58.0094 32.1192 58.2914 29.093C58.3688 28.263 58.2865 27.4553 58.0726 26.6984C60.6553 26.0098 62.6595 23.7751 62.922 20.9582Z" fill="#FEAEE1"/>
<path d="M44.5391 36.8802C44.661 35.5717 45.2561 34.4216 46.1394 33.5824C46.962 32.8009 47.3668 31.6689 47.1659 30.5522C47.063 29.9801 47.0349 29.3849 47.0915 28.778C47.2883 26.6653 48.465 24.8801 50.1305 23.829C51.0748 23.2332 51.6692 22.2175 51.6954 21.1013C51.6988 20.9581 51.7068 20.814 51.7197 20.6692C52.0414 17.0631 55.2683 14.3752 58.8732 14.7112C59.307 14.7516 59.727 14.8338 60.1297 14.9526C59.226 14.3234 58.1517 13.9129 56.9763 13.8058C53.5222 13.4911 50.3855 15.9558 49.8812 19.3874C49.741 20.3408 49.8138 21.2703 50.0578 22.1337C47.4751 22.8222 45.4708 25.057 45.2084 27.8738C45.0837 29.2119 45.3704 30.4932 45.9633 31.5938C44.18 32.2887 42.8456 33.9407 42.656 35.9761C42.4135 38.5785 44.1245 40.9124 46.5847 41.5262C45.1954 40.4712 44.3654 38.745 44.5391 36.8802Z" fill="#FE93D3"/>
<path d="M57.6744 14.7978C57.6744 14.7978 60.6485 10.7646 63.3539 13.0726C66.0594 15.3805 68.4384 14.641 68.7719 12.9726C68.7719 12.9726 72.3381 18.7939 66.3524 20.3113C66.3524 20.3113 58.753 18.1276 57.6744 14.7978Z" fill="#FEAEE1"/>
<path d="M61.1867 12.8707C62.7442 14.1993 64.1934 14.5178 65.2065 14.2307C64.6229 13.9981 63.9976 13.6218 63.3539 13.0726C62.4453 12.2974 61.5064 12.2381 60.66 12.5005C60.8361 12.5994 61.012 12.7216 61.1867 12.8707Z" fill="#FE93D3"/>
<path d="M68.7712 12.9725C68.6277 13.6905 68.1051 14.2361 67.341 14.4412C67.8848 16.147 68.0717 18.7037 64.9855 19.8604C65.8054 20.1541 66.3517 20.3112 66.3517 20.3112C72.3374 18.7938 68.7712 12.9725 68.7712 12.9725Z" fill="#FE93D3"/>
<path d="M61.1339 16.8501L67.5861 9.94365C67.9189 9.63662 68.4426 9.98476 68.2783 10.4038L64.2163 20.5355L61.2698 19.0559L61.1339 16.8501Z" fill="#FBC56D"/>
<path d="M73.284 28.497C71.6363 26.4125 64.9344 19.1646 64.9344 19.1646C64.3226 18.3103 62.9372 17.1568 61.2183 16.7124C60.9521 14.6005 60.1604 11.5746 57.8259 10.5856C57.8259 10.5856 55.4695 12.9122 56.3806 17.7391C55.842 18.1474 55.3064 18.6722 54.7829 19.336C50.8139 24.3688 47.2869 40.4723 46.8499 43.7498L62.1608 45.1764C62.5735 40.5661 61.531 34.4048 60.5456 31.2796C61.3788 31.4881 62.2745 31.4966 63.164 31.2642C63.356 31.214 63.5423 31.153 63.7234 31.0837C64.5863 31.7103 65.6122 32.4573 66.8313 33.3474C70.7768 36.2286 74.952 30.6069 73.284 28.497Z" fill="#FFF9F0"/>
<path d="M73.284 28.497C71.6363 26.4125 64.9344 19.1647 64.9344 19.1647C64.3226 18.3104 62.9372 17.1568 61.2183 16.7125C60.9521 14.6006 60.1604 11.5746 57.8259 10.5856C57.8259 10.5856 57.3496 11.0561 56.9082 12.0124C58.2459 13.3706 58.7756 15.5813 58.9838 17.2329C60.7027 17.6772 62.0882 18.8308 62.6999 19.6852C62.6999 19.6852 69.4018 26.933 71.0495 29.0175C72.0871 30.3299 70.8636 33.0006 68.841 34.139C72.0316 34.4119 74.6673 30.247 73.284 28.497Z" fill="#FFEFE1"/>
<path d="M58.9947 34.4369C59.6583 37.5054 60.1703 41.5747 59.9797 44.9733L62.162 45.1766C62.5514 40.8258 61.645 35.0943 60.7136 31.8362C60.7054 31.838 60.6972 31.8397 60.689 31.8415C59.501 32.0939 58.738 33.2499 58.9947 34.4369Z" fill="#FFEFE1"/>
<path d="M60.7805 28.3894C61.7047 28.4755 62.5238 27.7961 62.6099 26.8719C62.696 25.9477 62.0166 25.1287 61.0924 25.0426C60.1682 24.9565 59.3491 25.6359 59.263 26.5601C59.1769 27.4843 59.8563 28.3033 60.7805 28.3894Z" fill="#D9B1EE"/>
<path d="M48.7752 34.026C48.7752 34.026 53.5059 37.4587 51.163 42.0556C51.163 42.0556 50.5154 40.9713 46.7835 41.5006L45.546 36.0818L48.7752 34.026Z" fill="#FEAEE1"/>
<path d="M71.016 30.4359C71.3153 30.4638 71.5804 30.2439 71.6083 29.9446C71.6362 29.6454 71.4162 29.3802 71.117 29.3524C70.8178 29.3245 70.5526 29.5444 70.5247 29.8437C70.4968 30.1429 70.7168 30.4081 71.016 30.4359Z" fill="black"/>
<path d="M71.4151 25.4866C71.2118 25.2577 70.8588 25.2408 70.6345 25.4523C70.4179 25.6567 70.419 26.0038 70.6167 26.2265C71.7003 27.4471 72.4541 28.3244 72.8572 28.8345C73.4451 29.5781 73.0043 31.1378 71.8748 32.3113C71.3384 32.8686 69.4125 34.5586 67.1523 32.9081C66.307 32.2908 65.5124 31.7116 64.7798 31.1787C64.9197 31.0966 65.0566 31.009 65.1898 30.9151C65.4161 30.7555 65.4983 30.4473 65.3655 30.2042C65.2063 29.9127 64.8349 29.8327 64.572 30.0191C64.2457 30.2504 63.8929 30.4371 63.5193 30.5791C63.4657 30.5995 63.412 30.6186 63.3585 30.637C63.3273 30.6475 63.2963 30.6583 63.2649 30.6682C63.2426 30.6754 63.2203 30.6821 63.198 30.6888C63.1411 30.7059 63.0842 30.7227 63.0265 30.7377C61.7994 31.0584 60.521 30.8821 59.4266 30.2412C58.3387 29.6041 57.5622 28.5839 57.238 27.3666C57.1634 27.0865 56.8929 26.894 56.6079 26.9468C56.2934 27.005 56.0998 27.316 56.1792 27.6197C56.5734 29.128 57.5314 30.3925 58.8766 31.1803C59.2718 31.4117 59.6866 31.5933 60.1134 31.7251C60.6082 33.3542 61.0591 35.5838 61.3573 37.8894C61.3906 38.1465 61.5982 38.3384 61.846 38.3615C61.8916 38.3657 61.9386 38.3643 61.9861 38.3565C62.2781 38.3086 62.4723 38.0245 62.4342 37.7309C62.1646 35.653 61.7723 33.6281 61.3331 32.0257C61.9368 32.0553 62.5878 31.9772 63.3016 31.7907C63.3719 31.7723 63.4429 31.7517 63.5139 31.7301C63.5544 31.7179 63.5947 31.7051 63.6349 31.6922C63.6351 31.6922 63.6352 31.6922 63.6354 31.6923C64.5021 32.322 65.4679 33.0256 66.5104 33.787C67.563 34.5557 68.7395 34.845 69.9125 34.6235C70.8954 34.438 71.8707 33.8848 72.6588 33.066C73.9713 31.7025 74.7859 29.5196 73.7109 28.1596C73.2931 27.6309 72.5206 26.7316 71.4151 25.4866Z" fill="black"/>
<path d="M62.0682 39.4774C61.7716 39.5104 61.5644 39.7886 61.5882 40.0861C61.7208 41.7418 61.7449 43.2514 61.6603 44.5833L47.474 43.2615C47.5351 42.8888 47.6161 42.4398 47.7123 41.942C49.9464 41.7509 50.605 42.2611 50.7048 42.3545C50.7833 42.5264 50.9336 42.6157 51.1211 42.6331C51.1353 42.6344 51.1497 42.6354 51.1643 42.6358C51.3539 42.6424 51.5289 42.5325 51.6167 42.3642C52.6996 40.2875 52.5932 38.0956 51.3104 36.03C50.7211 35.081 50.0158 34.3727 49.5615 33.9689C49.5744 33.9409 49.5854 33.9115 49.5937 33.8807C51.4529 26.9538 53.4477 21.908 55.2103 19.6729C55.6837 19.0726 56.1881 18.5679 56.7096 18.1725C56.8758 18.0465 56.9526 17.8352 56.914 17.6302C56.6352 16.1488 56.6769 14.9259 56.8589 13.9494C56.8732 13.9061 56.8821 13.8605 56.8851 13.8131C57.151 12.5124 57.6631 11.6707 57.9672 11.2622C59.8478 12.3424 60.4724 15.1452 60.6785 16.7807C60.7063 17.0011 60.8644 17.1829 61.0794 17.2384C62.6019 17.631 63.9158 18.6765 64.4921 19.4813C64.5053 19.4997 64.5196 19.5173 64.535 19.5339C64.5585 19.5594 66.9182 22.112 69.1531 24.5914C69.358 24.8187 69.7112 24.833 69.9339 24.6198C70.1491 24.4138 70.1459 24.0672 69.9464 23.846C68.9321 22.7208 67.8939 21.5825 67.0596 20.6716C68.5775 20.1715 69.5876 19.326 70.0652 18.152C71.0585 15.7108 69.3103 12.8104 69.2354 12.6881C69.086 12.4443 68.7654 12.3492 68.4956 12.5022C68.3568 12.581 68.2678 12.7229 68.2351 12.879C68.1475 13.2969 67.8882 13.6181 67.5017 13.8046L68.7847 10.6022C68.9519 10.1754 68.8095 9.71449 68.4302 9.45523C68.0521 9.19681 67.5531 9.23309 67.2168 9.5435C67.2069 9.55263 67.1973 9.56209 67.1882 9.57195L64.0475 12.9336C63.9337 12.8468 63.8194 12.7548 63.7066 12.6585C62.7025 11.802 61.5213 11.5948 60.2814 12.0544C59.5794 10.9678 58.7578 10.3894 58.0382 10.0845C57.8352 9.99853 57.6005 10.0435 57.4437 10.1983C57.378 10.2631 56.3907 11.265 55.8994 13.2501C53.9023 13.3816 52.0658 14.3413 50.8059 15.9273C50.6285 16.1507 50.6382 16.479 50.8456 16.6749C50.9389 16.763 51.0531 16.8113 51.1694 16.8222C51.3467 16.8387 51.5286 16.7678 51.6473 16.6177C52.6573 15.3392 54.1076 14.5381 55.6973 14.3604C55.5889 15.2618 55.5918 16.312 55.7886 17.5142C55.2883 17.9281 54.8075 18.4263 54.3557 18.9991C52.0382 21.9377 49.984 28.2891 48.6393 33.2403C48.3958 33.0876 48.0754 32.9268 47.6954 32.8271C47.425 32.7561 47.1337 32.8941 47.035 33.1556C46.9184 33.4645 47.0974 33.7972 47.4082 33.8768C47.9888 34.0258 48.3905 34.4106 48.3924 34.4124C48.4122 34.432 48.4335 34.4501 48.456 34.4664C48.467 34.4744 49.5618 35.2773 50.3858 36.6041C51.3376 38.1366 51.5229 39.6869 50.9399 41.2211C50.2744 40.9012 49.0209 40.6339 46.7075 40.9619C46.7073 40.9619 46.707 40.962 46.7068 40.962C46.6572 40.9691 46.6067 40.9692 46.5585 40.9554C44.4157 40.3419 42.9873 38.2809 43.1973 36.0266C43.3624 34.2551 44.4951 32.7524 46.1541 32.1032C46.2231 32.0762 46.2882 32.0383 46.3409 31.9863C46.523 31.8063 46.5533 31.5425 46.4419 31.3357C45.8785 30.2901 45.6392 29.1104 45.7497 27.9243C45.9828 25.4223 47.7703 23.3066 50.1976 22.6594C50.4114 22.6025 50.5769 22.4188 50.6002 22.1813C50.6068 22.113 50.5975 22.0439 50.5788 21.9777C50.3783 21.2645 50.3115 20.5284 50.3804 19.7896C50.4274 19.2841 50.5371 18.7881 50.7063 18.3149C50.8061 18.0357 50.6813 17.7154 50.4065 17.6043C50.119 17.4881 49.7951 17.6345 49.6905 17.9235C49.4856 18.4899 49.3531 19.0837 49.2968 19.6886C49.2317 20.3866 49.2693 21.0827 49.4082 21.7645C46.8041 22.6743 44.9248 25.0475 44.6661 27.8234C44.5538 29.0289 44.7477 30.2289 45.2283 31.3275C43.4745 32.2216 42.2991 33.9361 42.1137 35.9257C41.8446 38.8148 43.7594 41.446 46.5776 42.0825C46.4549 42.7362 46.3637 43.2799 46.3111 43.6736C46.3019 43.7426 46.3035 43.8129 46.3209 43.8802C46.3812 44.1142 46.5767 44.2708 46.7994 44.2915L62.1026 45.7174C62.1704 45.7237 62.2394 45.7202 62.3049 45.7016C62.5326 45.637 62.6832 45.4436 62.7028 45.2249C62.8395 43.6975 62.8288 41.931 62.6711 39.9745C62.6465 39.6694 62.3748 39.4434 62.0682 39.4774ZM62.2268 16.4768L63.9437 14.639C64.1318 15.2948 64.5432 15.9606 65.3362 16.2836L64.6397 18.0223C64.0154 17.4359 63.1797 16.8638 62.2268 16.4768ZM67.2162 15.0258C67.8489 14.9158 68.3844 14.6169 68.7615 14.1864C69.1408 15.105 69.5469 16.5428 69.0559 17.7454C68.6591 18.7169 67.7113 19.4006 66.2394 19.7781C65.8683 19.3744 65.5908 19.0734 65.4462 18.9168C65.4606 18.8926 65.4737 18.8672 65.4845 18.8403L67.0139 15.0224C67.0787 15.0357 67.147 15.0378 67.2162 15.0258ZM67.535 10.7949L65.7413 15.2725C65.3973 15.1279 65.1605 14.8532 65.023 14.4391C64.9111 14.1022 64.8985 13.7704 64.8998 13.6156L67.535 10.7949ZM63.0002 13.4865C63.0998 13.5714 63.2005 13.6534 63.3014 13.7324L61.5875 15.567C61.3919 14.5538 61.122 13.7174 60.807 13.0252C61.6169 12.7695 62.3369 12.9206 63.0002 13.4865Z" fill="black"/>
<path d="M61.6896 22.1475C61.7062 21.9696 61.8757 21.842 62.056 21.8828C62.2061 21.9167 62.296 22.0652 62.286 22.2187C62.2666 22.5185 62.495 22.7802 62.7996 22.797C63.1063 22.8139 63.3571 22.5606 63.3746 22.2538C63.4169 21.5122 62.8626 20.8623 62.1172 20.7929C61.3714 20.7234 60.7063 21.2602 60.6115 21.9975C60.5737 22.2916 60.7574 22.5793 61.0491 22.6322C61.3675 22.69 61.6603 22.4627 61.6896 22.1475Z" fill="black"/>
<path d="M58.7575 26.2702C58.4767 27.6661 59.549 28.9589 60.9728 28.9409C62.0102 28.9277 62.9129 28.1789 63.1175 27.1618C63.3983 25.7659 62.3259 24.4731 60.9022 24.4911C59.8649 24.5044 58.9621 25.2532 58.7575 26.2702ZM60.8946 25.5801C61.6425 25.555 62.2088 26.2377 62.046 26.9681C61.935 27.466 61.4902 27.8349 60.9804 27.852C60.2325 27.877 59.6662 27.1944 59.8291 26.464C59.94 25.9661 60.3848 25.5971 60.8946 25.5801Z" fill="black"/>
<path d="M74.2064 20.3326C74.2503 20.3481 74.2947 20.3577 74.3388 20.3618C74.5912 20.3853 74.8336 20.2291 74.9096 19.9771L74.9681 19.7833C75.0481 19.5185 74.9291 19.225 74.6765 19.1124C74.3708 18.9762 74.0253 19.1412 73.9316 19.4512L73.8737 19.643C73.7888 19.9244 73.9295 20.2343 74.2064 20.3326Z" fill="black"/>
<path d="M75.3824 20.5463L75.2099 20.4942C74.9247 20.4081 74.6096 20.5529 74.515 20.8354C74.4171 21.1278 74.5806 21.441 74.8736 21.5295L75.0849 21.5933C75.1207 21.6041 75.1565 21.611 75.1923 21.6143C75.4631 21.6395 75.7225 21.4578 75.7771 21.1727C75.83 20.8965 75.6516 20.6276 75.3824 20.5463Z" fill="black"/>
<path d="M73.3225 21.4945L73.2642 21.6878C73.1794 21.9684 73.32 22.2771 73.5962 22.3755C73.6404 22.3912 73.6852 22.4009 73.7297 22.4051C73.982 22.4286 74.2244 22.2724 74.3005 22.0204L74.3578 21.8308C74.4439 21.5457 74.2993 21.2308 74.0171 21.1361C73.7248 21.038 73.4111 21.2014 73.3225 21.4945Z" fill="black"/>
<path d="M72.8537 20.9266L73.0432 20.9839C73.0789 20.9946 73.1148 21.0015 73.1505 21.0049C73.4214 21.0301 73.6808 20.8484 73.7353 20.5633C73.7882 20.287 73.6099 20.0181 73.3406 19.9369L73.1464 19.8782C72.8532 19.7897 72.5438 19.9603 72.4636 20.258C72.3861 20.5457 72.5685 20.8405 72.8537 20.9266Z" fill="black"/>
<path d="M44.2767 16.6357C44.3206 16.6512 44.365 16.6608 44.4091 16.6649C44.6615 16.6884 44.9039 16.5323 44.98 16.2802L45.0385 16.0865C45.1184 15.8217 44.9995 15.5283 44.7469 15.4156C44.4413 15.2793 44.0956 15.4442 44.0019 15.7543L43.944 15.9461C43.8591 16.2275 43.9997 16.5374 44.2767 16.6357Z" fill="black"/>
<path d="M44.5759 17.1707C44.4984 17.4584 44.6807 17.7532 44.9659 17.8393L45.1555 17.8965C45.1912 17.9073 45.2271 17.9142 45.2629 17.9176C45.5337 17.9428 45.7931 17.761 45.8477 17.476C45.9005 17.1997 45.7222 16.9308 45.4529 16.8496L45.2587 16.7909C44.9655 16.7023 44.6561 16.873 44.5759 17.1707Z" fill="black"/>
<path d="M44.3709 18.3235L44.4294 18.1296C44.5094 17.8648 44.3903 17.5713 44.1376 17.4588C43.832 17.3226 43.4864 17.4876 43.3929 17.7976L43.3345 17.9909C43.2497 18.2716 43.3903 18.5803 43.6665 18.6786C43.7107 18.6943 43.7555 18.7041 43.8 18.7082C44.0524 18.7317 44.2948 18.5755 44.3709 18.3235Z" fill="black"/>
<path d="M43.8044 16.8664C43.8573 16.5902 43.6791 16.3213 43.4099 16.24L43.2373 16.1879C42.9521 16.1018 42.6369 16.2464 42.5423 16.529C42.4444 16.8213 42.6079 17.1347 42.9009 17.2232L43.1123 17.287C43.1479 17.2977 43.1839 17.3046 43.2196 17.308C43.4904 17.3332 43.7498 17.1514 43.8044 16.8664Z" fill="black"/>
<g clip-path="url(#clip0)">
<path fill-rule="evenodd" clip-rule="evenodd" d="M8.47006 14.2398C7.16493 11.7603 8.43228 8.70487 11.1092 7.87709C13.4715 7.14659 15.9787 8.46945 16.7092 10.8317L18.3398 16.105C18.9178 15.8806 19.5116 15.6735 20.1197 15.4855C20.7039 15.3049 21.2871 15.1461 21.8674 15.0089L20.2383 9.74044C19.5078 7.37814 20.8306 4.87096 23.1929 4.14046C25.8698 3.31268 28.6407 5.1194 28.963 7.90278L29.7222 14.4591C34.2311 14.9651 38.1665 17.0485 39.337 20.8338L40.0452 23.1239C41.0077 26.2366 39.7544 29.4796 37.4195 32.1292C35.0664 34.7994 31.4673 37.0672 27.2013 38.3864C22.9352 39.7056 18.6843 39.8652 15.2347 38.9894C11.8118 38.1203 8.94653 36.1508 7.98398 33.0381L7.27583 30.7481C6.1115 26.9828 8.15662 23.0628 11.5583 20.1069L8.47006 14.2398ZM28.4907 15.7322L27.6024 8.06032C27.3786 6.12852 25.4555 4.87454 23.5976 5.44908C21.958 5.95608 21.0399 7.69622 21.5469 9.33579L23.622 16.0464C23.1753 16.1242 22.7254 16.2155 22.2731 16.3207C21.6931 16.4556 21.1096 16.6132 20.5244 16.7942C19.9152 16.9825 19.3217 17.1908 18.7455 17.4171C18.3132 17.5869 17.8906 17.7668 17.4785 17.956L15.4006 11.2364C14.8936 9.59683 13.1534 8.67871 11.5139 9.18571C9.65594 9.76024 8.77632 11.8809 9.68215 13.6018L13.2914 20.4586C9.53107 23.3505 7.57627 27.0831 8.58445 30.3434L9.2926 32.6335C10.8291 37.6022 18.6659 39.592 26.7966 37.0778C34.9273 34.5635 40.2731 28.4973 38.7366 23.5285L38.0284 21.2385C37.0151 17.9616 33.2616 15.9804 28.4907 15.7322Z" fill="#633001"/>
<path d="M38.7361 23.5287C40.2726 28.4975 34.9269 34.5637 26.7961 37.078C18.6655 39.5922 10.8286 37.6024 9.29214 32.6336L8.58398 30.3436L38.0279 21.2386L38.7361 23.5287Z" fill="#FEDC90"/>
<path fill-rule="evenodd" clip-rule="evenodd" d="M9.68175 13.602C8.77593 11.8811 9.65554 9.76046 11.5135 9.18593C13.153 8.67894 14.8931 9.59706 15.4001 11.2366L17.4781 17.9563C18.4393 17.5148 19.4577 17.124 20.5239 16.7943C21.5655 16.4723 22.6023 16.2241 23.6216 16.0466L21.5464 9.33601C21.0394 7.69644 21.9576 5.95631 23.5971 5.44931C25.4551 4.87477 27.3783 6.12871 27.6019 8.06055L28.4904 15.7324C33.2611 15.9806 37.0147 17.9617 38.028 21.2386C39.5645 26.2074 34.2188 32.2736 26.088 34.7879C17.9574 37.3021 10.1205 35.3124 8.58404 30.3436C7.5759 27.0834 9.53067 23.3507 13.291 20.4588L9.68175 13.602Z" fill="#D1884F"/>
<path d="M19.0137 26.4014C19.4327 27.7566 19.04 29.0815 18.1366 29.3609C17.2332 29.6402 16.1612 28.7682 15.7421 27.4131C15.3231 26.0579 15.7158 24.733 16.6191 24.4537C17.5226 24.1743 18.5946 25.0463 19.0137 26.4014Z" fill="#633001"/>
<path d="M30.2998 22.9111C30.7188 24.2663 30.3261 25.5912 29.4227 25.8706C28.5194 26.1499 27.4473 25.2779 27.0283 23.9228C26.6092 22.5676 27.0019 21.2427 27.9052 20.9634C28.8087 20.684 29.8807 21.556 30.2998 22.9111Z" fill="#633001"/>
</g>
<defs>
<clipPath id="clip0">
<rect width="33.9015" height="33.9015" fill="white" transform="translate(0.990234 11.006) rotate(-17.1831)"/>
</clipPath>
</defs>
</svg>
