<svg width="58" height="58" viewBox="0 0 58 58" fill="none" xmlns="http://www.w3.org/2000/svg">
<path fill-rule="evenodd" clip-rule="evenodd" d="M10.5877 9.06578C9.70765 4.3535 13.3234 0 18.1172 0C22.3475 0 25.7768 3.42936 25.7768 7.65968V17.1029C26.8349 17.0282 27.9101 16.9899 28.9991 16.9899C30.0452 16.9899 31.0787 17.0252 32.0966 17.0942V7.65968C32.0966 3.42936 35.5259 0 39.7562 0C44.5499 0 48.1657 4.3535 47.2857 9.06578L45.213 20.1657C52.3268 23.2716 57.7062 28.666 57.7062 35.4445V39.5455C57.7062 45.1196 54.0184 49.7868 48.863 52.9373C43.6673 56.1125 36.6386 58 28.9991 58C21.3595 58 14.3308 56.1125 9.13518 52.9373C3.97974 49.7868 0.291992 45.1196 0.291992 39.5455V35.4445C0.291992 28.7018 5.61597 23.3283 12.67 20.2163L10.5877 9.06578ZM42.5565 21.624L44.9822 8.63558C45.5928 5.365 43.0834 2.34344 39.7562 2.34344C36.8202 2.34344 34.44 4.72359 34.44 7.65968V19.6769C33.6706 19.5783 32.889 19.5 32.0966 19.4434C31.0805 19.3707 30.047 19.3334 28.9991 19.3334C27.9083 19.3334 26.8329 19.3738 25.7768 19.4525C24.9844 19.5116 24.2026 19.592 23.4334 19.693V7.65968C23.4334 4.72359 21.0532 2.34344 18.1172 2.34344C14.79 2.34344 12.2805 5.365 12.8913 8.63558L15.3249 21.6672C7.71708 24.4932 2.63543 29.6061 2.63543 35.4445V39.5455C2.63543 48.4434 14.4388 55.6566 28.9991 55.6566C43.5592 55.6566 55.3628 48.4434 55.3628 39.5455V35.4445C55.3628 29.5764 50.229 24.441 42.5565 21.624Z" fill="#633001"/>
<path d="M55.364 39.5457C55.364 48.4436 43.5606 55.6568 29.0003 55.6568C14.4401 55.6568 2.63672 48.4436 2.63672 39.5457V35.4447H55.364V39.5457Z" fill="#FEDC90"/>
<path fill-rule="evenodd" clip-rule="evenodd" d="M12.8926 8.63565C12.2818 5.36507 14.7913 2.34351 18.1185 2.34351C21.0545 2.34351 23.4346 4.72366 23.4346 7.65975V19.6932C25.2288 19.4574 27.091 19.3334 29.0003 19.3334C30.8655 19.3334 32.6856 19.4517 34.4412 19.6769V7.65975C34.4412 4.72366 36.8214 2.34351 39.7575 2.34351C43.0847 2.34351 45.5943 5.36507 44.9834 8.63565L42.558 21.6242C50.2303 24.441 55.364 29.5764 55.364 35.4445C55.364 44.3424 43.5606 51.5557 29.0003 51.5557C14.4401 51.5557 2.63672 44.3424 2.63672 35.4445C2.63672 29.6063 7.71837 24.4932 15.3262 21.6672L12.8926 8.63565Z" fill="#D1884F"/>
<path d="M21.677 34.2726C21.677 36.6994 20.3654 38.6665 18.7476 38.6665C17.1298 38.6665 15.8184 36.6994 15.8184 34.2726C15.8184 31.8459 17.1298 29.8788 18.7476 29.8788C20.3654 29.8788 21.677 31.8459 21.677 34.2726Z" fill="#633001"/>
<path d="M41.8888 34.2726C41.8888 36.6994 40.5773 38.6665 38.9595 38.6665C37.3418 38.6665 36.0303 36.6994 36.0303 34.2726C36.0303 31.8459 37.3418 29.8788 38.9595 29.8788C40.5773 29.8788 41.8888 31.8459 41.8888 34.2726Z" fill="#633001"/>
</svg>
