<svg width="54" height="51" viewBox="0 0 54 51" fill="none" xmlns="http://www.w3.org/2000/svg">
<circle opacity="0.4" cx="21" cy="21" r="21" fill="#FF7143"/>
<path d="M39.1443 34.7899C39.3555 33.7593 39.3555 32.7288 39.1443 31.6983C38.9438 30.7201 38.1004 30.0042 37.1022 29.9794C38.1004 29.9546 38.9438 29.2387 39.1443 28.2606C39.3555 27.2301 39.3555 26.1995 39.1443 25.1689C38.9438 24.1908 38.1004 23.475 37.1022 23.4501C38.1004 23.4252 38.9438 22.7094 39.1443 21.7313C39.3556 20.7007 39.3556 19.6701 39.1443 18.6396C38.9438 17.6614 38.1004 16.9456 37.1022 16.9208C29.7545 16.7379 22.4068 16.7379 15.059 16.9208C14.0608 16.9456 13.2174 17.6615 13.0169 18.6396C12.8056 19.6701 12.8056 20.7007 13.0169 21.7313C13.2174 22.7095 14.0608 23.4253 15.059 23.4501C14.0608 23.475 13.2174 24.1908 13.0169 25.1689C12.8056 26.1995 12.8056 27.2301 13.0169 28.2606C13.2174 29.2388 14.0608 29.9546 15.059 29.9794C14.0608 30.0043 13.2174 30.7201 13.0169 31.6983C12.8056 32.7288 12.8056 33.7594 13.0169 34.7899C13.2174 35.7681 14.0608 36.4839 15.059 36.5088C14.0608 36.5336 13.2174 37.2495 13.0169 38.2276C12.8056 39.2581 12.8056 40.2887 13.0169 41.3193C13.2174 42.2974 14.0608 43.0132 15.059 43.0381C14.0608 43.063 13.2174 43.7788 13.0169 44.7569C12.8056 45.7874 12.8056 46.8181 13.0169 47.8486C13.2174 48.8268 14.0608 49.5426 15.059 49.5674C22.4068 49.7503 29.7545 49.7503 37.1022 49.5674C38.1004 49.5426 38.9438 48.8267 39.1443 47.8486C39.3555 46.8181 39.3555 45.7874 39.1443 44.7569C38.9438 43.7788 38.1004 43.063 37.1022 43.0381C38.1004 43.0132 38.9438 42.2974 39.1443 41.3193C39.3555 40.2886 39.3555 39.2581 39.1443 38.2276C38.9438 37.2494 38.1004 36.5335 37.1022 36.5088C38.1004 36.484 38.9438 35.7681 39.1443 34.7899Z" fill="#F6E266"/>
<path d="M20.5546 31.6958C20.3431 32.7263 20.3431 33.7569 20.5546 34.7875C20.7547 35.7661 21.5983 36.4814 22.5968 36.5061C21.5983 36.5316 20.7547 37.2469 20.5546 38.2256C20.3431 39.2561 20.3431 40.2867 20.5546 41.3173C20.7547 42.2952 21.5983 43.0112 22.5968 43.0359C21.5983 43.0606 20.7547 43.7767 20.5546 44.7546C20.3431 45.7851 20.3431 46.8157 20.5546 47.8463C20.7069 48.5921 21.2338 49.3526 21.9177 49.6826C19.6319 49.6613 17.3453 49.6218 15.0586 49.5649C14.0609 49.5402 13.2173 48.825 13.0164 47.8463C12.8057 46.8157 12.8057 45.7851 13.0164 44.7546C13.2173 43.7767 14.061 43.0606 15.0586 43.0359C14.0609 43.0112 13.2173 42.2952 13.0164 41.3173C12.8057 40.2867 12.8057 39.2561 13.0164 38.2256C13.2173 37.2469 14.061 36.5316 15.0586 36.5061C14.0609 36.4814 13.2173 35.7661 13.0164 34.7875C12.8057 33.7569 12.8057 32.7263 13.0164 31.6958C13.2173 30.7179 14.061 30.0018 15.0586 29.9771C14.0609 29.9524 13.2173 29.2363 13.0164 28.2584C12.8057 27.2279 12.8057 26.1973 13.0164 25.1668C13.2173 24.1881 14.061 23.4728 15.0586 23.4473C14.0609 23.4226 13.2173 22.7073 13.0164 21.7286C12.8057 20.6981 12.8057 19.6675 13.0164 18.637C13.2173 17.6591 14.061 16.943 15.0586 16.9183C17.3452 16.8615 19.6318 16.822 21.9177 16.8006C21.2337 17.1307 20.7069 17.8913 20.5546 18.637C20.3431 19.6675 20.3431 20.6981 20.5546 21.7286C20.7547 22.7073 21.5983 23.4226 22.5968 23.4473C21.5983 23.4728 20.7547 24.1881 20.5546 25.1668C20.3431 26.1973 20.3431 27.2279 20.5546 28.2584C20.7547 29.2363 21.5983 29.9524 22.5968 29.9771C21.5983 30.0018 20.7546 30.7179 20.5546 31.6958Z" fill="#EAB14D"/>
<path d="M41.7753 49.7278H37.5722C30.9939 49.7278 25.6611 44.3951 25.6611 37.8168C25.6611 31.2384 30.9939 25.9057 37.5722 25.9057H41.7753" fill="#EAB14D"/>
<path d="M40.5644 49.7278C47.1427 49.7278 52.4755 44.3951 52.4755 37.8168C52.4755 31.2385 47.1427 25.9057 40.5644 25.9057C33.9861 25.9057 28.6533 31.2385 28.6533 37.8168C28.6533 44.3951 33.9861 49.7278 40.5644 49.7278Z" fill="#F6E266"/>
<path d="M40.5651 46.5811C45.4056 46.5811 49.3295 42.6571 49.3295 37.8167C49.3295 32.9763 45.4056 29.0524 40.5651 29.0524C35.7247 29.0524 31.8008 32.9763 31.8008 37.8167C31.8008 42.6571 35.7247 46.5811 40.5651 46.5811Z" fill="#F6E266"/>
<path d="M42.749 16.3221L42.867 16.4401C43.2834 16.8565 43.9512 16.8794 44.3951 16.4924L45.7605 15.3022C46.2497 14.8759 46.2754 14.1246 45.8166 13.6658L45.5232 13.3724C45.0644 12.9136 44.3131 12.9394 43.8867 13.4284L42.6965 14.7939C42.3097 15.238 42.3326 15.9057 42.749 16.3221Z" fill="#F6E781"/>
<path d="M45.5618 21.1065L45.605 21.2678C45.7574 21.8366 46.3242 22.1903 46.9022 22.0772L48.6798 21.7291C49.3165 21.6045 49.7145 20.9666 49.5466 20.3399L49.4392 19.9392C49.2713 19.3125 48.6077 18.9591 47.994 19.1695L46.2806 19.757C45.7234 19.9479 45.4094 20.5377 45.5618 21.1065Z" fill="#F6E781"/>
<path d="M37.9222 13.5849L38.0835 13.628C38.6523 13.7805 39.242 13.4664 39.4329 12.9093L40.0204 11.1958C40.2308 10.5821 39.8774 9.91853 39.2507 9.75062L38.85 9.64325C38.2233 9.47533 37.5854 9.87333 37.4608 10.51L37.1128 12.2877C36.9997 12.8656 37.3533 13.4324 37.9222 13.5849Z" fill="#F6E781"/>
<path d="M40.5649 25.3002H39.7848C39.7702 25.216 39.7547 25.1316 39.7376 25.0473C39.6044 24.3964 39.2544 23.8405 38.7709 23.45C39.2544 23.0594 39.6043 22.5036 39.7375 21.8529C39.9645 20.7463 39.9645 19.6242 39.7376 18.5177C39.4785 17.2531 38.4013 16.3474 37.1178 16.3152C31.08 16.1649 24.9511 16.1385 18.901 16.2368C18.5667 16.2422 18.3001 16.5176 18.3055 16.852C18.3109 17.1864 18.584 17.4531 18.9207 17.4476C24.9542 17.3496 31.0664 17.3759 37.0876 17.5258C37.8041 17.5438 38.406 18.0516 38.5514 18.7609C38.7451 19.706 38.7451 20.6644 38.5513 21.6098C38.4064 22.318 37.8059 22.8252 37.0905 22.8445H15.0715C14.3562 22.8252 13.7554 22.3177 13.61 21.61C13.4167 20.6645 13.4167 19.7058 13.6098 18.7611C13.7557 18.0517 14.3579 17.5436 15.0745 17.5257C15.5469 17.5138 16.0192 17.5034 16.4916 17.493L16.5088 17.4926C16.8431 17.4853 17.1081 17.2084 17.1008 16.874C17.0934 16.5396 16.8187 16.2751 16.4821 16.2819L16.465 16.2823C15.9914 16.2927 15.5177 16.3031 15.0441 16.3151C13.7612 16.3472 12.6837 17.2528 12.4235 18.5179C12.1974 19.6242 12.1974 20.7461 12.4236 21.853C12.5573 22.5037 12.9076 23.0594 13.391 23.4499C12.9076 23.8405 12.5572 24.3963 12.4235 25.0474C12.1974 26.1536 12.1974 27.2756 12.4236 28.3825C12.5574 29.0331 12.9078 29.5888 13.3911 29.9793C12.9077 30.3699 12.5572 30.9258 12.4235 31.5769C12.1974 32.6832 12.1974 33.805 12.4236 34.9121C12.5574 35.5628 12.9078 36.1184 13.3911 36.5089C12.9077 36.8994 12.5572 37.4553 12.4236 38.1064C12.1973 39.2123 12.1973 40.3342 12.4236 41.4416C12.5574 42.092 12.9076 42.6476 13.3908 43.038C12.9075 43.4286 12.5573 43.9844 12.4236 44.6359C12.1973 45.7419 12.1973 46.8635 12.4236 47.9702C12.6836 49.2351 13.761 50.141 15.0441 50.1732C18.7017 50.264 22.389 50.3095 26.0758 50.3095C28.9776 50.3095 31.8795 50.2813 34.7636 50.2249C34.8418 50.2234 34.9001 50.1556 34.9395 50.0536C35.7889 50.2362 36.6697 50.3332 37.5728 50.3332H40.5649C47.4666 50.3332 53.0815 44.7183 53.0815 37.8166C53.0815 30.915 47.4666 25.3002 40.5649 25.3002ZM13.6098 25.2905C13.7554 24.5821 14.3562 24.0747 15.0715 24.0555H37.0905C37.8059 24.0747 38.4064 24.582 38.5512 25.2896C38.5519 25.2931 38.5524 25.2967 38.5531 25.3002H37.5729C33.9217 25.3002 30.631 26.8719 28.3409 29.374H15.0715C14.3563 29.3547 13.7554 28.8472 13.61 28.1394C13.4167 27.1941 13.4167 26.2353 13.6098 25.2905ZM13.6098 31.82C13.7554 31.1116 14.3562 30.6042 15.0715 30.5849H27.3623C26.2614 32.1348 25.5041 33.9449 25.2024 35.9035H15.0714C14.3563 35.8842 13.7554 35.3767 13.61 34.669C13.4167 33.7236 13.4167 32.7648 13.6098 31.82ZM13.6098 38.3495C13.7554 37.6411 14.3562 37.1336 15.0715 37.1143H25.0764C25.0635 37.3469 25.0563 37.581 25.0563 37.8166C25.0563 39.4462 25.3696 41.0038 25.9387 42.4329H15.0715C14.3563 42.4136 13.7554 41.9061 13.61 41.1983C13.4166 40.2527 13.4166 39.294 13.6098 38.3495ZM15.0743 48.9626C14.3579 48.9446 13.7556 48.4363 13.6098 47.727C13.4165 46.7819 13.4165 45.8235 13.6097 44.879C13.7554 44.17 14.3559 43.6626 15.0708 43.6439H26.4983C27.7349 45.9846 29.6917 47.8882 32.072 49.0577C26.412 49.134 20.7065 49.1026 15.0743 48.9626ZM26.2672 37.8167C26.2672 32.7335 29.6396 28.4235 34.2642 27.0054C30.5493 29.1788 28.0483 33.2109 28.0483 37.8167C28.0483 42.4225 30.5493 46.4546 34.2642 48.628C29.6396 47.2099 26.2672 42.8999 26.2672 37.8167ZM40.5649 49.1223C34.331 49.1223 29.2593 44.0506 29.2593 37.8167C29.2593 31.5828 34.331 26.5111 40.5649 26.5111C46.7989 26.5111 51.8705 31.5828 51.8705 37.8167C51.8705 44.0506 46.7988 49.1223 40.5649 49.1223Z" fill="black"/>
<path d="M40.5657 28.4472C35.3989 28.4472 31.1953 32.6504 31.1953 37.8168C31.1953 42.9832 35.3989 47.1864 40.5657 47.1864C42.3979 47.1864 44.1725 46.6574 45.6973 45.6565C45.9769 45.4731 46.0548 45.0977 45.8713 44.8182C45.6878 44.5386 45.3125 44.4608 45.0329 44.6442C43.7058 45.5151 42.1611 45.9754 40.5656 45.9754C36.0665 45.9754 32.4062 42.3155 32.4062 37.8168C32.4062 33.3181 36.0665 29.6582 40.5656 29.6582C45.0643 29.6582 48.7243 33.3181 48.7243 37.8168C48.7243 39.7887 48.0115 41.6916 46.7172 43.1748C46.4974 43.4268 46.5235 43.8093 46.7754 44.0291C47.0271 44.2489 47.4097 44.223 47.6297 43.971C49.1164 42.2671 49.9353 40.0815 49.9353 37.8168C49.9353 32.6504 45.7321 28.4472 40.5657 28.4472Z" fill="black"/>
<path d="M42.4381 16.8683C42.7726 17.2029 43.2153 17.3719 43.6591 17.3719C44.0629 17.3719 44.4677 17.2319 44.7922 16.949L46.1576 15.7588C46.5167 15.4458 46.732 14.9932 46.7484 14.5171C46.7647 14.0409 46.5809 13.5746 46.244 13.2377L45.9506 12.9444C45.6138 12.6076 45.1491 12.4243 44.6714 12.44C44.1952 12.4563 43.7426 12.6716 43.4294 13.0307L42.2393 14.3962C41.6456 15.0773 41.6811 16.1113 42.3199 16.7502L42.4381 16.8683ZM43.1524 15.1918L44.3424 13.8263C44.4372 13.7176 44.5688 13.655 44.7129 13.6501C44.719 13.6499 44.7251 13.6498 44.7312 13.6498C44.8685 13.6498 44.9968 13.7029 45.0944 13.8005L45.3878 14.0939C45.4898 14.1958 45.5432 14.3314 45.5383 14.4755C45.5333 14.6196 45.4707 14.7511 45.362 14.8458L43.9966 16.036C43.7934 16.2132 43.485 16.2025 43.2944 16.012L43.1764 15.894C43.1764 15.894 43.1764 15.894 43.1763 15.8939C42.9858 15.7034 42.9752 15.395 43.1524 15.1918Z" fill="black"/>
<path d="M44.9765 21.2632L45.0197 21.4245C45.2243 22.1885 45.9226 22.7034 46.6882 22.7034C46.7972 22.7034 46.9076 22.693 47.018 22.6714L48.7957 22.3233C49.2633 22.2318 49.6761 21.9475 49.9283 21.5433C50.1805 21.1391 50.2543 20.6434 50.1311 20.1832L50.0237 19.7825C49.9004 19.3223 49.5885 18.93 49.1679 18.706C48.7475 18.4822 48.2479 18.4423 47.7972 18.5968L46.0836 19.1843C45.229 19.4772 44.7427 20.3903 44.9765 21.2632ZM46.4764 20.3297L48.19 19.7422C48.3263 19.6955 48.4716 19.707 48.5987 19.7748C48.726 19.8426 48.8166 19.9566 48.854 20.0959L48.9614 20.4966C48.9987 20.6359 48.9772 20.78 48.9008 20.9023C48.8245 21.0246 48.7046 21.1073 48.563 21.135L46.7853 21.483C46.5206 21.5349 46.259 21.3714 46.1892 21.1112L46.146 20.9499C46.0765 20.6894 46.2214 20.417 46.4764 20.3297Z" fill="black"/>
<path d="M37.7653 14.1697L37.9266 14.213C38.0744 14.2526 38.2234 14.2715 38.3703 14.2715C39.0909 14.2715 39.7622 13.8157 40.0057 13.1058L40.5931 11.3923C40.7476 10.9417 40.7078 10.4421 40.4838 10.0216C40.26 9.60109 39.8675 9.28915 39.4073 9.16579L39.0066 9.05842C38.5465 8.93514 38.0505 9.00893 37.6464 9.26121C37.2422 9.51342 36.9579 9.92619 36.8664 10.3937L36.5184 12.1714C36.3449 13.0581 36.8926 13.9358 37.7653 14.1697ZM37.7069 12.404L38.0549 10.6263C38.0826 10.4848 38.1652 10.3648 38.2876 10.2885C38.3706 10.2367 38.4638 10.2101 38.5586 10.2101C38.6034 10.2101 38.6485 10.216 38.6932 10.228L39.094 10.3354C39.2333 10.3727 39.3473 10.4634 39.4151 10.5907C39.4829 10.7179 39.4944 10.8632 39.4476 10.9995L38.8602 12.7129C38.7728 12.9678 38.5 13.113 38.2402 13.0432L38.079 13C38.0789 13 38.0789 13 38.0788 13C37.8184 12.9303 37.6551 12.6684 37.7069 12.404Z" fill="black"/>
</svg>
