<svg width="51" height="49" viewBox="0 0 51 49" fill="none" xmlns="http://www.w3.org/2000/svg">
<circle opacity="0.4" cx="21" cy="21" r="21" fill="#C1EE91"/>
<g clip-path="url(#clip0)">
<path d="M21.565 40.8666L19.3271 28.1744L13.6688 29.1721L16.0417 42.9318L21.565 40.8666Z" fill="#BEBEBE"/>
<path d="M13.6857 29.3138L11.2737 29.739L10.0747 22.9393C9.8699 21.7775 10.5233 20.6348 11.6285 20.2222L13.039 19.6955C13.4374 19.5467 13.673 19.1348 13.5992 18.7159L13.526 18.3009L15.7436 17.9099L15.8168 18.3249C15.8907 18.7437 16.2529 19.0503 16.6782 19.0538L18.1843 19.0663C19.3641 19.076 20.3689 19.9263 20.5738 21.0882L21.7728 27.8878L19.3609 28.3131L13.6857 29.3138Z" fill="#78D2FA"/>
<path d="M13.5978 18.7159L13.5247 18.301L15.7423 17.91L15.8155 18.3249C15.8755 18.6659 16.1268 18.9324 16.4476 19.0217L15.4327 22.0091L13.2638 19.57C13.5203 19.3741 13.6562 19.0475 13.5978 18.7159Z" fill="#FFCDAC"/>
<path d="M13.3878 11.0361C11.8254 11.3116 10.7821 12.8016 11.0575 14.3641L11.1776 15.0451L12.5609 14.8013C13.4804 14.6391 14.2809 14.0782 14.7472 13.2693L16.8359 14.0475L16.7158 13.3664C16.4403 11.8039 14.9503 10.7606 13.3878 11.0361Z" fill="#878791"/>
<path d="M12.5611 14.8011C13.0111 14.7218 13.4322 14.5464 13.8 14.2937L14.7474 13.2691L16.3096 13.8512L16.836 14.0473L16.9232 14.5417C17.1987 16.1042 16.1554 17.5942 14.5929 17.8696C13.0304 18.1451 11.5404 17.1018 11.2649 15.5393L11.1779 15.0451L12.5611 14.8011Z" fill="#FFCDAC"/>
<path d="M37.769 40.8666L40.0071 28.1744L45.6653 29.1721L43.2924 42.9318L37.769 40.8666Z" fill="#BEBEBE"/>
<path d="M45.6497 29.3138L48.0617 29.739L49.2606 22.9393C49.4655 21.7775 48.8121 20.6348 47.7069 20.2222L46.2964 19.6955C45.898 19.5467 45.6624 19.1348 45.7362 18.7159L45.8094 18.3009L43.5918 17.9099L43.5186 18.3249C43.4447 18.7437 43.0825 19.0503 42.6571 19.0538L41.151 19.0663C39.9712 19.076 38.9664 19.9263 38.7615 21.0882L37.5625 27.8878L39.9744 28.3131L45.6497 29.3138Z" fill="#F5B955"/>
<path d="M29.6667 33.6153H27.1132V39.9274H29.6667V33.6153Z" fill="#FFCDAC"/>
<path d="M32.2309 33.6153H29.6774V39.9274H32.2309V33.6153Z" fill="#FFCDAC"/>
<path d="M29.6387 33.6153H33.7664L32.4572 25.7951H26.9448L25.5668 33.6153H29.6945" fill="#78D2FA"/>
<path d="M34.0859 18.8066V13.2167C34.0859 10.7764 32.1075 8.79799 29.6671 8.79799C27.2267 8.79799 25.2483 10.7764 25.2483 13.2168V18.8068L34.0859 18.8066Z" fill="#F5B955"/>
<path d="M31.769 13.5859V14.875C31.769 16.0361 30.8277 16.9774 29.6666 16.9774C28.5055 16.9774 27.5642 16.0362 27.5642 14.875V13.5859H31.769Z" fill="#FFCDAC"/>
<path d="M49.2973 48.0589C38.4557 37.2173 20.878 37.2173 10.0364 48.0589H49.2973Z" fill="#A5DC69"/>
<path d="M32.8845 18.5898L31.4426 18.3232C31.0354 18.2479 30.7398 17.8926 30.7398 17.4784V17.0679H28.603V17.4784C28.603 17.8926 28.3074 18.2479 27.9001 18.3232L26.4583 18.5898C25.3285 18.7987 24.5087 19.7841 24.5087 20.933V27.657H25.631H26.6179L26.946 25.7952H32.4584L32.7701 27.6571H33.7118H34.8342V20.933C34.8341 19.784 34.0143 18.7986 32.8845 18.5898Z" fill="#FF8C8C"/>
<path d="M29.6678 20.6338L31.3767 18.3081C31.0037 18.2087 30.7393 17.8701 30.7393 17.4785V17.0681H28.6025V17.4785C28.6025 17.8721 28.3353 18.212 27.9592 18.3095L29.6678 20.6338Z" fill="#FFCDAC"/>
<path d="M45.7363 18.716L45.8094 18.301L43.5918 17.91L43.5186 18.325C43.4586 18.6659 43.2073 18.9324 42.8865 19.0217L43.9013 22.0092L46.0702 19.5701C45.8137 19.3742 45.6778 19.0475 45.7363 18.716Z" fill="#FFCDAC"/>
<path d="M45.9461 11.0361C47.5086 11.3117 48.5518 12.8016 48.2764 14.3641L48.1563 15.0451L46.773 14.8013C45.8535 14.6391 45.053 14.0782 44.5867 13.2693L42.498 14.0475L42.6181 13.3664C42.8936 11.8039 44.3836 10.7606 45.9461 11.0361Z" fill="#878791"/>
<path d="M46.7737 14.8011C46.3237 14.7218 45.9026 14.5464 45.5348 14.2937L44.5874 13.2691L43.0251 13.8512L42.4987 14.0473L42.4116 14.5417C42.136 16.1042 43.1793 17.5942 44.7419 17.8696C46.3043 18.1451 47.7944 17.1018 48.0698 15.5393L48.157 15.045L46.7737 14.8011Z" fill="#FFCDAC"/>
<path d="M42.5471 13.7672L42.5126 13.9628L42.5471 13.7672Z" fill="#F5C86E"/>
<path d="M48.1812 14.9016L48.2053 14.7648L48.1812 14.9016Z" fill="#F5C86E"/>
<path d="M20.3338 33.89C19.8999 33.9669 19.6104 34.381 19.6873 34.8151L19.693 34.8471C19.7615 35.234 20.0981 35.506 20.4778 35.506C20.524 35.506 20.5709 35.502 20.6179 35.4937C21.0519 35.4168 21.3413 35.0027 21.2644 34.5686L21.2588 34.5366C21.1819 34.1026 20.7675 33.8131 20.3338 33.89Z" fill="black"/>
<path d="M44.0849 43.0291L46.2908 30.2376L47.9219 30.5252C47.968 30.5334 48.0143 30.5373 48.0605 30.5373C48.2231 30.5373 48.3831 30.4876 48.5182 30.393C48.6915 30.2716 48.8096 30.0863 48.8463 29.8779L50.0453 23.0781C50.317 21.5373 49.4505 20.022 47.9848 19.4748L46.5744 18.9481C46.5652 18.9447 46.557 18.9396 46.5498 18.9336C46.5495 18.9333 46.5492 18.9332 46.5489 18.933C46.527 18.9141 46.5156 18.8846 46.5209 18.8547L46.5914 18.4546C46.864 18.3462 47.1254 18.2042 47.3705 18.0295C48.1712 17.459 48.6957 16.578 48.8665 15.6098L48.9911 14.9036C48.9911 14.9033 48.9912 14.903 48.9912 14.9028L49.0507 14.5651C49.2252 13.5755 49.0168 12.5473 48.4324 11.7299C47.8087 10.8574 46.8524 10.3068 45.7672 10.2081C45.0149 10.1396 44.2543 10.3095 43.6024 10.6911C42.6545 11.2459 42.0198 12.1612 41.8317 13.228L41.7611 13.6285C41.7611 13.6286 41.7611 13.6287 41.7611 13.6287L41.6245 14.4034C41.3955 15.7024 41.8835 16.9648 42.8026 17.784L42.7404 18.1479C42.728 18.2206 42.6648 18.2736 42.5911 18.2734L41.1432 18.2686C39.5787 18.2815 38.2462 19.4091 37.9745 20.9499L36.7756 27.7495C36.6991 28.1836 36.9888 28.5974 37.4228 28.6739L39.0574 28.9622L37.0924 40.1061C35.7588 39.7475 34.4022 39.4874 33.0279 39.3262V34.4135H33.7518C33.8838 34.4135 34.0159 34.3868 34.1326 34.3252C34.4514 34.1568 34.6084 33.8148 34.553 33.4838L33.7112 28.4552H34.8326C35.2733 28.4552 35.6306 28.0979 35.6306 27.6572V20.9333C35.6306 20.158 35.3505 19.4388 34.8792 18.8808C34.8814 18.8565 34.8829 18.8319 34.8829 18.8069V13.2962C34.8829 10.4334 32.6097 8.04451 29.7472 8.00086C26.8337 7.95641 24.4494 10.3135 24.4494 13.217V18.807C24.4494 18.8346 24.4509 18.8619 24.4536 18.8888C23.9863 19.4457 23.709 20.1618 23.709 20.9333V27.6574C23.709 28.0981 24.0663 28.4554 24.507 28.4554H25.6294C25.6417 28.4554 25.6536 28.4541 25.6657 28.4535L24.7804 33.4772C24.7258 33.7867 24.8575 34.1072 25.1347 34.2875C25.2687 34.3745 25.4283 34.4137 25.5882 34.4137H26.3146V39.3254C24.9368 39.4864 23.5768 39.7468 22.2399 40.1063L21.8326 37.7959C21.756 37.3619 21.3424 37.0722 20.9082 37.1486C20.4741 37.2251 20.1843 37.639 20.2608 38.073L20.7008 40.5682C20.2916 40.7033 19.8848 40.8475 19.4807 41.0015L17.4459 29.4612L18.7032 29.2395L19.1164 31.5829C19.1847 31.97 19.5214 32.2425 19.9014 32.2425C19.946 32.2425 19.9913 32.2386 20.0368 32.2309C20.4718 32.1565 20.7595 31.7102 20.6828 31.2756L20.275 28.9624L21.9096 28.6742C22.3436 28.5977 22.6334 28.1838 22.5568 27.7498L21.3579 20.9501C21.0862 19.4093 19.7537 18.2817 18.1892 18.2688L16.7316 18.2567C16.6629 18.2562 16.6043 18.2066 16.5924 18.1389L16.5298 17.7842C17.449 16.9649 17.9369 15.7026 17.7079 14.4035L17.5713 13.6289C17.5713 13.6289 17.5713 13.6288 17.5713 13.6287L17.5119 13.2919C17.3401 12.3168 16.8071 11.4324 15.9973 10.8629C15.1931 10.2973 14.2165 10.0798 13.2484 10.2505C12.2805 10.4212 11.4374 10.9593 10.875 11.7657C10.3085 12.5778 10.1102 13.5912 10.282 14.5663L10.3414 14.9029C10.3414 14.9032 10.3415 14.9034 10.3415 14.9037L10.4781 15.6783C10.7071 16.9771 11.5971 17.996 12.7406 18.4517L12.8117 18.855C12.8184 18.8929 12.7931 18.9353 12.7582 18.9484L11.3478 19.4751C9.88217 20.0224 9.01556 21.5378 9.28727 23.0784L10.4863 29.8782C10.523 30.0866 10.6411 30.2719 10.8144 30.3933C10.9494 30.4879 11.1095 30.5376 11.2721 30.5376C11.3182 30.5376 11.3646 30.5337 11.4107 30.5255L13.0417 30.2379L15.2476 43.0294C13.1521 44.2555 11.2184 45.7483 9.47153 47.4952C9.15991 47.8068 9.15991 48.3121 9.47153 48.6238C9.78314 48.9353 10.2884 48.9353 10.6001 48.6238C15.6929 43.531 22.464 40.7263 29.6664 40.7263C36.8687 40.7263 43.6398 43.531 48.7326 48.6238C48.8885 48.7796 49.0927 48.8575 49.2969 48.8575C49.5011 48.8575 49.7054 48.7796 49.8611 48.6238C50.1727 48.3122 50.1727 47.8069 49.8611 47.4952C48.1142 45.748 46.1805 44.2552 44.0849 43.0291ZM41.3616 41.6284L43.4582 29.7381L44.7191 29.9605L42.6047 42.2217C42.1959 42.0142 41.7815 41.8165 41.3616 41.6284ZM44.8792 17.084C43.7526 16.8854 42.9976 15.8071 43.1962 14.6804L43.2041 14.6358L44.2885 14.2318C44.8813 14.9411 45.7073 15.4238 46.6341 15.5872L47.2103 15.6888C46.8939 16.6528 45.9072 17.2655 44.8792 17.084ZM45.807 11.8222C46.3528 11.9184 46.8284 12.2214 47.1463 12.6754C47.4438 13.1002 47.5698 13.6096 47.5059 14.1204L46.9111 14.0156C46.2223 13.8941 45.6268 13.4768 45.2775 12.8708C45.1315 12.6176 44.8644 12.4713 44.5859 12.4713C44.493 12.4713 44.3989 12.4876 44.3075 12.5216L43.698 12.7488C44.1364 12.0644 44.958 11.6724 45.807 11.8222ZM44.6021 18.6558C44.7125 18.6753 44.823 18.6895 44.9333 18.699C44.9026 18.9991 44.9533 19.2936 45.0714 19.5566L44.2649 20.4635L43.8757 19.3177C44.0654 19.1146 44.2061 18.8642 44.2769 18.5824C44.3833 18.6112 44.4915 18.6362 44.6021 18.6558ZM39.5462 21.227C39.6843 20.4441 40.3614 19.8711 41.1565 19.8645L42.3725 19.8545L43.1946 22.2748C43.286 22.5439 43.5135 22.744 43.7919 22.8003C43.8446 22.811 43.8977 22.8162 43.9502 22.8162C44.1756 22.8162 44.3935 22.7206 44.5465 22.5485L46.318 20.5562L47.4264 20.9701C48.1711 21.2482 48.6115 22.0182 48.4734 22.8011L47.4131 28.8149L46.5728 28.6668L47.3009 24.5378C47.3775 24.1038 47.0876 23.6899 46.6536 23.6134C46.2197 23.537 45.8057 23.8266 45.7292 24.2607L45.0011 28.3899L42.9502 28.0282C42.95 28.0281 42.9496 28.028 42.9494 28.028C42.9492 28.028 42.9488 28.028 42.9486 28.028L40.8977 27.6663L41.6258 23.5372C41.7023 23.1032 41.4125 22.6893 40.9785 22.6128C40.5445 22.5362 40.1306 22.8261 40.0541 23.2601L39.326 27.3892L38.4858 27.241L39.5462 21.227ZM40.6291 29.2393L41.8865 29.461L39.8516 41.0014C39.4475 40.8473 39.0407 40.7032 38.6316 40.568L40.6291 29.2393ZM26.5174 32.8176L27.6143 26.5933H31.7814L32.8235 32.8176H32.23H29.6764H29.6663H29.6384H27.1127H26.5174ZM31.432 39.13H30.4744V34.4136H31.432V39.13ZM29.6663 9.59621C31.6628 9.59621 33.2871 11.2204 33.2871 13.217V17.8648C33.2023 17.8418 33.116 17.8217 33.0281 17.8054L31.5863 17.5388C31.5574 17.5334 31.5364 17.5081 31.5364 17.4787V17.0897C32.1659 16.5573 32.5667 15.7624 32.5667 14.8752V13.5862C32.5667 13.1454 32.2094 12.7882 31.7687 12.7882H27.564C27.1233 12.7882 26.766 13.1454 26.766 13.5862V14.8752C26.766 15.7659 27.1699 16.5636 27.8036 17.096V17.4787C27.8036 17.5081 27.7826 17.5334 27.7536 17.5388L26.3119 17.8054C26.2215 17.8221 26.1328 17.8427 26.0456 17.8667V13.217C26.0456 11.2205 27.6698 9.59621 29.6663 9.59621ZM30.9707 14.8752C30.9707 15.5945 30.3855 16.1796 29.6663 16.1796C28.9471 16.1796 28.3619 15.5945 28.3619 14.8752V14.3842H30.9706V14.8752H30.9707ZM29.375 17.7609C29.4709 17.7705 29.568 17.7755 29.6663 17.7755C29.7671 17.7755 29.8667 17.7703 29.9648 17.7602C30.0096 18.0206 30.116 18.2612 30.2689 18.4667L29.6665 19.2865L29.0673 18.4715C29.222 18.2651 29.3299 18.0231 29.375 17.7609ZM25.6296 26.8594H25.3052V20.9333C25.3052 20.1691 25.8505 19.5136 26.6019 19.3748L27.6131 19.1878L29.0237 21.1067C29.174 21.3112 29.4128 21.4321 29.6667 21.432C29.9206 21.4319 30.1593 21.3111 30.3097 21.1065L31.7205 19.1866L32.738 19.3748C33.4894 19.5137 34.0347 20.1692 34.0347 20.9333V26.8594H33.7103C33.6196 26.8594 33.5328 26.8753 33.4516 26.9031L33.255 25.729V22.8117C33.255 22.3709 32.8978 22.0137 32.457 22.0137C32.0163 22.0137 31.659 22.3709 31.659 22.8117V24.9974H27.7536V22.8117C27.7536 22.3709 27.3963 22.0137 26.9556 22.0137C26.5149 22.0137 26.1576 22.3709 26.1576 22.8117V25.664L25.9362 26.9206C25.8417 26.8813 25.7382 26.8594 25.6296 26.8594ZM28.8683 34.4136V39.13H27.9107V34.4136H28.8683ZM15.4359 19.2947L14.9833 20.4626L14.2513 19.5796C14.3769 19.3107 14.431 19.0076 14.3993 18.6987C14.5093 18.6894 14.6198 18.6753 14.7305 18.6557C14.8411 18.6362 14.9493 18.6112 15.0557 18.5824C15.1239 18.8536 15.2569 19.0958 15.4359 19.2947ZM12.1863 12.6754C12.5041 12.2214 12.9797 11.9184 13.5256 11.8222C13.6469 11.8008 13.7677 11.7904 13.8869 11.7904C14.6017 11.7904 15.2589 12.1622 15.6345 12.7488L15.025 12.5216C14.66 12.3856 14.2497 12.5333 14.055 12.8708C13.7057 13.4768 13.1104 13.8941 12.4215 14.0156L11.8268 14.1204C11.7629 13.6095 11.8889 13.1002 12.1863 12.6754ZM12.1225 15.6889L12.6987 15.5873C13.6254 15.4239 14.4513 14.9412 15.0441 14.2319L16.1285 14.6359L16.1364 14.6805C16.335 15.8072 15.5801 16.8855 14.4535 17.0841C13.4258 17.2649 12.4388 16.6528 12.1225 15.6889ZM10.8591 22.801C10.721 22.0181 11.1614 21.2482 11.9061 20.9701L12.9941 20.5638L14.6218 22.5275C14.7747 22.7121 15.0008 22.8162 15.2361 22.8162C15.2786 22.8162 15.3214 22.8129 15.3642 22.8059C15.6435 22.7605 15.878 22.5705 15.9802 22.3066L16.9306 19.8542L18.1761 19.8645C18.9711 19.8711 19.6483 20.4442 19.7864 21.227L20.8467 27.2408L20.0065 27.389L19.2784 23.26C19.202 22.8259 18.788 22.5363 18.354 22.6126C17.92 22.6892 17.6302 23.1031 17.7067 23.537L18.4348 27.6662L16.3839 28.0278C16.3836 28.0278 16.3833 28.0279 16.3831 28.0279C16.3828 28.0279 16.3825 28.028 16.3823 28.028L14.3314 28.3897L13.6033 24.2606C13.5268 23.8265 13.1131 23.5368 12.6789 23.6132C12.2449 23.6898 11.955 24.1037 12.0316 24.5376L12.7597 28.6667L11.9194 28.8148L10.8591 22.801ZM14.6135 29.9605L15.8744 29.7381L17.9709 41.6284C17.5511 41.8165 17.1367 42.0142 16.7279 42.2218L14.6135 29.9605Z" fill="black"/>
<path d="M29.6695 42.3216C29.6685 42.3216 29.6676 42.3215 29.6667 42.3215C29.16 42.3215 28.8554 42.7251 28.8538 43.116C28.8521 43.5077 29.154 43.9147 29.6624 43.9176C29.664 43.9176 29.6656 43.9176 29.6672 43.9176C30.1755 43.9176 30.48 43.5125 30.4805 43.1208C30.481 42.729 30.1779 42.323 29.6695 42.3216Z" fill="black"/>
<path d="M41.1346 45.0476C38.7337 43.8285 36.1599 43.0068 33.4849 42.6053C33.0484 42.5401 32.6427 42.8403 32.5773 43.276C32.5119 43.7119 32.8122 44.1182 33.248 44.1837C35.7536 44.5597 38.164 45.3291 40.412 46.4706C40.5278 46.5294 40.6512 46.5572 40.7727 46.5572C41.0637 46.5572 41.3441 46.3976 41.4848 46.1203C41.6844 45.7274 41.5276 45.2471 41.1346 45.0476Z" fill="black"/>
</g>
<defs>
<clipPath id="clip0">
<rect width="40.8571" height="40.8571" fill="white" transform="translate(9.23828 8)"/>
</clipPath>
</defs>
</svg>
