<svg width="66" height="66" viewBox="0 0 66 66" fill="none" xmlns="http://www.w3.org/2000/svg">
<g clip-path="url(#clip0)">
<path d="M40.0753 21.67C40.0753 15.1654 34.8022 9.89246 28.2977 9.89246C21.7931 9.89246 16.5201 15.1655 16.5201 21.67C16.5201 23.1644 16.8013 24.5924 17.3091 25.9078C12.8136 27.5664 9.60777 31.8887 9.60777 36.9602C9.60777 39.3693 10.3325 41.6086 11.5739 43.4745C8.50641 45.0115 6.39941 48.1821 6.39941 51.8467C6.39941 57.0167 10.5904 61.2076 15.7603 61.2076C20.9303 61.2076 25.1212 57.0167 25.1212 51.8467C25.1212 50.6048 24.8772 49.4204 24.438 48.336C29.4623 46.991 33.1629 42.4087 33.1629 36.9602C33.1629 35.4658 32.8817 34.0378 32.3741 32.7224C36.8695 31.0637 40.0753 26.7415 40.0753 21.67Z" fill="#FEAEE1"/>
<path d="M9.91107 53.1472C9.91107 50.7913 10.782 48.6394 12.219 46.9947C13.5573 45.463 14.0916 43.3751 13.5473 41.4152C13.2685 40.4112 13.1194 39.3535 13.1194 38.2607C13.1194 34.457 14.9227 31.0748 17.7209 28.9218C19.3072 27.7011 20.1993 25.7894 20.0604 23.7927C20.0426 23.5364 20.033 23.2779 20.0319 23.0174C20.0064 16.5272 25.3192 11.1928 31.8095 11.193C32.5906 11.193 33.3538 11.2698 34.0924 11.4149C32.3749 10.4421 30.389 9.88807 28.2731 9.89236C22.0554 9.9051 16.8665 14.8262 16.537 21.0352C16.4455 22.7602 16.7299 24.4072 17.3091 25.9077C12.8136 27.5663 9.60777 31.8886 9.60777 36.9601C9.60777 39.3692 10.3326 41.6085 11.5739 43.4744C8.50641 45.0114 6.39941 48.182 6.39941 51.8466C6.39941 56.5319 9.84162 60.4132 14.335 61.0997C11.6796 59.4477 9.91107 56.5046 9.91107 53.1472Z" fill="#FE93D3"/>
<path d="M29.6836 11.5468C29.6836 11.5468 34.3214 3.85318 39.5343 7.52286C44.7472 11.1925 48.8706 9.47677 49.1884 6.44348C49.1884 6.44348 56.522 16.2409 46.0903 19.9449C46.0902 19.9449 32.1627 17.3109 29.6836 11.5468Z" fill="#FEAEE1"/>
<path d="M35.6326 7.52285C38.6336 9.63544 41.2733 9.96293 43.0339 9.28193C41.9534 8.9638 40.7748 8.39609 39.5344 7.52285C37.7837 6.29039 36.0981 6.3406 34.6309 6.94967C34.9617 7.09703 35.2959 7.28588 35.6326 7.52285Z" fill="#FE93D3"/>
<path d="M49.1889 6.44348C49.0522 7.74878 48.2102 8.80956 46.8804 9.30275C48.1347 12.2571 48.8935 16.7895 43.5771 19.3674C45.0895 19.7554 46.0907 19.9449 46.0907 19.9449C56.5225 16.2409 49.1889 6.44348 49.1889 6.44348Z" fill="#FE93D3"/>
<path d="M36.2002 14.6346L46.5684 1.23394C47.1113 0.630588 48.1041 1.16488 47.8805 1.94018L42.315 20.7002L36.8097 18.5493L36.2002 14.6346Z" fill="#FBC56D"/>
<path d="M59.8252 33.4029C56.5374 29.9563 43.3696 18.134 43.3696 18.134C42.1356 16.7108 39.4708 14.8822 36.3288 14.3749C35.5025 10.6496 33.586 5.38014 29.2546 4.00305C29.2546 4.00305 25.4355 8.54778 27.8646 17.012C26.9711 17.8304 26.1024 18.8562 25.2784 20.1282C19.031 29.7714 15.4136 59.1017 15.1787 65.0246H42.7449C42.7148 56.7268 39.8294 45.9027 37.5508 40.4882C39.0727 40.7218 40.6728 40.5881 42.2218 40.0252C42.5562 39.9037 42.8786 39.7639 43.1904 39.6101C44.8348 40.585 46.7902 41.7478 49.1142 43.1338C56.6359 47.6203 63.1534 36.8917 59.8252 33.4029Z" fill="#FFF9F0"/>
<path d="M59.8259 33.4029C56.5381 29.9563 43.3703 18.134 43.3703 18.134C42.1363 16.7108 39.4714 14.8822 36.3294 14.3749C35.5031 10.6496 33.5867 5.38014 29.2553 4.00305C29.2553 4.00305 28.4835 4.92207 27.8545 6.70234C30.4681 8.90415 31.7813 12.762 32.4276 15.6755C35.5696 16.1826 38.2346 18.0113 39.4684 19.4346C39.4684 19.4346 52.6362 31.2569 55.9241 34.7035C57.9943 36.8736 56.2546 41.8441 52.8338 44.2124C58.5742 44.1688 62.5861 36.2964 59.8259 33.4029Z" fill="#FFEFE1"/>
<path d="M35.3054 46.3818C37.0002 51.7483 38.5908 58.9267 38.8159 65.0246H42.745C42.7165 57.194 40.1453 47.1144 37.9409 41.4537C37.9266 41.4583 37.9123 41.4627 37.898 41.4673C35.8195 42.1154 34.6497 44.3056 35.3054 46.3818Z" fill="#FFEFE1"/>
<path d="M37.4894 35.2902C39.1534 35.2902 40.5023 33.9412 40.5023 32.2773C40.5023 30.6133 39.1534 29.2644 37.4894 29.2644C35.8255 29.2644 34.4766 30.6133 34.4766 32.2773C34.4766 33.9412 35.8255 35.2902 37.4894 35.2902Z" fill="#D9B1EE"/>
<path d="M16.9993 47.3479C16.9993 47.3479 26.0141 52.6883 22.5967 61.2832C22.5967 61.2832 21.2604 59.4556 14.6873 61.0209L11.5771 51.5545L16.9993 47.3479Z" fill="#FEAEE1"/>
<path d="M56.1005 37.2411C56.6392 37.2411 57.0759 36.8044 57.0759 36.2656C57.0759 35.7269 56.6392 35.2902 56.1005 35.2902C55.5617 35.2902 55.125 35.7269 55.125 36.2656C55.125 36.8044 55.5617 37.2411 56.1005 37.2411Z" fill="black"/>
<path d="M55.989 28.3403C55.5882 27.9656 54.9553 27.9941 54.5901 28.409C54.2373 28.8098 54.297 29.4292 54.6871 29.7938C56.8241 31.7922 58.3155 33.2329 59.12 34.0762C60.2929 35.3058 59.7656 38.163 57.9446 40.4455C57.0798 41.5294 53.9234 44.8664 49.6144 42.2961C48.003 41.335 46.4884 40.4333 45.0921 39.6039C45.3281 39.4341 45.558 39.255 45.7801 39.0653C46.1575 38.7427 46.2529 38.1789 45.9756 37.7671C45.6429 37.2733 44.9667 37.1923 44.5284 37.5687C43.9845 38.0357 43.3857 38.4277 42.7425 38.7432C42.6502 38.7886 42.5576 38.8316 42.4651 38.8733C42.4113 38.8974 42.3577 38.9217 42.3033 38.9447C42.2645 38.9612 42.2259 38.9768 42.1872 38.9926C42.0886 39.0325 41.9897 39.0719 41.8893 39.1083C39.7523 39.8848 37.4411 39.7827 35.381 38.8208C33.3334 37.8645 31.7777 36.1727 30.9965 34.0537C30.8168 33.5663 30.3019 33.2677 29.8019 33.4093C29.2503 33.5655 28.9565 34.1527 29.1488 34.6817C30.1032 37.3083 32.0234 39.406 34.5555 40.5884C35.2994 40.9358 36.07 41.191 36.8539 41.3553C38.0079 44.1807 39.1835 48.0855 40.0993 52.1513C40.2015 52.6047 40.6039 52.9126 41.05 52.9126C41.1321 52.9126 41.2157 52.9022 41.2992 52.8804C41.8126 52.7463 42.1119 52.2069 41.9951 51.6893C41.1683 48.0251 40.1313 44.4761 39.0809 41.6889C40.1633 41.6414 41.3124 41.3936 42.5555 40.9421C42.6779 40.8976 42.801 40.8489 42.9243 40.7986C42.9946 40.7701 43.0643 40.7406 43.1339 40.7108C43.1343 40.7108 43.1345 40.7108 43.1349 40.7109C44.7866 41.6908 46.6275 42.7861 48.6149 43.9717C50.6216 45.1687 52.7697 45.4895 54.8267 44.899C56.5501 44.4044 58.199 43.2548 59.4696 41.6622C61.5854 39.0103 62.6765 34.9784 60.5315 32.7297C59.6977 31.8554 58.1694 30.3787 55.989 28.3403Z" fill="black"/>
<path d="M41.6319 54.8676C41.108 54.9757 40.7845 55.5069 40.8765 56.0339C41.3884 58.9671 41.6824 61.6577 41.7531 64.049H16.2115C16.2586 63.3736 16.3286 62.5588 16.4174 61.6542C20.3735 60.9416 21.6338 61.7428 21.8275 61.8927C21.9962 62.1866 22.2793 62.3209 22.6169 62.3209C22.6424 62.3209 22.6684 62.3201 22.6945 62.3186C23.034 62.2988 23.3281 62.0734 23.4567 61.7585C25.0444 57.8716 24.4899 53.9768 21.8567 50.5033C20.6469 48.9074 19.2702 47.7604 18.3921 47.1152C18.4106 47.063 18.4253 47.0088 18.4349 46.9523C20.6016 34.2792 23.3229 24.941 26.0973 20.6582C26.8425 19.5081 27.6588 18.5233 28.5239 17.7309C28.7996 17.4784 28.9016 17.0884 28.7986 16.729C28.0546 14.131 27.9256 11.9414 28.088 10.1681C28.1065 10.0884 28.1147 10.0054 28.1122 9.92038C28.3704 7.55456 29.1447 5.96703 29.6195 5.18719C33.1559 6.80255 34.7369 11.7014 35.3767 14.5866C35.4629 14.9752 35.7755 15.2736 36.1685 15.3368C38.9513 15.7845 41.4704 17.4321 42.6328 18.7726C42.6595 18.8033 42.688 18.8323 42.7181 18.8594C42.7644 18.901 47.4009 23.0649 51.8024 27.1186C52.2058 27.4904 52.8387 27.4572 53.2008 27.0396C53.5507 26.6361 53.4872 26.0179 53.0944 25.6562C51.0967 23.8165 49.0543 21.9574 47.4136 20.4703C50.0398 19.3252 51.7021 17.648 52.3594 15.4731C53.7264 10.9505 50.1236 6.06419 49.9696 5.85843C49.6624 5.44809 49.0744 5.33155 48.6182 5.64968C48.3836 5.8133 48.2482 6.08136 48.2158 6.36554C48.1289 7.12601 47.7196 7.7425 47.0607 8.13958L48.8181 2.21008C49.0457 1.42048 48.7149 0.621514 47.9947 0.221836C47.2768 -0.176542 46.3922 -0.0287925 45.8435 0.581195C45.8274 0.599143 45.8119 0.617612 45.7972 0.636731L40.7504 7.15944C40.5327 7.02339 40.3134 6.87811 40.0961 6.72503C38.1614 5.36316 36.0185 5.18979 33.8819 6.21636C32.4481 4.39368 30.8854 3.49782 29.5503 3.0733C29.1737 2.95364 28.7623 3.07291 28.508 3.3753C28.4016 3.50185 26.806 5.45446 26.2591 9.0794C22.7163 9.64621 19.5979 11.6648 17.6128 14.7052C17.3333 15.1334 17.4053 15.7179 17.808 16.033C17.9892 16.1748 18.201 16.242 18.4104 16.242C18.7297 16.242 19.0427 16.0853 19.2296 15.7975C20.8197 13.3475 23.2751 11.6763 26.083 11.0948C26.0396 12.7218 26.2193 14.5959 26.7705 16.7091C25.9465 17.5309 25.171 18.5001 24.4599 19.5977C20.812 25.2283 18.2017 36.9068 16.625 45.968C16.1648 45.736 15.5663 45.5023 14.8714 45.3874C14.377 45.3058 13.8799 45.6005 13.7472 46.0837C13.5905 46.6544 13.9653 47.2184 14.5333 47.309C15.5945 47.4783 16.3755 48.0983 16.3792 48.1012C16.4178 48.1329 16.4587 48.1617 16.5017 48.1871C16.5226 48.1995 18.6104 49.4506 20.3018 51.6818C22.2555 54.2589 22.8441 56.9953 22.0585 59.8306C20.8176 59.3703 18.5357 59.1016 14.461 60.0719C14.4606 60.072 14.4601 60.0721 14.4597 60.0721C14.3724 60.0931 14.2822 60.1017 14.194 60.0852C10.2671 59.3464 7.37475 55.9051 7.37475 51.8464C7.37475 48.6571 9.1467 45.7865 11.9999 44.3518C12.1185 44.2921 12.2285 44.2136 12.314 44.1119C12.6089 43.7605 12.6192 43.2845 12.3859 42.934C11.2065 41.1612 10.5831 39.0955 10.5831 36.96C10.5831 32.4553 13.4217 28.3815 17.6467 26.8228C18.0188 26.6855 18.2838 26.3302 18.2857 25.9024C18.2862 25.7793 18.258 25.6575 18.2138 25.5426C17.7373 24.3028 17.4956 23 17.4956 21.6699C17.4956 20.7598 17.6088 19.8561 17.8321 18.9834C17.9638 18.4685 17.6878 17.9175 17.1788 17.7649C16.6464 17.6053 16.0926 17.9206 15.954 18.4537C15.6824 19.4987 15.5447 20.5807 15.5447 21.6699C15.5447 22.9265 15.7274 24.1627 16.0887 25.3566C11.592 27.4136 8.63218 31.9623 8.63218 36.96C8.63218 39.1305 9.17779 41.2402 10.2184 43.1211C7.23675 45.0087 5.42383 48.2644 5.42383 51.8465C5.42383 57.0482 9.27937 61.4263 14.4155 62.0937C14.3052 63.2809 14.2329 64.2665 14.2044 64.9781C14.1995 65.1028 14.214 65.2279 14.2563 65.3452C14.4029 65.7528 14.7778 65.9998 15.1788 65.9998H42.7311C42.8531 65.9998 42.9758 65.9821 43.0896 65.938C43.4852 65.7847 43.7219 65.4145 43.7205 65.0208C43.7105 62.2719 43.3977 59.1206 42.7907 55.6545C42.696 55.1141 42.1736 54.7559 41.6319 54.8676ZM38.0898 13.7866L40.8488 10.2207C41.2936 11.3599 42.1386 12.48 43.6077 12.9247L42.6536 16.1439C41.4418 15.2011 39.855 14.3189 38.0898 13.7866ZM46.7542 10.3669C47.8652 10.0653 48.7714 9.44266 49.3728 8.61157C50.2026 10.1882 51.1666 12.687 50.4902 14.9151C49.9436 16.7153 48.3655 18.0933 45.8011 19.0118C45.0716 18.3529 44.5261 17.8618 44.2421 17.6063C44.2638 17.5608 44.2828 17.5134 44.2976 17.4634L46.3926 10.3945C46.5105 10.4075 46.6327 10.3998 46.7542 10.3669ZM46.6197 2.76193L44.1626 11.0524C43.5245 10.8516 43.0562 10.4007 42.7419 9.68432C42.4862 9.10164 42.4084 8.51142 42.385 8.23504L46.6197 2.76193ZM38.973 8.32049C39.1649 8.4555 39.3583 8.58504 39.5515 8.70925L36.7973 12.269C36.2797 10.493 35.6588 9.04493 34.9816 7.86177C36.3847 7.27077 37.6949 7.42073 38.973 8.32049Z" fill="black"/>
<path d="M38.076 23.9979C38.076 23.6776 38.3573 23.4217 38.686 23.4645C38.9595 23.5002 39.1447 23.7501 39.1524 24.0259C39.1676 24.5642 39.6188 24.9933 40.1653 24.9726C40.7156 24.9518 41.121 24.4579 41.1012 23.9075C41.0535 22.5767 39.956 21.5089 38.6139 21.5089C37.2712 21.5089 36.1733 22.5778 36.1266 23.9095C36.108 24.4408 36.4838 24.9237 37.0134 24.9696C37.5913 25.0198 38.076 24.5655 38.076 23.9979Z" fill="black"/>
<path d="M33.524 31.844C33.2549 34.3823 35.384 36.5115 37.9223 36.2425C39.7717 36.0465 41.2586 34.5598 41.4546 32.7103C41.7237 30.1721 39.5945 28.0428 37.0562 28.3118C35.2069 28.5079 33.72 29.9947 33.524 31.844ZM37.2238 30.2567C38.5546 30.0877 39.679 31.212 39.5098 32.5428C39.3944 33.45 38.6619 34.1825 37.7547 34.2977C36.424 34.4668 35.2997 33.3424 35.4689 32.0117C35.5842 31.1045 36.3167 30.372 37.2238 30.2567Z" fill="black"/>
<path d="M60.1129 18.6765C60.1938 18.6969 60.2747 18.7067 60.3542 18.7067C60.8085 18.7067 61.2152 18.3875 61.3091 17.9251L61.3813 17.5694C61.48 17.0834 61.2187 16.5794 60.749 16.4204C60.1808 16.2282 59.5915 16.5802 59.4759 17.1491L59.4045 17.501C59.2996 18.0173 59.6023 18.5472 60.1129 18.6765Z" fill="black"/>
<path d="M62.2499 18.8626L61.9334 18.7983C61.4099 18.6921 60.8716 19.0028 60.7497 19.5229C60.6236 20.061 60.9676 20.5929 61.5053 20.7022L61.8931 20.7809C61.9586 20.7941 62.0238 20.8005 62.0882 20.8005C62.5758 20.8005 63.0086 20.433 63.0586 19.9151C63.1071 19.4133 62.744 18.9629 62.2499 18.8626Z" fill="black"/>
<path d="M58.7274 20.8976L58.6554 21.2522C58.5508 21.7673 58.8531 22.2949 59.3624 22.4245C59.4439 22.4452 59.5255 22.4552 59.6056 22.4552C60.0599 22.4552 60.4666 22.136 60.5605 21.6736L60.6311 21.3256C60.7374 20.8025 60.4271 20.2644 59.9075 20.1423C59.3695 20.0159 58.8367 20.3596 58.7274 20.8976Z" fill="black"/>
<path d="M57.7966 19.9619L58.1444 20.0325C58.21 20.0458 58.2751 20.0521 58.3395 20.0521C58.8271 20.0521 59.2599 19.6846 59.3099 19.1667C59.3583 18.6648 58.9953 18.2145 58.5012 18.1142L58.1447 18.0418C57.6066 17.9327 57.0827 18.2885 56.9891 18.8332C56.8987 19.3597 57.2733 19.8556 57.7966 19.9619Z" fill="black"/>
<path d="M6.0758 17.0554C6.1567 17.0758 6.2376 17.0856 6.31707 17.0856C6.77137 17.0856 7.17807 16.7665 7.27198 16.304L7.34416 15.9485C7.44288 15.4625 7.18184 14.9587 6.71219 14.7995C6.14408 14.607 5.55439 14.9588 5.43876 15.528L5.36736 15.8799C5.26253 16.3963 5.56505 16.9261 6.0758 17.0554Z" fill="black"/>
<path d="M6.70004 17.9607C6.60952 18.487 6.9841 18.983 7.50733 19.0892L7.85538 19.1598C7.92093 19.1731 7.98609 19.1795 8.05047 19.1795C8.53807 19.1795 8.97091 18.8119 9.02086 18.294C9.06924 17.7921 8.70624 17.3418 8.21214 17.2416L7.85564 17.1691C7.31757 17.0599 6.79369 17.416 6.70004 17.9607Z" fill="black"/>
<path d="M6.52353 20.0524L6.59571 19.6967C6.69443 19.2107 6.43314 18.7067 5.96335 18.5478C5.39512 18.3555 4.80581 18.7075 4.69031 19.2765L4.61826 19.6312C4.51369 20.1462 4.81595 20.6739 5.32527 20.8034C5.40682 20.8241 5.48837 20.8341 5.56849 20.8341C6.02292 20.8341 6.42962 20.5149 6.52353 20.0524Z" fill="black"/>
<path d="M5.27245 17.5457C5.32097 17.0439 4.9581 16.5935 4.46399 16.4932L4.14729 16.429C3.62393 16.3227 3.08547 16.6333 2.96361 17.1534C2.83745 17.6915 3.18133 18.2237 3.71913 18.3328L4.10698 18.4115C4.1724 18.4248 4.23769 18.4311 4.30207 18.4311C4.78954 18.4311 5.22238 18.0636 5.27245 17.5457Z" fill="black"/>
</g>
<defs>
<clipPath id="clip0">
<rect width="66" height="66" fill="white"/>
</clipPath>
</defs>
</svg>
