<svg width="76" height="46" viewBox="0 0 76 46" fill="none" xmlns="http://www.w3.org/2000/svg">
<g clip-path="url(#clip0)">
<path d="M17.0098 21.0095C17.0098 32.6074 26.4118 42.0095 38.0098 42.0095V0.00946045C26.4118 0.00946045 17.0098 9.41148 17.0098 21.0095Z" fill="#FFDFF3"/>
<path d="M59.0098 21.0094C59.0098 9.41145 49.6077 0.00943075 38.0098 0.00943177L38.0098 42.0094C49.6077 42.0094 59.0098 32.6074 59.0098 21.0094Z" fill="#DCC2AD"/>
<path d="M22.9806 11.0324C23.3163 7.40335 20.6506 4.18576 17.0267 3.84562C13.4027 3.50548 10.1927 6.17166 9.85705 9.8006C9.77993 10.6343 9.8629 11.4457 10.0779 12.2062C7.48771 12.8964 5.47851 15.1403 5.21678 17.9697C5.09245 19.3138 5.38065 20.601 5.97601 21.707C4.18766 22.404 2.85013 24.0628 2.66101 26.1073C2.3942 28.9917 4.51288 31.549 7.39328 31.8194C10.2737 32.0897 12.8249 29.9707 13.0917 27.0863C13.1558 26.3934 13.081 25.7199 12.8923 25.0919C15.7609 24.6043 18.0592 22.2413 18.3404 19.2015C18.4175 18.3677 18.3345 17.5563 18.1196 16.7959C20.7098 16.1056 22.7189 13.8618 22.9806 11.0324V11.0324Z" fill="#FEAEE1"/>
<path d="M4.55066 27.018C4.67227 25.7035 5.26862 24.5484 6.15425 23.7058C6.97905 22.9212 7.38454 21.7842 7.18241 20.6622C7.07885 20.0875 7.0504 19.4895 7.10681 18.8798C7.30314 16.7576 8.48255 14.9648 10.1528 13.9098C11.0998 13.3117 11.6955 12.2917 11.7212 11.1704C11.7245 11.0265 11.7325 10.8817 11.7454 10.7363C12.0662 7.1138 15.3018 4.41534 18.9183 4.7548C19.3536 4.79565 19.7749 4.87845 20.1789 4.99798C19.2721 4.36544 18.1941 3.95245 17.0149 3.84421C13.5497 3.52618 10.4044 6.00058 9.90028 9.44764C9.76022 10.4053 9.83371 11.3391 10.079 12.2066C7.48845 12.8969 5.47899 15.1409 5.21721 17.9705C5.09285 19.3147 5.38115 20.602 5.9765 21.708C4.18793 22.4051 2.85022 24.064 2.66107 26.1086C2.41922 28.7228 4.13691 31.0684 6.60522 31.6863C5.21092 30.6257 4.37736 28.8912 4.55066 27.018V27.018Z" fill="#FE93D3"/>
<path d="M17.7151 4.83239C17.7151 4.83239 20.6944 0.784546 23.4084 3.10382C26.1224 5.4231 28.5071 4.68204 28.8404 3.00708C28.8404 3.00708 32.4197 8.85461 26.4194 10.3743C26.4193 10.3743 18.7987 8.17659 17.7151 4.83239V4.83239Z" fill="#FEAEE1"/>
<path d="M21.2387 2.89781C22.8004 4.23219 24.2533 4.55235 25.2689 4.26434C24.6837 4.03066 24.0568 3.65267 23.4113 3.10112C22.5002 2.32265 21.559 2.26282 20.7105 2.526C20.8872 2.62541 21.0634 2.74813 21.2387 2.89781V2.89781Z" fill="#FE93D3"/>
<path d="M28.8391 3.00257C28.6956 3.72368 28.1718 4.27145 27.4055 4.477C27.9521 6.191 28.1412 8.75949 25.0462 9.91948C25.8688 10.2151 26.4169 10.3733 26.4169 10.3733C32.4201 8.85282 28.8391 3.00257 28.8391 3.00257V3.00257Z" fill="#FE93D3"/>
<path d="M21.1843 6.89448L27.6529 -0.039954C27.9865 -0.348196 28.5121 0.0018162 28.3475 0.422686L24.2783 10.5985L21.3219 9.1105L21.1843 6.89448Z" fill="#FBC56D"/>
<path d="M33.372 18.6066C31.7182 16.5118 24.9924 9.22773 24.9924 9.22773C24.3784 8.36925 22.9881 7.20972 21.2639 6.76243C20.9958 4.6409 20.2001 1.60094 17.8581 0.606177C17.8581 0.606177 15.4959 2.94191 16.4124 7.79104C15.8724 8.20086 15.3355 8.72771 14.8108 9.39425C10.8328 14.4474 7.30401 30.6212 6.86752 33.9132L22.2247 35.3547C22.6361 30.7239 21.5872 24.5344 20.5972 21.3946C21.433 21.6045 22.3313 21.6136 23.2233 21.3806C23.4159 21.3303 23.6027 21.2691 23.7843 21.1996C24.6501 21.8295 25.6795 22.5804 26.9027 23.4752C30.8615 26.3715 35.046 20.7269 33.372 18.6066V18.6066Z" fill="#FFF9F0"/>
<path d="M33.3726 18.6023C31.7189 16.5076 24.9934 9.2238 24.9934 9.2238C24.3794 8.36535 22.9893 7.20586 21.2651 6.75858C20.997 4.63713 20.2013 1.59727 17.8594 0.602545C17.8594 0.602545 17.3821 1.07487 16.9398 2.03514C18.2822 3.40013 18.8147 5.62098 19.0244 7.28012C20.7485 7.72732 22.1388 8.88683 22.7527 9.74534C22.7527 9.74534 29.4781 17.0292 31.1319 19.1239C32.1731 20.4427 30.9475 23.1247 28.9197 24.267C32.1198 24.5428 34.7609 20.3608 33.3726 18.6023V18.6023Z" fill="#FFEFE1"/>
<path d="M19.0375 24.5682C19.705 27.6514 20.2209 31.7402 20.0313 35.1547L22.2215 35.3601C22.6101 30.989 21.6975 25.23 20.7612 21.9561C20.753 21.9579 20.7448 21.9596 20.7365 21.9614C19.5445 22.2144 18.7793 23.3754 19.0375 24.5682V24.5682Z" fill="#FFEFE1"/>
<path d="M20.8326 18.4906C21.7595 18.5776 22.5806 17.8958 22.6664 16.9677C22.7522 16.0397 22.0703 15.2168 21.1433 15.1298C20.2163 15.0427 19.3953 15.7245 19.3095 16.6526C19.2237 17.5806 19.9056 18.4035 20.8326 18.4906Z" fill="#D9B1EE"/>
<path d="M8.79514 24.1572C8.79514 24.1572 13.5414 27.6078 11.1943 32.2238C11.1943 32.2238 10.5441 31.1344 6.80173 31.6639L5.55761 26.2204L8.79514 24.1572Z" fill="#FEAEE1"/>
<path d="M31.0913 20.548C31.3913 20.576 31.6571 20.3552 31.685 20.0546C31.7129 19.7541 31.4923 19.4877 31.1922 19.4596C30.8922 19.4315 30.6263 19.6524 30.5984 19.9529C30.5706 20.2535 30.7912 20.5199 31.0913 20.548Z" fill="black"/>
<path d="M31.4904 15.5804C31.2866 15.3505 30.9327 15.3333 30.7078 15.5457C30.4907 15.7509 30.4919 16.0995 30.6903 16.3233C31.7772 17.5497 32.5333 18.4312 32.9377 18.9436C33.5274 19.6908 33.0861 21.2571 31.9541 22.4352C31.4165 22.9948 29.4863 24.6915 27.2195 23.0327C26.3717 22.4124 25.5748 21.8304 24.84 21.2948C24.9803 21.2124 25.1175 21.1245 25.251 21.0303C25.4779 20.87 25.5601 20.5605 25.427 20.3163C25.2672 20.0235 24.8948 19.943 24.6313 20.1301C24.3042 20.3622 23.9505 20.5496 23.576 20.692C23.5223 20.7125 23.4685 20.7317 23.4148 20.7501C23.3836 20.7607 23.3525 20.7715 23.321 20.7815C23.2986 20.7887 23.2763 20.7954 23.2539 20.8021C23.1969 20.8193 23.1398 20.8361 23.082 20.8512C21.8518 21.1727 20.57 20.9951 19.4724 20.351C18.3815 19.7107 17.6026 18.6857 17.277 17.4629C17.2021 17.1816 16.9308 16.9881 16.645 17.041C16.3298 17.0994 16.1358 17.4116 16.2155 17.7167C16.6113 19.2317 17.5723 20.5022 18.9214 21.294C19.3177 21.5266 19.7337 21.7092 20.1617 21.8417C20.6584 23.4781 21.1114 25.7177 21.4113 28.0336C21.4448 28.2918 21.653 28.4846 21.9015 28.5079C21.9472 28.5122 21.9943 28.5108 22.0419 28.5029C22.3347 28.4549 22.5292 28.1697 22.4909 27.8748C22.2198 25.7876 21.8257 23.7537 21.3847 22.1441C21.9899 22.1741 22.6427 22.0959 23.3583 21.9089C23.4287 21.8904 23.4999 21.8697 23.5711 21.8481C23.6117 21.8359 23.652 21.823 23.6923 21.8101C23.6926 21.8101 23.6927 21.8101 23.6929 21.8102C24.5621 22.443 25.5307 23.1501 26.5763 23.9152C27.632 24.6877 28.8116 24.9788 29.9876 24.7568C30.973 24.5709 31.9507 24.0157 32.7405 23.1936C34.0558 21.8247 34.8718 19.6325 33.7934 18.2662C33.3742 17.7349 32.5994 16.8314 31.4904 15.5804V15.5804Z" fill="black"/>
<path d="M22.1295 29.6326C21.8321 29.6655 21.6245 29.945 21.6484 30.2439C21.782 31.9072 21.8068 33.4238 21.7226 34.7617L7.49557 33.428C7.5567 33.0536 7.63778 32.6027 7.734 32.1026C9.97441 31.9116 10.635 32.4244 10.7352 32.5182C10.814 32.6909 10.9647 32.7806 11.1528 32.7983C11.167 32.7996 11.1815 32.8005 11.1961 32.801C11.3862 32.8077 11.5617 32.6973 11.6496 32.5283C12.7348 30.4426 12.6272 28.2405 11.34 26.165C10.7485 25.2114 10.041 24.4995 9.58524 24.0937C9.59822 24.0655 9.60921 24.036 9.61748 24.005C11.4792 17.0472 13.4776 11.9791 15.2443 9.73439C15.7188 9.13158 16.2244 8.62473 16.7472 8.22782C16.9138 8.10129 16.9908 7.88905 16.952 7.6831C16.6718 6.19472 16.7131 4.96631 16.8952 3.9854C16.9096 3.94188 16.9185 3.89601 16.9215 3.84842C17.1875 2.5419 17.7008 1.69657 18.0056 1.28625C19.892 2.37219 20.5195 5.18807 20.7267 6.83124C20.7547 7.05258 20.9134 7.23537 21.129 7.29116C22.6559 7.68624 23.974 8.73706 24.5522 9.54571C24.5655 9.56423 24.5798 9.5819 24.5952 9.59857C24.6189 9.62421 26.9863 12.1895 29.2285 14.6812C29.434 14.9096 29.7882 14.9242 30.0115 14.7101C30.2272 14.5032 30.2238 14.155 30.0237 13.9327C29.006 12.8019 27.9645 11.658 27.1274 10.7426C28.6494 10.2408 29.662 9.39177 30.1406 8.21262C31.1357 5.76061 29.3813 2.8462 29.3062 2.72335C29.1563 2.47836 28.8348 2.38264 28.5643 2.53632C28.4251 2.61536 28.3358 2.75785 28.3031 2.91472C28.2154 3.33449 27.9556 3.65709 27.5681 3.84423L28.8533 0.627642C29.0209 0.198969 28.8779 -0.26409 28.4974 -0.524693C28.1181 -0.784455 27.6178 -0.748205 27.2806 -0.436515C27.2707 -0.427343 27.2611 -0.417846 27.252 -0.407946L24.1038 2.96787C23.9895 2.88059 23.8749 2.78809 23.7618 2.69133C22.7545 1.83045 21.5698 1.62183 20.3267 2.08304C19.6222 0.991211 18.798 0.40977 18.0763 0.103198C17.8727 0.0167688 17.6374 0.0618328 17.4801 0.217275C17.4143 0.282328 16.4247 1.28847 15.9327 3.28244C13.93 3.4137 12.0887 4.37712 10.8259 5.96988C10.6481 6.19418 10.658 6.52406 10.866 6.72091C10.9596 6.80947 11.0742 6.85805 11.1908 6.86899C11.3686 6.88566 11.5511 6.81455 11.67 6.66372C12.6824 5.3798 14.1364 4.57559 15.7305 4.39775C15.6222 5.30323 15.6255 6.35831 15.8233 7.5661C15.3218 7.98162 14.8398 8.48191 14.387 9.05717C12.0641 12.0083 10.0067 18.388 8.66019 23.3613C8.41587 23.2079 8.09455 23.0462 7.71341 22.9458C7.44226 22.8745 7.15014 23.0129 7.05128 23.2756C6.93449 23.5858 7.11413 23.9201 7.42583 24.0003C8.00816 24.1502 8.41116 24.5369 8.41304 24.5387C8.43292 24.5584 8.45425 24.5766 8.47684 24.5931C8.48787 24.601 9.58612 25.4081 10.413 26.7413C11.368 28.2812 11.5545 29.8387 10.9704 31.3797C10.303 31.0581 9.04583 30.789 6.72603 31.1176C6.72581 31.1176 6.72551 31.1177 6.7253 31.1177C6.6756 31.1248 6.62488 31.1249 6.57662 31.111C4.42744 30.4938 2.99421 28.4227 3.20394 26.1582C3.36875 24.3787 4.50408 22.8696 6.16747 22.2181C6.23662 22.1909 6.30196 22.1529 6.35482 22.1006C6.53728 21.92 6.5676 21.6549 6.45575 21.4471C5.89041 20.3965 5.64993 19.2113 5.76028 18.0198C5.99305 15.5065 7.78469 13.3817 10.2186 12.7326C10.433 12.6755 10.5989 12.4911 10.6221 12.2525C10.6288 12.1838 10.6193 12.1144 10.6007 12.0479C10.3993 11.3314 10.332 10.5918 10.4007 9.84968C10.4478 9.34192 10.5575 8.84363 10.727 8.36836C10.827 8.08795 10.7017 7.76607 10.426 7.65437C10.1378 7.53753 9.813 7.68452 9.70822 7.97473C9.50295 8.54363 9.37032 9.14013 9.31404 9.74781C9.24911 10.449 9.28701 11.1483 9.42658 11.8332C6.81554 12.7461 4.93184 15.1295 4.67359 17.918C4.56143 19.129 4.75632 20.3346 5.23877 21.4384C3.48041 22.3359 2.30235 24.0577 2.11725 26.0564C1.84845 28.9586 3.7698 31.6027 6.5962 32.2433C6.47342 32.8999 6.38221 33.446 6.32958 33.8416C6.32038 33.9109 6.32203 33.9815 6.33951 34.0491C6.40009 34.2842 6.59619 34.4416 6.81954 34.4625L22.1665 35.9012C22.2345 35.9076 22.3037 35.9041 22.3694 35.8854C22.5977 35.8205 22.7487 35.6264 22.7682 35.4066C22.9047 33.8723 22.8933 32.0978 22.7343 30.1321C22.7095 29.8257 22.437 29.5985 22.1295 29.6326V29.6326ZM22.2793 6.52655L24.0004 4.68102C24.1893 5.33987 24.6021 6.00894 25.3974 6.33376L24.6996 8.08013C24.0734 7.49082 23.235 6.91573 22.2793 6.52655V6.52655ZM27.2822 5.07094C27.9166 4.96067 28.4536 4.66061 28.8315 4.22831C29.2123 5.1513 29.6201 6.59587 29.1282 7.80371C28.7307 8.77957 27.7805 9.46602 26.3046 9.84459C25.9323 9.43888 25.6539 9.13638 25.5088 8.97902C25.5233 8.95476 25.5363 8.92926 25.5471 8.90217L27.0794 5.06745C27.1444 5.08086 27.2128 5.08296 27.2822 5.07094V5.07094ZM27.6003 0.820754L25.8032 5.31813C25.4582 5.17276 25.2206 4.89672 25.0826 4.48061C24.9703 4.14215 24.9575 3.80878 24.9587 3.65335L27.6003 0.820754ZM23.0537 3.52287C23.1536 3.60821 23.2547 3.69059 23.3559 3.76998L21.6378 5.61234C21.4413 4.59441 21.1702 3.75402 20.8542 3.05851C21.6662 2.80203 22.3883 2.95411 23.0537 3.52287Z" fill="black"/>
<path d="M21.7425 12.2195C21.7591 12.0408 21.9289 11.9128 22.1097 11.9538C22.2602 11.9879 22.3505 12.137 22.3405 12.2913C22.3211 12.5923 22.5502 12.8552 22.8556 12.8722C23.1632 12.8893 23.4144 12.635 23.4319 12.327C23.474 11.5821 22.918 10.9292 22.1707 10.8592C21.4229 10.7891 20.7563 11.328 20.6615 12.0684C20.6237 12.3638 20.808 12.6528 21.1006 12.706C21.4198 12.7642 21.7132 12.5361 21.7425 12.2195Z" fill="black"/>
<path d="M18.8025 16.3616C18.5215 17.7637 19.5973 19.0627 21.0249 19.0452C22.065 19.0324 22.9699 18.2806 23.1747 17.259C23.4557 15.857 22.3798 14.5579 20.9523 14.5755C19.9121 14.5883 19.0072 15.3401 18.8025 16.3616ZM20.9451 15.6693C21.6951 15.6444 22.2632 16.3304 22.1002 17.064C21.9891 17.5641 21.5432 17.9345 21.032 17.9515C20.2821 17.9763 19.7141 17.2903 19.8771 16.5567C19.9881 16.0566 20.4339 15.6862 20.9451 15.6693V15.6693Z" fill="black"/>
<path d="M34.2895 10.3958C34.3335 10.4114 34.378 10.4211 34.4223 10.4253C34.6753 10.449 34.9183 10.2921 34.9945 10.0391L35.0531 9.84439C35.1332 9.57837 35.0137 9.28354 34.7604 9.17034C34.4538 9.03342 34.1074 9.19901 34.0136 9.51037L33.9556 9.703C33.8706 9.98561 34.0118 10.297 34.2895 10.3958V10.3958Z" fill="black"/>
<path d="M35.4681 10.6112L35.2952 10.5588C35.0092 10.4722 34.6933 10.6175 34.5986 10.9013C34.5005 11.1948 34.6646 11.5096 34.9584 11.5986L35.1704 11.6627C35.2062 11.6735 35.2421 11.6805 35.278 11.6839C35.5495 11.7093 35.8096 11.5269 35.8642 11.2406C35.9171 10.9632 35.7381 10.6929 35.4681 10.6112V10.6112Z" fill="black"/>
<path d="M33.4026 11.5635L33.3441 11.7576C33.2593 12.0395 33.4004 12.3497 33.6773 12.4486C33.7217 12.4644 33.7666 12.4742 33.8112 12.4784C34.0643 12.5021 34.3073 12.3453 34.3835 12.0922L34.4408 11.9017C34.527 11.6154 34.382 11.299 34.0989 11.2038C33.8058 11.1051 33.4912 11.2691 33.4026 11.5635V11.5635Z" fill="black"/>
<path d="M32.9332 10.9928L33.1232 11.0503C33.1591 11.0611 33.195 11.0681 33.2309 11.0715C33.5024 11.0969 33.7625 10.9145 33.8171 10.6282C33.8699 10.3507 33.691 10.0805 33.421 9.99881L33.2262 9.93978C32.9322 9.85081 32.6221 10.022 32.5418 10.321C32.4642 10.6099 32.6472 10.9062 32.9332 10.9928V10.9928Z" fill="black"/>
<path d="M4.28899 6.68111C4.333 6.69673 4.37755 6.70639 4.42181 6.71054C4.67485 6.73426 4.91785 6.5775 4.99405 6.32436L5.05263 6.12974C5.13272 5.86379 5.01337 5.56905 4.76001 5.45571C4.45354 5.31865 4.10691 5.48415 4.0131 5.79565L3.95515 5.98828C3.87008 6.27089 4.0112 6.58231 4.28899 6.68111Z" fill="black"/>
<path d="M4.58793 7.21882C4.51032 7.50773 4.69331 7.80394 4.97922 7.89054L5.1694 7.94811C5.20522 7.95893 5.24118 7.96589 5.27704 7.96925C5.54859 7.9947 5.80864 7.81226 5.86321 7.52594C5.91609 7.24847 5.73719 6.97833 5.46719 6.89659L5.2724 6.83757C4.97838 6.74853 4.66822 6.91984 4.58793 7.21882V7.21882Z" fill="black"/>
<path d="M4.38305 8.37746L4.44163 8.18276C4.52173 7.91674 4.40224 7.62192 4.14879 7.50871C3.84223 7.3718 3.49582 7.53738 3.40209 7.84882L3.34363 8.04294C3.25878 8.32484 3.39986 8.63501 3.67685 8.73388C3.7212 8.74967 3.7661 8.75952 3.81073 8.7637C4.06383 8.78743 4.30685 8.63059 4.38305 8.37746Z" fill="black"/>
<path d="M3.81583 6.91338C3.86878 6.63599 3.68996 6.36578 3.41996 6.28404L3.24691 6.23167C2.96092 6.14506 2.645 6.29022 2.55026 6.57401C2.4522 6.86759 2.61621 7.18244 2.91009 7.27139L3.12202 7.33554C3.15777 7.34636 3.1938 7.35332 3.22966 7.35668C3.50114 7.38213 3.76119 7.19968 3.81583 6.91338V6.91338Z" fill="black"/>
<g clip-path="url(#clip1)">
<path fill-rule="evenodd" clip-rule="evenodd" d="M41.4796 17.2492C40.1744 14.7697 41.4418 11.7143 44.1187 10.8865C46.481 10.156 48.9882 11.4788 49.7187 13.8411L51.3493 19.1144C51.9273 18.89 52.5211 18.6829 53.1292 18.4949C53.7134 18.3143 54.2966 18.1555 54.877 18.0183L53.2478 12.7498C52.5173 10.3875 53.8401 7.88036 56.2024 7.14986C58.8793 6.32208 61.6502 8.1288 61.9725 10.9122L62.7318 17.4685C67.2406 17.9745 71.176 20.0579 72.3466 23.8432L73.0547 26.1333C74.0172 29.246 72.7639 32.489 70.429 35.1386C68.0759 37.8088 64.4769 40.0766 60.2108 41.3958C55.9448 42.715 51.6939 42.8746 48.2442 41.9988C44.8213 41.1297 41.9561 39.1602 40.9935 36.0475L40.2854 33.7575C39.121 29.9922 41.1661 26.0722 44.5678 23.1163L41.4796 17.2492ZM61.5002 18.7416L60.6119 11.0697C60.3881 9.13792 58.4651 7.88394 56.6071 8.45848C54.9675 8.96548 54.0494 10.7056 54.5564 12.3452L56.6315 19.0558C56.1848 19.1336 55.7349 19.2249 55.2826 19.3301C54.7027 19.465 54.1191 19.6226 53.5339 19.8036C52.9248 19.9919 52.3312 20.2002 51.7551 20.4265C51.3228 20.5963 50.9001 20.7762 50.488 20.9654L48.4101 14.2458C47.9031 12.6062 46.1629 11.6881 44.5234 12.1951C42.6655 12.7696 41.7858 14.8903 42.6917 16.6112L46.3009 23.468C42.5406 26.3599 40.5858 30.0925 41.594 33.3528L42.3021 35.6429C43.8386 40.6116 51.6754 42.6014 59.8062 40.0872C67.9369 37.5729 73.2826 31.5067 71.7461 26.5379L71.038 24.2479C70.0246 20.971 66.2711 18.9898 61.5002 18.7416Z" fill="#633001"/>
<path d="M71.7454 26.5381C73.2819 31.5069 67.9362 37.5731 59.8054 40.0874C51.6747 42.6016 43.8379 40.6118 42.3014 35.643L41.5933 33.353L71.0372 24.248L71.7454 26.5381Z" fill="#FEDC90"/>
<path fill-rule="evenodd" clip-rule="evenodd" d="M42.691 16.6114C41.7852 14.8905 42.6648 12.7698 44.5228 12.1953C46.1623 11.6883 47.9024 12.6064 48.4094 14.246L50.4873 20.9657C51.4485 20.5242 52.467 20.1334 53.5332 19.8037C54.5748 19.4816 55.6116 19.2334 56.6308 19.056L54.5557 12.3454C54.0487 10.7058 54.9668 8.96568 56.6064 8.45868C58.4644 7.88414 60.3876 9.13808 60.6112 11.0699L61.4996 18.7418C66.2704 18.9899 70.024 20.9711 71.0373 24.248C72.5738 29.2168 67.2281 35.283 59.0973 37.7973C50.9666 40.3115 43.1298 38.3217 41.5933 33.3529C40.5852 30.0928 42.5399 26.36 46.3003 23.4682L42.691 16.6114Z" fill="#D1884F"/>
<path d="M52.023 29.4108C52.442 30.766 52.0493 32.0909 51.1459 32.3703C50.2425 32.6496 49.1705 31.7776 48.7514 30.4225C48.3324 29.0673 48.725 27.7424 49.6284 27.4631C50.5319 27.1837 51.6039 28.0557 52.023 29.4108Z" fill="#633001"/>
<path d="M63.3098 25.9206C63.7289 27.2757 63.3362 28.6007 62.4327 28.88C61.5294 29.1594 60.4573 28.2874 60.0383 26.9322C59.6192 25.5771 60.0119 24.2521 60.9153 23.9728C61.8187 23.6934 62.8907 24.5654 63.3098 25.9206Z" fill="#633001"/>
</g>
</g>
<defs>
<clipPath id="clip0">
<rect width="76" height="46" fill="white"/>
</clipPath>
<clipPath id="clip1">
<rect width="33.9015" height="33.9015" fill="white" transform="translate(34 14.0154) rotate(-17.1831)"/>
</clipPath>
</defs>
</svg>
