<svg width="18" height="14" viewBox="0 0 18 14" fill="none" xmlns="http://www.w3.org/2000/svg">
<path d="M16.0591 1.91295L17.3996 0.630554V0.349854H12.7558L9.44621 8.58745L5.68091 0.349854H0.811709V0.630554L2.37761 2.51565C2.53021 2.65495 2.61001 2.85865 2.58971 3.06375V10.4719C2.63801 10.7386 2.55121 11.013 2.36361 11.2069L0.599609 13.3447V13.6219H5.60111V13.3412L3.83711 11.2069C3.64601 11.0123 3.55571 10.7428 3.59421 10.4719V4.06405L7.98461 13.6254H8.49491L12.27 4.06405V11.6808C12.27 11.8817 12.27 11.923 12.1384 12.0546L10.7804 13.3685V13.6499H17.3688V13.3692L16.0598 12.0875C15.945 12.0007 15.8855 11.8551 15.91 11.7137V2.28675C15.8855 2.14465 15.9443 1.99905 16.0591 1.91295Z" fill="#6599C2"/>
</svg>
