<svg width="16" height="14" viewBox="0 0 16 14" fill="none" xmlns="http://www.w3.org/2000/svg">
<path d="M15.6998 0.700032C15.0295 1.17287 14.2873 1.53451 13.5018 1.77103C13.0802 1.28629 12.5199 0.942717 11.8967 0.78678C11.2735 0.630844 10.6175 0.670069 10.0173 0.89915C9.41707 1.12823 8.90171 1.53611 8.54089 2.06763C8.18007 2.59915 7.99119 3.22867 7.9998 3.87103V4.57103C6.76965 4.60293 5.5507 4.3301 4.45151 3.77684C3.35232 3.22359 2.40703 2.40708 1.6998 1.40003C1.6998 1.40003 -1.1002 7.70003 5.1998 10.5C3.75817 11.4786 2.04081 11.9693 0.299805 11.9C6.5998 15.4 14.2998 11.9 14.2998 3.85003C14.2992 3.65505 14.2804 3.46055 14.2438 3.26903C14.9582 2.56448 15.4624 1.67493 15.6998 0.700032Z" fill="#6599C2"/>
</svg>
